<svg width="51" height="54" viewBox="0 0 51 54" fill="none" xmlns="http://www.w3.org/2000/svg">
<mask id="mask0_40_10549" style="mask-type:luminance" maskUnits="userSpaceOnUse" x="9" y="0" width="32" height="43">
<path d="M9.94519 0.217346H40.0976V42.8528H9.94519V0.217346Z" fill="white"/>
</mask>
<g mask="url(#mask0_40_10549)">
<mask id="mask1_40_10549" style="mask-type:luminance" maskUnits="userSpaceOnUse" x="10" y="0" width="31" height="43">
<path d="M10.026 27.0367C10.1359 19.6675 10.3008 19.438 10.3008 19.1111C10.3008 18.8193 10.1618 18.652 10.1618 18.259C10.1101 17.2124 10.2459 14.4616 10.5983 12.629C10.9798 10.7965 11.552 8.83161 12.3668 7.25972C13.1848 5.75008 14.2453 4.3455 15.3866 3.36113C16.502 2.41177 17.8632 1.75811 19.1694 1.36514C20.4755 0.972169 22.0533 0.906025 23.2528 0.906025C24.2034 0.906025 24.9405 1.33012 25.7811 1.23285C26.6541 1.13558 27.498 0.349639 28.4226 0.314622C29.4572 0.283495 30.6794 0.676467 31.6881 1.26398C32.7745 1.92153 33.7832 3.0343 34.6529 4.24434C35.6617 5.58667 36.5572 7.29084 37.2912 8.99502C38.0542 10.7614 38.7364 12.6952 39.1696 14.66C39.632 16.6872 39.9585 20.29 39.9585 21.0098C39.9585 21.1771 39.9036 21.2394 39.9036 21.2744C39.9327 21.3055 39.9327 21.3055 39.9327 21.3406C39.9876 21.5662 39.9036 23.2704 39.9036 24.0563C39.9327 24.6789 40.0684 24.9746 40.0135 25.6632C39.9036 27.0056 39.3345 29.8537 38.5974 31.6862C37.8925 33.4877 36.8288 35.1568 35.6617 36.6003C34.5171 38.071 33.156 39.3822 31.6332 40.3627C30.0812 41.3782 28.2319 42.098 26.4633 42.4599C24.7498 42.8529 22.8972 42.919 21.2386 42.6583C19.6867 42.3937 18.1089 41.8373 16.7768 41.0203C15.5515 40.2343 14.436 39.25 13.5372 38.0049C12.5867 36.6976 11.7945 35.0596 11.2255 33.3243C10.5983 31.4255 10.026 27.0367 10.026 27.0367ZM11.2514 27.0367C12.3668 32.0792 12.0403 29.2623 12.0952 28.2818C12.1502 27.6281 12.4767 27.2001 12.3959 26.7099C12.3118 26.2196 11.7428 25.7605 11.5779 25.3014C11.468 24.9084 11.523 24.4493 11.4421 24.1886C11.3872 24.0563 11.3063 23.8618 11.2805 23.8929C11.1414 23.9241 11.2514 27.0367 11.2514 27.0367ZM11.7137 13.5784C13.8929 9.45024 14.9792 8.37249 16.0138 7.5204C17.0484 6.63719 18.6003 5.68783 19.3892 5.32599C19.7966 5.16257 20.0423 5.29486 20.3398 5.09643C20.7213 4.86687 20.9929 4.31048 21.4552 3.88639C22.0275 3.39225 23.6343 2.60631 23.5794 2.41177C23.5794 2.34562 23.3595 2.38064 23.117 2.38064C22.4639 2.38064 20.5305 2.44289 19.3051 2.83587C18.1347 3.19771 16.9126 3.82024 15.933 4.67233C14.8984 5.58667 13.9995 6.86675 13.2915 8.20908C12.5576 9.64868 11.8786 12.3995 11.7428 13.1543C11.7137 13.38 11.7137 13.5784 11.7137 13.5784ZM11.9853 20.0605C12.6675 24.0252 12.7742 24.2859 12.8582 24.2548C12.9649 24.2198 12.9649 23.4338 13.1298 22.8113C13.4273 21.6012 14.6526 18.7182 14.8984 17.6715C15.0083 17.2124 14.9533 17.0801 15.0342 16.656C15.1441 16.0024 15.7681 14.2982 15.7131 14.1037C15.6872 14.0686 15.6614 14.0686 15.6614 14.0686C15.6323 14.0686 15.6323 14.0686 15.6323 14.0375C15.6064 14.0375 15.6064 14.0375 15.6064 14.0375C15.5773 14.0025 15.5773 13.9714 15.5515 13.9714C15.5515 13.9402 15.5224 13.9402 15.4965 13.9052V13.8741L15.4706 13.8391C15.4706 13.808 15.4415 13.7729 15.4415 13.7729C15.4415 13.7418 15.4157 13.7107 15.4157 13.7107C15.4157 13.6757 15.4157 13.6757 15.4157 13.6445C15.4157 13.6445 15.3866 13.6445 15.3866 13.6095C15.3866 13.6095 15.3866 13.5784 15.3866 13.5473C15.3866 13.5123 15.3866 13.4811 15.3866 13.4461C15.3866 13.4461 15.3866 13.4461 15.3866 13.415V13.38C15.3866 13.3488 15.4157 13.3177 15.4157 13.3177C15.4157 13.2827 15.4157 13.2516 15.4157 13.2165C15.4157 13.2165 15.4415 13.2165 15.4415 13.1854V13.1543C15.4415 13.1193 15.4706 13.1193 15.4706 13.0882C15.4965 13.0531 15.5224 13.022 15.5224 13.022C15.5224 13.022 16.2046 12.0726 16.3403 11.7108C16.4212 11.5474 16.4212 11.4151 16.4761 11.2517C16.5311 11.0883 16.7477 10.7965 16.7219 10.7614C16.641 10.6642 15.2799 11.8742 14.6526 12.6602C13.9737 13.5123 13.2915 14.5278 12.8582 15.7067C12.3668 16.9829 11.9853 20.0605 11.9853 20.0605ZM13.2915 28.5775C13.7829 34.3047 14.2194 35.4837 14.9242 36.2073C15.6323 36.9583 16.9385 37.4835 17.7565 37.5497C18.3805 37.6119 19.3892 37.3863 19.4151 37.1567C19.47 36.8921 18.2447 36.5342 17.7565 35.9778C17.2101 35.3553 16.7477 33.9779 16.4212 33.4877C16.2595 33.2931 16.1755 33.2931 16.0397 33.0636C15.7681 32.5694 15.5224 30.8692 15.0891 30.2778C14.7884 29.8848 14.3002 29.8848 13.9995 29.558C13.728 29.2311 13.4273 28.3479 13.3464 28.379C13.2915 28.379 13.2915 28.5775 13.2915 28.5775ZM13.7829 25.9551C14.1644 26.6437 14.3261 26.8422 14.4069 26.8071C14.5977 26.6749 14.2711 23.3677 14.2453 23.3677C14.2194 23.4688 13.7829 25.9551 13.7829 25.9551ZM15.0342 37.6469C18.6262 40.495 20.149 41.0203 21.5651 41.2148C23.117 41.4444 24.8306 41.3471 26.4084 40.9853C28.0411 40.6273 29.7838 39.9386 31.2258 38.9893C32.6128 38.071 33.9449 36.6976 34.8986 35.4525C35.7134 34.437 36.8579 32.3749 36.7771 32.2776C36.6672 32.1453 34.4913 34.9934 33.7024 35.5498C33.2918 35.8455 32.9652 35.8144 32.6936 36.0089C32.4479 36.1723 32.422 36.3357 32.1505 36.5342C31.3616 37.0555 29.0757 38.1372 27.5238 38.4329C26.0269 38.6936 23.741 38.464 22.9812 38.2695C22.7064 38.2033 22.6256 38.071 22.4348 38.0399C22.2182 37.9738 22.0533 38.0049 21.7009 38.0399C20.8571 38.1372 18.6003 39.1216 17.4008 38.9231C16.4761 38.7908 15.0342 37.6469 15.0342 37.6469ZM15.1699 10.3685C17.1292 8.69932 17.6465 8.6643 17.8923 8.40362C18.083 8.20908 18.2996 7.78109 18.2447 7.71494C18.1638 7.61767 17.1034 8.37249 16.6119 8.79659C16.0688 9.2557 15.1699 10.3685 15.1699 10.3685ZM15.7131 23.2704C15.823 25.138 15.7681 23.107 15.7422 23.107L15.7131 23.2704ZM15.823 25.5621C15.9588 27.9549 15.9879 28.0522 16.0397 28.1845C16.0946 28.2818 16.2595 28.4102 16.2854 28.379C16.3145 28.3479 16.2046 28.0833 16.2046 27.8888C16.1755 27.6281 16.2854 27.2663 16.2595 26.9394C16.2046 26.5114 15.823 25.5621 15.823 25.5621ZM16.9676 31.8496C17.0743 32.1453 17.3459 32.6356 17.4299 32.7679C17.4816 32.834 17.5366 32.9002 17.5366 32.8651C17.5657 32.8651 16.9676 31.8496 16.9676 31.8496ZM17.1551 13.4461C17.2101 13.3177 17.2392 13.3177 17.2392 13.2827C17.3459 13.1193 17.7015 12.0727 17.6724 12.0727C17.6465 12.0376 17.4816 12.3022 17.4008 12.4967C17.2941 12.7263 17.1551 13.4461 17.1551 13.4461ZM17.4816 26.8071C18.2738 29.0677 18.2996 29.165 18.4904 29.2623C18.8169 29.4918 19.4959 29.6902 20.1781 29.7875C21.1836 29.9198 23.3337 29.8537 24.0417 29.6902C24.3133 29.6241 24.5849 29.5268 24.5849 29.4257C24.614 29.2622 24.0417 28.9704 23.7152 28.8693C23.3595 28.772 22.9812 29.0016 22.5157 28.9704C21.8108 28.8693 20.6954 28.6086 19.8774 28.1495C19.0885 27.6904 18.0281 26.7099 17.7015 26.2819C17.5916 26.0873 17.5657 25.8267 17.5366 25.8267C17.4816 25.8267 17.4816 26.8071 17.4816 26.8071ZM17.5916 16.656C18.9527 13.415 19.1985 13.0531 19.1694 13.022C19.1435 13.022 18.6262 13.6445 18.4613 13.9052C18.3546 14.0686 18.2996 14.1348 18.2188 14.3332C18.0539 14.625 17.8632 15.2164 17.7565 15.6094C17.6724 15.9674 17.5916 16.656 17.5916 16.656ZM17.8373 23.2043C17.9181 23.8929 18.3255 24.9746 18.762 25.531C19.2243 26.1185 20.0423 26.6437 20.5564 26.9044C20.8829 27.0678 21.3194 27.2663 21.4002 27.134C21.536 26.9044 20.149 25.4959 19.7158 24.3832C19.2243 23.1381 18.8719 20.718 18.8169 19.9321C18.7878 19.6675 18.8719 19.3757 18.8428 19.3757C18.7878 19.3407 18.6003 19.9321 18.4613 20.3562C18.2738 21.076 17.8373 23.2043 17.8373 23.2043ZM18.5712 32.2115C20.2589 34.6666 21.4843 35.4525 22.1374 35.7482C22.5157 35.9116 22.6806 36.0089 23.0879 35.9428C23.8768 35.7794 26.5991 33.8806 26.5442 33.7484C26.5183 33.6861 25.7811 34.1102 25.2638 34.1763C24.4491 34.2425 23.0879 34.0441 22.1083 33.7172C21.2095 33.4215 20.2589 32.6045 19.58 32.3749C19.1985 32.2426 18.5712 32.2115 18.5712 32.2115ZM19.7675 10.1389C21.1836 8.76546 20.7762 8.76546 20.5855 8.89386C20.2848 9.09229 19.7675 10.1389 19.7675 10.1389ZM20.0423 19.9632C21.3194 25.0718 22.0533 26.1535 22.6547 26.741C23.0621 27.134 23.4694 27.3324 23.8768 27.4297C24.2874 27.4958 24.6948 27.4297 25.1281 27.2974C25.7003 27.134 26.9806 26.4492 26.9515 26.3831C26.9515 26.3169 25.2638 27.134 24.5041 27.1028C23.796 27.0678 22.9263 26.8422 22.4898 26.348C22.0824 25.9551 21.8108 25.2041 21.7559 24.5466C21.7009 23.8618 22.0275 22.9124 22.2441 22.2899C22.409 21.7958 22.8163 21.4028 22.8713 21.0449C22.9263 20.7492 22.7355 20.5196 22.7064 20.1928C22.6547 19.7337 22.7064 19.1111 22.7614 18.5898C22.8163 18.0334 22.9521 17.5081 23.0621 17.0179C23.1429 16.5588 23.2528 16.0996 23.3886 15.6755C23.4953 15.2826 23.6052 14.8896 23.741 14.5278C23.8768 14.1659 24.0417 13.9052 24.1775 13.5784C24.3392 13.2516 24.475 12.8586 24.6657 12.5629C24.8565 12.2672 25.1022 11.9404 25.2638 11.8431C25.4029 11.7769 25.5904 11.8742 25.6195 11.8081C25.6454 11.7108 25.2638 11.1544 25.1022 11.0571C25.0214 10.991 24.9664 11.0221 24.8306 11.0571C24.5041 11.0883 23.6861 11.2867 23.1688 11.6135C22.5997 11.9754 22.0533 12.5629 21.5651 13.2165C21.0219 13.9402 20.3947 14.8896 20.149 15.9362C19.8515 17.1151 20.0423 19.9632 20.0423 19.9632ZM21.4843 31.196C23.0879 31.3283 23.8219 31.196 23.8219 31.161C23.8219 31.0987 21.4843 31.196 21.4843 31.196ZM22.9263 24.6477C25.3479 25.6944 26.2726 25.1691 26.6541 24.9396C26.8449 24.8112 27.0356 24.6127 27.0065 24.5466C26.9806 24.4843 26.7349 24.6127 26.5442 24.5816C26.1918 24.5155 25.5904 24.352 25.1572 24.1225C24.7207 23.8929 24.2325 23.5311 23.9318 23.2043C23.741 23.0097 23.6343 22.5506 23.5244 22.5817C23.4145 22.5817 23.3595 22.8113 23.2787 23.0408C23.1688 23.4027 22.9263 24.6477 22.9263 24.6477ZM23.0879 4.4739C23.4953 4.44277 25.8911 4.80073 27.0065 5.32599C28.0153 5.75008 28.8559 6.66831 29.6189 7.0963C30.1621 7.38811 30.5436 7.38812 31.035 7.68382C31.659 8.04566 32.5029 8.56703 33.0751 9.15843C33.6183 9.6798 34.1647 10.3023 34.4913 10.991C34.7887 11.6135 34.9795 12.7613 35.0086 13.1193C35.0086 13.2165 34.9536 13.2165 34.9795 13.3488C35.0603 13.808 36.4764 15.839 36.7221 16.5237C36.8288 16.7883 36.748 16.9167 36.8579 17.1151C37.0745 17.5081 38.0542 18.4886 38.2449 18.3252C38.5715 18.0334 37.2912 13.808 36.5023 11.8742C35.7425 10.0728 34.7628 8.30635 33.7024 6.99514C32.7486 5.81623 31.6332 4.90189 30.4886 4.21321C29.3732 3.52454 27.7954 3.06542 26.9515 2.83587C26.4892 2.7386 26.1627 2.67245 25.8652 2.70747C25.5904 2.7386 25.4837 2.83587 25.2121 2.96815C24.6948 3.26385 23.0879 4.4739 23.0879 4.4739ZM23.1429 6.63719C23.741 6.73446 23.7701 6.99514 23.851 6.99514C23.9609 7.03016 24.0676 6.8006 24.2034 6.73446C24.4232 6.63719 25.0214 6.60217 25.0214 6.53603C25.0214 6.43876 24.1225 6.27534 23.7701 6.31036C23.5244 6.34149 23.1429 6.63719 23.1429 6.63719ZM24.1225 32.5383C26.1077 32.6356 27.3331 32.3088 28.0153 31.7835C28.6393 31.2933 29.1824 30.375 29.4572 29.7875C29.648 29.4257 29.8097 28.8693 29.8097 28.772C29.8097 28.7409 29.7838 28.7409 29.7838 28.7409C29.6997 28.7059 29.1824 28.9354 29.0466 29.1339C28.9108 29.3284 29.0208 29.6552 28.8559 29.9509C28.5293 30.5423 27.3072 31.7524 26.4342 32.1765C25.7003 32.5694 24.1225 32.5383 24.1225 32.5383ZM24.2034 31.0987C26.6541 30.5073 27.388 29.7214 27.3331 29.6241C27.2781 29.4607 24.2034 31.0987 24.2034 31.0987ZM24.2874 18.8193C25.9169 16.9829 26.9806 16.8856 27.1423 16.2942C27.3331 15.6405 26.4342 13.9052 26.2435 13.5784C26.1918 13.5123 26.1627 13.4811 26.1368 13.4811C26.001 13.5122 25.7294 14.1659 25.5645 14.4966C25.4029 14.8235 25.2929 15.053 25.1281 15.446C24.9405 16.0024 24.6948 16.9517 24.559 17.5743C24.4491 18.0334 24.2874 18.8193 24.2874 18.8193ZM24.3683 20.8814C24.5849 21.5351 24.8306 21.8308 25.0472 22.0253C25.2929 22.2238 25.5904 22.4533 25.8911 22.5817C26.2176 22.714 26.625 22.8113 26.8966 22.8463C27.0615 22.8774 27.2231 22.9436 27.3072 22.8113C27.498 22.5817 27.1423 21.2744 27.1973 20.4885C27.2781 19.6675 27.7146 18.4263 27.6887 17.9672C27.6887 17.8038 27.6596 17.6404 27.5788 17.6054C27.3622 17.5081 26.5183 18.2279 26.0269 18.7182C25.4546 19.2434 24.5849 20.4885 24.4232 20.7492C24.3941 20.8153 24.3683 20.8814 24.3683 20.8814ZM25.0214 36.3357C25.6195 36.3046 27.6337 35.4525 28.6942 34.6355C29.7838 33.8145 31.09 32.2776 31.659 31.3594C31.9597 30.8692 32.2863 30.3128 32.2054 30.0171C32.1214 29.7875 31.5523 29.5891 31.3874 29.6902C31.2775 29.7214 31.3325 29.9198 31.2258 30.0832C30.951 30.5073 29.9745 31.3594 29.3473 32.1453C28.6393 32.9974 27.9603 34.2736 27.1973 34.9934C26.5183 35.6159 25.0214 36.3357 25.0214 36.3357ZM25.5645 7.84723C25.946 7.91337 26.5442 7.74996 26.5442 7.71494C26.5442 7.68382 26.3276 7.65269 26.1918 7.65269C26.0269 7.65269 25.5645 7.84723 25.5645 7.84723ZM26.5183 28.1495C27.3072 28.1184 27.3072 28.0833 27.3622 28.0522C27.4689 27.9549 27.7146 27.6592 27.6887 27.5931C27.6337 27.5269 26.5183 28.1495 26.5183 28.1495ZM26.8707 11.5163C27.2231 12.3995 27.4689 12.4306 27.6337 12.629C27.8245 12.8897 28.067 13.3177 28.2028 13.6445C28.3127 13.9402 28.3677 14.3643 28.3935 14.5589C28.4226 14.66 28.4226 14.6912 28.4226 14.7573C28.4226 14.8546 28.4226 14.9207 28.3935 14.9869C28.3935 15.053 28.3677 15.1153 28.3418 15.1814C28.3127 15.2164 28.2868 15.2826 28.2577 15.3448C28.2319 15.3798 28.1769 15.3798 28.1511 15.446C28.1511 15.5433 28.2319 15.8701 28.3127 15.9362C28.3935 15.9674 28.5035 15.9362 28.5843 15.8701C28.7201 15.7728 28.83 15.3137 28.9399 15.1814C29.0208 15.0841 29.1307 15.1153 29.1566 15.018C29.2115 14.66 27.8245 12.629 27.388 12.0727C27.1714 11.7769 26.8707 11.5163 26.8707 11.5163ZM27.0615 26.3169C27.5788 26.0212 27.9053 25.8267 27.9312 25.6944C27.9312 25.6282 27.9053 25.531 27.8762 25.531C27.7695 25.4648 27.0615 26.3169 27.0615 26.3169ZM28.1511 9.15843C29.1566 10.2362 29.1824 10.2051 29.2924 10.3023C29.6739 10.6292 31.3325 12.4306 31.8239 13.2827C32.1214 13.7418 32.2863 14.4966 32.3412 14.5589C32.3671 14.5278 31.5782 12.2672 31.0609 11.3529C30.6276 10.598 29.8646 9.6798 29.509 9.41912C29.3732 9.28683 29.3473 9.2557 29.2115 9.22458C28.9658 9.15843 28.1511 9.15843 28.1511 9.15843ZM28.1511 1.78924C32.1505 3.59068 33.7541 5.39213 33.8091 5.32599C33.8091 5.32599 33.7541 5.1937 33.6474 5.0653C33.3209 4.63731 31.9306 2.99928 30.9801 2.44289C30.1103 1.95265 28.5035 1.7231 28.2319 1.75811C28.2028 1.75811 28.1511 1.78924 28.1511 1.78924ZM28.9949 17.9984C29.2374 18.9166 29.2924 20.29 29.3732 20.29C29.4831 20.29 29.7288 17.8661 29.7288 17.442C29.7288 17.3097 29.7288 17.2474 29.6739 17.2124C29.6189 17.1463 29.4831 17.1813 29.4281 17.1813C29.4023 17.2124 29.4023 17.1813 29.3732 17.2124C29.2924 17.2786 28.9949 17.9984 28.9949 17.9984ZM29.2115 35.9428C30.0263 35.7482 31.3616 35.2541 32.2054 34.6666C33.1301 34.0129 34.2455 32.9974 34.8437 32.0481C35.306 31.3594 35.9041 30.1494 35.6875 29.8186C35.4968 29.4918 33.9449 29.7875 33.4276 30.2466C32.9102 30.7057 32.9943 31.6862 32.5029 32.441C31.7948 33.5538 29.2115 35.9428 29.2115 35.9428ZM29.8097 23.8268C29.8355 23.9591 29.8646 23.7957 29.8646 23.7957L29.8097 23.8268ZM29.8097 26.741C30.1621 27.0367 30.327 26.9044 30.4628 26.776C30.6276 26.5114 30.7634 25.9239 30.8443 25.5621C30.8992 25.2703 30.9801 24.8112 30.9251 24.7761C30.8992 24.745 30.8152 24.8423 30.7893 24.9084C30.6794 25.0718 30.6794 25.4337 30.5727 25.6944C30.4078 26.0562 29.8097 26.741 29.8097 26.741ZM30.4369 21.2083C30.5727 21.0449 30.7085 20.5546 30.7085 20.29C30.7343 20.0955 30.6794 19.7025 30.6535 19.7025C30.5985 19.7025 30.4369 21.2083 30.4369 21.2083ZM31.4683 15.6755C31.4974 15.839 31.5232 15.839 31.5232 15.839C31.5232 15.8039 31.4683 15.6755 31.4683 15.6755ZM31.6041 17.3097C31.6881 17.9322 31.7689 18.0334 31.8239 18.1968C31.8789 18.4575 31.8789 19.08 31.9597 19.08C32.0405 19.1111 32.2054 18.7182 32.2572 18.4886C32.3121 18.1968 32.3121 17.5743 32.1505 17.3758C32.0405 17.2474 31.6041 17.3097 31.6041 17.3097ZM31.8789 28.4102C33.0202 28.5775 33.2109 27.7565 33.3467 27.169C33.5375 26.4492 33.6733 24.6789 33.6183 24.6477C33.5924 24.6477 33.5375 24.9746 33.4276 25.138C33.3209 25.3325 32.9652 25.7255 32.9393 25.7605C32.9393 25.7916 32.9393 25.7605 32.9393 25.7916C32.9102 25.8889 31.8789 28.4102 31.8789 28.4102ZM34.0548 28.7409C36.2048 28.1495 36.3956 27.9199 36.4764 27.7565C36.5314 27.6904 36.5314 27.6592 36.5572 27.5269C36.693 26.9394 37.0196 23.8929 36.8579 22.2899C36.7221 20.8153 36.4215 18.8816 35.8783 18.2279C35.5226 17.8038 34.7079 17.6404 34.543 17.8349C34.3813 18.0334 34.8695 19.08 34.8986 19.473C34.8986 19.7025 34.8178 19.7998 34.8178 20.0294C34.8178 20.5196 35.1153 21.2394 35.1153 22.0915C35.1444 23.5 34.7337 26.741 34.4622 27.8227C34.3264 28.2818 34.0548 28.7409 34.0548 28.7409ZM34.543 16.3292C35.4159 16.4615 34.8437 15.411 34.7079 15.446C34.6271 15.446 34.5721 15.839 34.543 16.0024C34.543 16.0996 34.543 16.3292 34.543 16.3292ZM37.0487 31.8185C37.7018 30.6046 37.7826 30.1494 37.7567 30.1494C37.7276 30.1143 37.0487 31.8185 37.0487 31.8185ZM37.3752 19.2745C38.19 23.5972 37.7276 26.3831 37.8085 26.4492C37.8085 26.4492 37.8085 26.4142 37.8376 26.4142C37.8634 26.3169 38.0283 25.9901 38.1092 25.6282C38.2999 24.8773 38.5715 22.8113 38.5974 21.9942C38.5974 21.5662 38.6265 21.3717 38.5165 21.0449C38.3807 20.5857 37.9443 19.8309 37.7276 19.5702C37.5919 19.4068 37.3752 19.2745 37.3752 19.2745Z" fill="white"/>
</mask>
<g mask="url(#mask1_40_10549)">
<path d="M8.9397 -0.992706H41.1031V43.9111H8.9397V-0.992706Z" fill="#FFF96B"/>
</g>
</g>
<mask id="mask2_40_10549" style="mask-type:luminance" maskUnits="userSpaceOnUse" x="39" y="13" width="8" height="8">
<path d="M39.0144 13.9519H46.4248V20.5041H39.0144V13.9519Z" fill="white"/>
</mask>
<g mask="url(#mask2_40_10549)">
<mask id="mask3_40_10549" style="mask-type:luminance" maskUnits="userSpaceOnUse" x="39" y="13" width="8" height="8">
<path d="M39.4412 20.4535C39.0079 20.3562 38.9788 20.1928 39.0629 20.0294C39.4153 19.3407 42.8974 17.6404 44.1486 16.4615C45.0475 15.6094 45.8105 13.9403 46.1629 13.9714C46.2987 13.9714 46.4345 14.2982 46.4086 14.3955C46.3828 14.4616 46.137 14.5278 46.0821 14.4966C46.0012 14.4305 45.9721 14.1348 46.0012 14.0686C46.0562 14.0025 46.3537 14.0025 46.4086 14.1037C46.4636 14.2671 46.1079 14.8896 45.8363 15.3137C45.4839 15.839 45.0475 16.2942 44.3944 16.8856C43.2531 17.9011 39.7677 20.718 39.2504 20.4885C39.1146 20.4223 39.0629 20.0605 39.1146 19.9982C39.1696 19.9321 39.4961 19.9632 39.5511 20.0294C39.577 20.1266 39.4412 20.4535 39.4412 20.4535Z" fill="white"/>
</mask>
<g mask="url(#mask3_40_10549)">
<path d="M37.9734 12.6601H47.4983V21.8308H37.9734V12.6601Z" fill="black"/>
</g>
</g>
<mask id="mask4_40_10549" style="mask-type:luminance" maskUnits="userSpaceOnUse" x="45" y="7" width="6" height="11">
<path d="M45.332 7.89395H50.5859V17.7416H45.332V7.89395Z" fill="white"/>
</mask>
<g mask="url(#mask4_40_10549)">
<mask id="mask5_40_10549" style="mask-type:luminance" maskUnits="userSpaceOnUse" x="45" y="7" width="6" height="11">
<path d="M46.4895 14.9869C45.3191 14.7884 45.3191 14.66 45.3482 14.3643C45.3482 13.38 46.4345 8.01063 46.8161 7.91336C46.8969 7.88224 47.0327 8.01063 47.0876 8.24019C47.3075 9.02614 46.5994 14.2982 46.1371 14.8546C46.0013 15.018 45.7297 14.9869 45.7006 14.9207C45.5907 14.66 49.2668 10.5319 49.6192 10.6642C49.7291 10.6953 49.7841 10.9249 49.7291 11.0883C49.6451 11.3528 48.9402 11.4812 48.5587 11.9404C48.0414 12.594 47.4983 14.3955 47.1167 14.9518C46.9519 15.2164 46.7902 15.411 46.6544 15.446C46.5445 15.446 46.3537 15.3448 46.3279 15.2475C46.3279 15.1503 46.3537 14.9518 46.4895 14.8896C46.926 14.6912 50.5439 16.263 50.573 16.7222C50.5988 16.8856 50.0557 16.9828 49.9457 17.1813C49.8649 17.3447 49.9199 17.6715 49.8908 17.7026C49.8358 17.7026 49.6192 17.2785 49.6451 17.2124C49.6742 17.1463 50.0007 17.2474 50.0266 17.3447C50.0266 17.4108 49.7841 17.7026 49.7291 17.7026C49.6451 17.6715 49.5642 17.3097 49.6192 17.2474C49.6742 17.1813 49.9457 17.1813 49.9716 17.2474C50.0266 17.3097 49.9457 17.6404 49.8908 17.7026C49.8358 17.7377 49.6742 17.7026 49.6742 17.6715C49.6192 17.5742 50.1365 17.2785 50.0815 17.049C49.9716 16.5237 46.5994 16.1969 46.3279 15.2475C46.0821 14.3332 47.6858 12.3683 48.2322 11.5824C48.5587 11.1233 48.8303 10.7965 49.1019 10.6642C49.2927 10.598 49.5384 10.5669 49.6192 10.6642C49.7291 10.7303 49.7841 10.8937 49.7291 11.0883C49.5933 11.7458 47.3334 13.9714 46.6544 14.5939C46.3537 14.8546 46.1371 15.0841 45.9722 15.0841C45.8655 15.0841 45.7556 15.0841 45.7006 14.9207C45.4549 14.3332 46.0563 9.67979 46.4345 8.63316C46.5703 8.24019 46.7902 7.91336 46.926 7.91336C46.9809 7.91336 47.0618 8.04565 47.0876 8.24019C47.1717 8.99501 45.3482 13.8741 45.7297 14.4616C45.8655 14.6912 46.4636 14.3332 46.5445 14.4616C46.6253 14.5589 46.4895 14.9869 46.4895 14.9869Z" fill="white"/>
</mask>
<g mask="url(#mask5_40_10549)">
<path d="M44.2587 6.60214H51.6884V19.0333H44.2587V6.60214Z" fill="black"/>
</g>
</g>
<path d="M10.8925 21.469L4.43912 14.022" stroke="black" stroke-width="0.82774"/>
<path d="M4.64922 15.5471L4.43907 14.0219L5.71616 14.2087" stroke="black" stroke-width="0.82774" stroke-linecap="round" stroke-linejoin="round"/>
<mask id="mask6_40_10549" style="mask-type:luminance" maskUnits="userSpaceOnUse" x="0" y="7" width="6" height="10">
<path d="M0 7.43872H5.25064V16.3409H0V7.43872Z" fill="white"/>
</mask>
<g mask="url(#mask6_40_10549)">
<mask id="mask7_40_10549" style="mask-type:luminance" maskUnits="userSpaceOnUse" x="-1" y="7" width="7" height="10">
<path d="M4.31297 14.594C2.29871 12.3684 0.7759 10.1079 0.856729 9.5826C0.885828 9.41919 1.07335 9.2869 1.26411 9.32192C1.86547 9.45031 4.31297 14.4305 4.55869 14.2671C4.74944 14.1348 3.71483 11.6136 3.52408 10.4036C3.38829 9.35304 3.2525 7.58661 3.41415 7.45433C3.46912 7.4232 3.63401 7.5516 3.68574 7.68388C3.79566 8.01071 3.38829 9.12348 3.35919 9.74601C3.33332 10.3024 3.41415 10.6954 3.52408 11.3179C3.71483 12.2673 4.52959 14.201 4.47463 14.8235C4.47463 15.0842 4.36793 15.2165 4.25801 15.3449C4.09635 15.4772 3.93146 15.4772 3.63401 15.5433C2.92595 15.7067 0.14867 16.3604 0.0128769 16.0997C-0.0420865 16.0024 0.06784 15.839 0.203633 15.7067C0.530181 15.411 2.02713 15.3799 2.73519 15.0181C3.30746 14.7574 3.68574 13.9714 4.14808 13.9403C4.52959 13.9403 5.26675 14.5278 5.23765 14.6251C5.23765 14.6912 4.85614 14.7263 4.83027 14.6601C4.80117 14.594 5.04689 14.2671 5.07599 14.2671C5.10186 14.2671 5.12772 14.7574 5.04689 14.7885C4.9402 14.8546 4.69448 14.3644 4.3938 14.3644C3.85063 14.3644 2.70609 15.6095 1.9463 15.9013C1.31907 16.1659 0.530181 16.3954 0.232731 16.2942C0.0937054 16.232 -0.0129884 16.0997 0.0128769 16.0336C0.0678402 15.6756 3.49821 15.7729 3.98642 14.7263C4.47463 13.6757 2.92595 11.0572 2.89685 9.71489C2.87098 8.8628 3.03264 7.88232 3.25249 7.61774C3.35919 7.48934 3.52408 7.4232 3.60491 7.52047C3.93146 7.78115 3.93146 10.4347 4.17718 11.5475C4.36793 12.3995 4.85614 13.1193 4.85614 13.7107C4.88524 14.1037 4.74944 14.5589 4.61365 14.6912C4.50373 14.7574 4.3938 14.7263 4.23214 14.6251C3.65987 14.2671 1.53892 10.8938 1.10245 10.0728C0.966657 9.78103 0.830864 9.55147 0.885828 9.45031C0.911693 9.35304 1.26411 9.32192 1.26411 9.32192L0.856729 9.51646C0.856729 9.51646 1.07335 9.2869 1.23824 9.32192C1.70058 9.48533 2.65436 12.0066 3.30746 12.8898C3.7407 13.4812 4.58455 13.9053 4.61365 14.2321C4.61365 14.3644 4.31297 14.594 4.31297 14.594Z" fill="white"/>
</mask>
<g mask="url(#mask7_40_10549)">
<path d="M-1.07349 6.14313H6.35306V17.5977H-1.07349V6.14313Z" fill="black"/>
</g>
</g>
<mask id="mask8_40_10549" style="mask-type:luminance" maskUnits="userSpaceOnUse" x="8" y="42" width="13" height="12">
<path d="M8.34802 42.351H20.5079V53.6071H8.34802V42.351Z" fill="white"/>
</mask>
<g mask="url(#mask8_40_10549)">
<mask id="mask9_40_10549" style="mask-type:luminance" maskUnits="userSpaceOnUse" x="8" y="42" width="13" height="12">
<path d="M19.8224 43.8995C19.9033 42.3626 20.1781 42.3276 20.2298 42.4287C20.3139 42.526 20.3139 42.7556 20.2298 43.0513C20.0132 43.7711 18.5453 45.4402 17.9989 46.588C17.5657 47.5374 17.4816 48.4206 17.0193 49.3349C16.4503 50.5138 15.0891 52.7083 14.5977 52.9728C14.4619 53.0701 14.3002 53.039 14.2453 52.9728C14.1903 52.9067 14.1903 52.7433 14.2453 52.5799C14.4069 51.9885 15.7681 50.6811 16.6119 49.4011C17.7015 47.7319 19.47 43.2769 20.0682 43.1485C20.2589 43.0824 20.4497 43.2769 20.4497 43.4442C20.5046 43.8683 19.0077 44.915 18.3255 46.0277C17.4558 47.4362 16.3145 50.7123 15.878 51.3659C15.7422 51.5293 15.6872 51.6616 15.5773 51.6616C15.4965 51.6616 15.3607 51.5644 15.3348 51.3659C15.2249 50.6811 17.4558 46.5219 18.3805 44.95C18.9786 43.8995 19.9324 42.491 20.0682 42.5571C20.1781 42.6233 20.0682 43.1797 19.9324 43.6076C19.7157 44.3274 19.0885 45.2418 18.4354 46.3585C17.3458 48.156 15.3607 52.9378 13.8379 53.3308C12.8033 53.5954 11.0347 51.8601 10.7341 51.4009C10.6532 51.2687 10.5983 51.1364 10.6532 51.0741C10.7631 50.8757 11.552 50.9068 12.1502 51.0391C13.1007 51.2025 15.5223 52.0235 15.7972 52.5137C15.878 52.6771 15.878 52.9067 15.7681 53.004C15.4706 53.3308 13.7021 53.0701 12.6125 52.9728C11.3613 52.8717 8.91055 52.7744 8.66807 52.3153C8.584 52.1519 8.63897 51.8912 8.77476 51.7939C9.10131 51.5293 10.6791 52.0857 11.5779 52.3153C12.4476 52.5137 13.8928 52.646 14.1095 53.004C14.1903 53.1674 14.1644 53.4319 14.0545 53.5292C13.6471 53.821 9.7835 52.5137 9.56365 52.0235C9.48282 51.8601 9.53779 51.6928 9.67358 51.5644C10.026 51.2687 12.0402 51.4671 12.7742 51.5293C13.1848 51.5293 13.5922 51.4671 13.7021 51.6305C13.7829 51.7589 13.7538 51.9885 13.618 52.1207C13.2915 52.5137 11.1705 52.6771 10.2167 52.7083C9.53779 52.7433 8.63897 52.8094 8.47731 52.5448C8.39325 52.4476 8.44821 52.1869 8.55814 52.0546C8.80386 51.7589 10.026 51.7589 10.7631 51.6928C11.468 51.6616 12.4767 51.6305 12.8841 51.7278C13.049 51.7939 13.1848 51.825 13.2106 51.9223C13.2656 51.9885 13.2397 52.1869 13.1298 52.2842C12.7224 52.611 9.21124 52.4164 9.04635 52.0857C8.99462 51.9885 9.07544 51.825 9.18214 51.7278C9.53779 51.4671 11.5779 51.1364 11.9336 51.4321C12.0693 51.5293 12.1211 51.8601 12.0402 51.9573C11.9336 52.0857 10.9798 51.8912 10.7631 51.7278C10.6532 51.6305 10.5724 51.5293 10.5983 51.4009C10.6791 51.0391 12.2051 49.8291 12.5026 49.9263C12.6125 49.9575 12.6933 50.2532 12.6675 50.3193C12.6384 50.3854 12.286 50.3504 12.2601 50.2882C12.231 50.222 12.4767 49.9263 12.5317 49.9263C12.5866 49.9575 12.6675 50.2532 12.5866 50.4166C12.4218 50.8095 11.1156 51.7939 10.8149 51.7278C10.7082 51.7278 10.5724 51.4671 10.5983 51.4009C10.6791 51.2375 11.8495 51.2375 12.0402 51.4321C12.1211 51.5293 12.1502 51.825 12.0402 51.9573C11.7687 52.2842 9.15627 52.3153 9.04635 52.0857C8.99462 51.9885 9.10131 51.7939 9.2371 51.7278C9.72854 51.4321 12.6675 51.4009 13.049 51.7939C13.1557 51.9223 13.2106 52.1519 13.1298 52.2842C12.8291 52.7433 8.99462 52.8717 8.53227 52.5799C8.39325 52.5137 8.34152 52.3814 8.36738 52.2842C8.53227 51.8912 13.049 51.3348 13.5922 51.5955C13.7538 51.6616 13.8088 51.825 13.8088 51.9223C13.8088 51.9885 13.7279 52.0857 13.5922 52.1207C13.0749 52.3153 9.61861 52.218 9.50869 51.8912C9.45696 51.825 9.59275 51.6305 9.72854 51.5644C10.2458 51.3659 13.8088 52.4787 14.1095 53.004C14.1903 53.1674 14.1644 53.3969 14.0545 53.5292C13.5922 53.8872 8.88469 52.8405 8.6131 52.2842C8.53227 52.1207 8.6131 51.8912 8.77476 51.7939C9.21124 51.4982 11.4162 52.3814 12.5866 52.4787C13.5922 52.5448 14.7626 52.3814 15.3057 52.4476C15.5514 52.4787 15.7681 52.4476 15.823 52.5799C15.878 52.6771 15.878 52.9378 15.7681 53.004C15.4157 53.2646 13.0199 51.7939 12.0952 51.5644C11.552 51.4321 10.9798 51.6305 10.789 51.4321C10.6791 51.3348 10.5983 51.1364 10.6532 51.0741C10.7082 50.9418 11.1414 51.0391 11.468 51.1714C12.0144 51.4009 13.1557 52.1207 13.5372 52.611C13.7279 52.8405 13.8637 53.2997 13.8379 53.3308C13.8088 53.3658 13.5372 53.1674 13.5372 52.9378C13.4822 51.825 19.6317 42.4599 20.0682 42.5571C20.149 42.5921 20.1781 42.7556 20.149 42.9501C20.0132 43.9345 16.8027 49.8291 15.9879 50.8095C15.7422 51.0741 15.4706 51.2998 15.4157 51.2375C15.2508 51.0391 17.1034 47.1444 17.9989 45.6698C18.707 44.557 19.8515 43.0162 20.2298 43.0513C20.3397 43.0513 20.4497 43.2147 20.4755 43.3781C20.5046 43.736 20.0423 44.4247 19.6058 45.2107C18.8169 46.7164 16.7768 50.187 15.823 51.5293C15.3348 52.218 14.8693 53.004 14.5718 53.004C14.4069 53.004 14.2194 52.8405 14.2194 52.611C14.1644 52.0235 16.2304 49.9925 16.8285 48.7785C17.265 47.8953 17.265 47.1755 17.6465 46.2923C18.1897 45.1134 19.3342 42.8217 19.8224 42.4599C19.9873 42.3626 20.149 42.3276 20.2298 42.4287C20.3397 42.526 20.3397 42.884 20.3397 43.1485C20.3397 43.4442 20.3688 44.0006 20.2298 44.0979C20.149 44.164 19.8224 43.8995 19.8224 43.8995Z" fill="white"/>
</mask>
<g mask="url(#mask9_40_10549)">
<path d="M7.27783 41.1175H21.5748V54.8365H7.27783V41.1175Z" fill="black"/>
</g>
</g>
<mask id="mask10_40_10549" style="mask-type:luminance" maskUnits="userSpaceOnUse" x="31" y="40" width="9" height="13">
<path d="M31.4392 40.032H39.9747V52.6382H31.4392V40.032Z" fill="white"/>
</mask>
<g mask="url(#mask10_40_10549)">
<mask id="mask11_40_10549" style="mask-type:luminance" maskUnits="userSpaceOnUse" x="31" y="40" width="9" height="13">
<path d="M31.9856 40.1021C32.3962 45.3741 33.0752 46.6192 33.2659 47.5685C33.4017 48.2222 33.4276 48.7474 33.4276 49.2727C33.4276 49.7279 33.5116 50.3855 33.3468 50.5489C33.2659 50.6812 33.0493 50.7123 32.9103 50.58C32.6387 50.3505 32.5579 49.1404 32.4221 48.0938C32.1505 46.2262 31.4424 41.0864 31.8498 40.4639C31.9597 40.3005 32.1764 40.2343 32.2863 40.3627C32.6387 40.6935 32.2863 43.3781 32.532 45.1134C32.8585 47.3078 34.598 51.6305 34.3264 52.3503C34.2714 52.5137 34.1098 52.646 33.974 52.5799C33.3759 52.218 31.7431 40.7907 32.1214 40.4289C32.1764 40.3627 32.3412 40.4289 32.4221 40.5612C32.6937 41.0514 32.4479 43.705 32.6387 45.3741C32.8585 47.2417 32.8295 50.4827 33.7283 51.2376C34.4622 51.8601 35.9882 51.0741 36.9647 50.6812C37.8926 50.3505 39.1697 49.0431 39.4962 49.1715C39.6061 49.2066 39.687 49.4011 39.6611 49.5023C39.5253 49.8291 37.4011 49.7279 36.3956 50.0586C35.4709 50.3855 34.1906 51.4671 33.8091 51.3348C33.7024 51.2998 33.5634 51.1364 33.6183 51.0391C33.7283 50.6462 38.3258 49.6307 38.6524 49.9575C38.7073 50.0586 38.7073 50.2221 38.5974 50.3505C38.3258 50.8757 35.4709 52.6772 35.0345 52.5137C34.8987 52.4476 34.8178 52.1869 34.8696 52.0235C35.0603 51.4982 37.9993 49.8952 38.4907 49.9925C38.6524 50.0236 38.7881 50.187 38.7623 50.3505C38.7073 50.7434 36.04 52.0235 35.416 52.1519C35.1961 52.1869 35.0086 52.218 34.9536 52.0858C34.8437 51.8601 35.7134 50.0586 35.9591 50.0236C36.0949 49.9925 36.3116 50.2532 36.2857 50.3505C36.2857 50.4166 36.04 50.5139 35.9882 50.4516C35.9333 50.4166 35.9042 50.0586 35.9591 50.0236C36.0141 49.9925 36.2857 50.1559 36.3116 50.3193C36.3407 50.58 35.1703 51.5644 35.2511 51.6617C35.361 51.8251 37.5919 50.2882 38.1642 50.0898C38.3808 49.9925 38.5457 49.9575 38.6524 50.0236C38.7364 50.0586 38.8172 50.2221 38.7623 50.3505C38.6265 50.8096 35.3869 52.7083 35.0086 52.5137C34.8696 52.4476 34.8178 52.218 34.8696 52.0235C35.0894 51.4671 38.3258 49.6968 38.5974 49.9264C38.6815 49.9925 38.6815 50.2532 38.5715 50.3855C38.2191 50.8446 35.7425 51.2687 34.7887 51.366C34.1906 51.401 33.3468 51.4321 33.3209 51.2687C33.2659 51.008 35.361 49.9575 36.3116 49.5645C37.1037 49.2377 37.9734 49.0431 38.6265 49.0431C39.1438 49.0081 39.9036 49.0431 39.9585 49.2377C40.0135 49.5645 38.1092 50.7784 37.0746 51.2025C36.04 51.6928 34.2714 52.218 33.6733 51.9574C33.4276 51.8251 33.3759 51.6305 33.2368 51.2687C32.8585 50.3193 32.4479 47.2067 32.2313 45.4403C32.0697 44.0007 31.8789 42.3937 31.9306 41.4794C31.9597 41.0203 31.9856 40.4639 32.1214 40.4289C32.2313 40.3978 32.477 40.8569 32.6387 41.2498C32.9652 42.0669 33.1301 43.6388 33.3759 45.0784C33.6474 46.8137 34.1098 49.6968 34.2456 51.008C34.3264 51.6305 34.4622 52.1869 34.3264 52.4165C34.2714 52.5449 34.1098 52.646 33.974 52.5799C33.4567 52.2531 32.4479 47.4051 32.1214 45.2107C31.8498 43.4754 31.5524 40.923 31.8498 40.4639C31.9597 40.3005 32.1764 40.2343 32.2863 40.3627C32.6937 40.7246 32.3962 44.3586 32.6128 46.1289C32.8036 47.7008 33.6474 50.0898 33.3759 50.4827C33.2918 50.615 32.9943 50.615 32.8585 50.4516C32.6128 50.1559 32.9943 48.6502 32.8585 47.7008C32.6678 46.6192 31.9597 45.4714 31.7431 44.2613C31.5233 42.9501 31.2775 40.495 31.5782 40.1371C31.659 40.0048 31.9856 40.1021 31.9856 40.1021Z" fill="white"/>
</mask>
<g mask="url(#mask11_40_10549)">
<path d="M30.4886 38.7908H41.0481V53.8794H30.4886V38.7908Z" fill="black"/>
</g>
</g>
<mask id="mask12_40_10549" style="mask-type:luminance" maskUnits="userSpaceOnUse" x="15" y="21" width="20" height="12">
<path d="M15.8263 21.8308H34.3264V32.9585H15.8263V21.8308Z" fill="white"/>
</mask>
<g mask="url(#mask12_40_10549)">
<path d="M25.0763 24.924C21.9886 24.924 19.2599 23.9513 17.5851 22.4572C16.8803 21.8308 15.8553 22.4378 15.8489 23.4922V23.5233C15.8489 28.737 19.9808 32.9624 25.0763 32.9624C30.1685 32.9624 34.2972 28.737 34.2972 23.5233V23.4922C34.294 22.4378 33.2691 21.8308 32.5643 22.4572C30.8895 23.9513 28.1607 24.924 25.0763 24.924Z" fill="black"/>
</g>
<path d="M28.1284 29.0872C26.722 29.235 26.0204 30.5579 24.5332 30.4762C23.0492 30.3984 29.5349 28.9432 25.2218 29.1028C22.1762 29.2117 20.4917 30.1455 19.7643 30.6863C21.2645 31.7718 23.0944 32.4099 25.0731 32.4099C27.5529 32.4099 29.8 31.41 31.4586 29.7836C30.5533 29.4607 29.0596 28.9938 28.1284 29.0872Z" fill="white"/>
<mask id="mask13_40_10549" style="mask-type:luminance" maskUnits="userSpaceOnUse" x="13" y="7" width="11" height="13">
<path d="M13.1752 7.87448H23.9351V19.5975H13.1752V7.87448Z" fill="white"/>
</mask>
<g mask="url(#mask13_40_10549)">
<path fill-rule="evenodd" clip-rule="evenodd" d="M21.9564 18.7415C22.9845 17.6365 23.6311 16.0373 23.6311 14.2631C23.6311 10.9326 21.3582 8.22845 18.5583 8.22845C15.7584 8.22845 13.4823 10.9326 13.4823 14.2631C13.4823 16.3175 14.3488 18.1306 15.6679 19.22C16.3436 18.1929 17.5852 17.5042 19.0013 17.5042C20.1846 17.5042 21.2451 17.9827 21.9564 18.7415Z" fill="white" stroke="black" stroke-width="0.958057" stroke-miterlimit="1.5" stroke-linecap="round" stroke-linejoin="round"/>
</g>
<mask id="mask14_40_10549" style="mask-type:luminance" maskUnits="userSpaceOnUse" x="24" y="7" width="12" height="13">
<path d="M24.7627 7.87448H35.5226V19.5975H24.7627V7.87448Z" fill="white"/>
</mask>
<g mask="url(#mask14_40_10549)">
<path fill-rule="evenodd" clip-rule="evenodd" d="M33.8026 18.7415C34.8308 17.6365 35.4774 16.0374 35.4774 14.2632C35.4774 10.9326 33.2045 8.22852 30.4046 8.22852C27.6047 8.22852 25.3318 10.9326 25.3318 14.2632C25.3318 16.3175 26.195 18.1306 27.5142 19.2201C28.1899 18.1929 29.4314 17.5042 30.8475 17.5042C32.0309 17.5042 33.0914 17.9828 33.8026 18.7415Z" fill="white"/>
</g>
<mask id="mask15_40_10549" style="mask-type:luminance" maskUnits="userSpaceOnUse" x="24" y="7" width="12" height="13">
<path d="M24.7627 7.87448H35.7845V19.5975H24.7627V7.87448Z" fill="white"/>
</mask>
<g mask="url(#mask15_40_10549)">
<path d="M33.8025 18.7415C34.8306 17.6365 35.4773 16.0373 35.4773 14.2631C35.4773 10.9326 33.2044 8.22845 30.4045 8.22845C27.6046 8.22845 25.3317 10.9326 25.3317 14.2631C25.3317 16.3175 26.1949 18.1306 27.514 19.22C28.1898 18.1929 29.4313 17.5042 30.8474 17.5042C32.0307 17.5042 33.0912 17.9827 33.8025 18.7415Z" stroke="black" stroke-width="0.958057" stroke-miterlimit="1.5" stroke-linecap="round" stroke-linejoin="round"/>
</g>
<path fill-rule="evenodd" clip-rule="evenodd" d="M21.7204 10.633C21.2095 10.1778 20.5823 9.89768 19.9001 9.87045C18.1154 9.79263 16.612 11.4579 16.5473 13.5862C16.4827 15.7106 17.8794 17.5003 19.6673 17.5781C21.452 17.656 22.9522 15.9907 23.0201 13.8624C23.0492 12.8703 22.7582 11.9481 22.2603 11.24C22.2991 11.3645 22.3185 11.5007 22.3153 11.6408C22.2991 12.201 21.9014 12.6407 21.4294 12.6213C20.9606 12.6018 20.592 12.1271 20.6082 11.5668C20.6243 11.0066 21.022 10.5669 21.494 10.5864C21.5716 10.5902 21.646 10.6058 21.7204 10.633Z" fill="black"/>
<path fill-rule="evenodd" clip-rule="evenodd" d="M31.3649 10.7654C30.8767 10.279 30.2656 9.95609 29.5834 9.88216C27.8052 9.68762 26.2274 11.2517 26.0657 13.3722C25.9041 15.4927 27.2135 17.372 28.995 17.5665C30.7732 17.7611 32.351 16.1969 32.5126 14.0765C32.5902 13.0843 32.3445 12.1466 31.8757 11.4074C31.9113 11.5319 31.9242 11.668 31.9145 11.8081C31.8692 12.3684 31.4554 12.7808 30.9866 12.7302C30.5146 12.6797 30.1686 12.1816 30.2106 11.6252C30.2559 11.065 30.6697 10.6525 31.1418 10.7031C31.2194 10.7109 31.2937 10.7343 31.3649 10.7654Z" fill="black"/>
</svg>
