<svg width="47" height="58" viewBox="0 0 47 58" fill="none" xmlns="http://www.w3.org/2000/svg">
<mask id="mask0_40_11335" style="mask-type:luminance" maskUnits="userSpaceOnUse" x="7" y="43" width="9" height="15">
<path d="M7.83032 43.8105H15.5285V57.2689H7.83032V43.8105Z" fill="white"/>
</mask>
<g mask="url(#mask0_40_11335)">
<mask id="mask1_40_11335" style="mask-type:luminance" maskUnits="userSpaceOnUse" x="7" y="43" width="9" height="15">
<path d="M14.7008 44.0596C15.6287 44.1452 15.5608 45.2579 15.4574 46.3746C15.2505 48.6507 13.4302 55.7981 12.984 56.8331C12.8806 57.0393 12.9161 57.121 12.7448 57.1638C12.2307 57.4517 8.76153 56.9576 8.14076 56.5452C7.93707 56.3779 7.83361 56.1717 7.86594 56.0044C7.86594 55.8837 8.00497 55.7164 8.24422 55.6347C8.89732 55.304 12.1596 55.2223 12.7448 55.6736C12.9517 55.8409 13.0875 56.2145 12.984 56.3351C12.7803 56.7514 9.2756 56.6269 8.89732 56.1289C8.76153 55.9227 8.82942 55.4285 8.89732 55.3857C9.00078 55.304 9.44695 55.6736 9.41139 55.7592C9.41139 55.8837 8.89732 56.1289 8.82942 56.0472C8.76153 55.9655 8.82942 55.3857 8.93288 55.3429C9.03634 55.304 9.44695 55.7592 9.41139 55.8837C9.37906 55.9655 8.89732 56.1717 8.82942 56.0472C8.76153 55.9655 8.82942 55.5102 9.00078 55.3429C9.34349 55.0161 10.7855 55.2612 11.5097 55.3429C12.0561 55.4285 12.7803 55.4674 12.9161 55.7592C12.984 55.9655 12.9161 56.3779 12.7092 56.5841C12.1596 57.0393 8.89732 56.9148 8.24422 56.5452C8.00497 56.4207 7.83361 56.1717 7.86594 56.0044C7.86594 55.8837 8.04053 55.7164 8.24422 55.6347C8.65806 55.4285 9.78967 55.5102 10.5107 55.6736C11.3028 55.8409 12.8127 56.5452 12.8127 56.5841C12.8127 56.5841 12.4344 56.6269 12.3665 56.4596C11.9882 55.7164 14.3581 49.1877 14.7008 46.8726C14.8754 45.5887 14.565 44.0596 14.8398 43.8534C14.9756 43.7289 15.3539 43.9779 15.3895 44.1024C15.4251 44.2269 15.0791 44.6393 14.9433 44.6393C14.8398 44.5965 14.7008 44.0596 14.7008 44.0596Z" fill="white"/>
</mask>
<g mask="url(#mask1_40_11335)">
<path d="M6.49182 42.1998H16.867V58.8758H6.49182V42.1998Z" fill="#1E1E1E"/>
</g>
</g>
<mask id="mask2_40_11335" style="mask-type:luminance" maskUnits="userSpaceOnUse" x="43" y="14" width="2" height="2">
<path d="M43.9899 14.824H44.6203V15.3998H43.9899V14.824Z" fill="white"/>
</mask>
<g mask="url(#mask2_40_11335)">
<mask id="mask3_40_11335" style="mask-type:luminance" maskUnits="userSpaceOnUse" x="43" y="14" width="2" height="2">
<path d="M44.0674 15.003C44.5847 14.9213 44.5491 15.3337 44.4813 15.3765C44.3778 15.4582 44.0674 15.2092 44.0674 15.1275C44.0674 15.0458 44.4134 14.7968 44.4813 14.8396C44.5847 14.8785 44.6526 15.2909 44.5847 15.3765C44.5168 15.4582 43.9995 15.2909 43.9995 15.2909" fill="white"/>
</mask>
<g mask="url(#mask3_40_11335)">
<path d="M42.6254 13.186H45.9555V17.069H42.6254V13.186Z" fill="white"/>
</g>
</g>
<mask id="mask4_40_11335" style="mask-type:luminance" maskUnits="userSpaceOnUse" x="13" y="16" width="3" height="3">
<path d="M13.9377 16.4815H15.8259V18.7343H13.9377V16.4815Z" fill="white"/>
</mask>
<g mask="url(#mask4_40_11335)">
<mask id="mask5_40_11335" style="mask-type:luminance" maskUnits="userSpaceOnUse" x="13" y="16" width="3" height="3">
<path d="M14.8753 18.7226C13.9797 17.9795 13.9474 17.4815 14.0153 17.1935C14.1187 16.9056 14.4259 16.5749 14.7007 16.5321C14.9432 16.4504 15.3215 16.6138 15.5252 16.8239C15.6998 17.0301 15.8355 17.4815 15.8 17.8122C15.7677 18.104 15.4928 18.5164 15.2859 18.6409C15.0467 18.7654 14.6328 18.7226 14.3936 18.5592C14.1866 18.3919 13.9797 17.9795 13.9474 17.6916C13.9474 17.4425 13.9797 17.1935 14.1187 16.9873C14.2545 16.7811 14.6328 16.4504 14.8753 16.4932C15.1825 16.5321 15.7321 17.1118 15.8 17.4815C15.8711 17.7733 15.6998 18.2285 15.5252 18.4347C15.3894 18.6409 14.9076 18.7226 14.9076 18.7226" fill="white"/>
</mask>
<g mask="url(#mask5_40_11335)">
<path d="M12.5732 14.8396H17.174V20.3762H12.5732V14.8396Z" fill="white"/>
</g>
</g>
<mask id="mask6_40_11335" style="mask-type:luminance" maskUnits="userSpaceOnUse" x="1" y="4" width="39" height="41">
<path d="M1.20886 4.71957H39.1758V44.0946H1.20886V4.71957Z" fill="white"/>
</mask>
<g mask="url(#mask6_40_11335)">
<mask id="mask7_40_11335" style="mask-type:luminance" maskUnits="userSpaceOnUse" x="1" y="4" width="39" height="41">
<path d="M8.38325 12.4C8.41558 11.8631 9.37906 12.0265 9.37906 12.151C9.37906 12.2327 8.6904 12.6062 8.38325 12.6062C8.17633 12.6062 7.93708 12.5245 7.76572 12.3572C7.62669 12.2327 7.4909 11.9448 7.45534 11.6958C7.41977 11.4079 7.45534 11.0771 7.69459 10.7464C8.34769 9.87876 11.7134 7.97616 12.8127 7.85165C13.33 7.76994 13.7406 7.89445 13.9798 8.14346C14.2223 8.38858 14.3258 8.92551 14.3258 9.25623C14.2902 9.54804 14.1544 9.87876 13.9798 10.0422C13.8085 10.2484 13.2944 10.4157 13.2588 10.3729C13.2588 10.334 14.1868 9.58695 14.2547 9.67255C14.3258 9.75426 13.844 10.6647 13.5692 11.0771C13.2588 11.4896 12.9161 12.0265 12.5055 12.1082C11.9882 12.2327 10.8566 11.8631 10.5462 11.3261C10.2714 10.7892 10.4104 9.50524 10.6853 8.84381C10.9601 8.18237 11.6099 7.52093 12.2307 7.35752C12.9161 7.10851 14.1544 8.18237 14.7008 7.85165C15.1502 7.56373 15.1502 6.36536 15.4574 5.95293C15.6643 5.66112 15.9036 5.49771 16.146 5.45491C16.4532 5.41211 16.9349 5.57942 17.1742 5.82843C17.3811 6.11635 17.2098 6.90229 17.449 7.06571C17.7594 7.27581 18.4448 6.65328 18.9945 6.61437C19.6476 6.57157 20.5399 6.65328 21.1251 6.94509C21.5713 7.19021 21.8817 8.05786 22.2244 8.01895C22.5348 8.01895 22.6705 7.1513 23.0844 6.85949C23.7019 6.48987 24.9047 6.65328 25.7291 6.32256C26.518 5.99184 27.3069 4.99969 27.9244 4.87518C28.3383 4.79347 28.681 4.87518 29.0237 5.08139C29.3696 5.33041 29.9516 5.86734 29.9872 6.32256C30.0195 6.73499 29.3341 7.76994 29.1983 7.72714C29.0948 7.68824 29.1272 6.32256 29.3696 5.95293C29.6089 5.62222 30.262 5.41211 30.6726 5.53662C31.2222 5.70392 31.9788 6.65328 32.2536 7.39642C32.5284 8.05786 32.564 9.09282 32.4605 9.67255C32.3926 10.0422 32.218 10.334 32.0144 10.5402C31.7395 10.7464 31.2222 10.8709 30.9151 10.7464C30.6047 10.6219 30.123 9.79706 30.123 9.79706C30.123 9.79706 30.6726 10.7036 30.983 10.7464C31.2578 10.7464 31.704 9.96047 31.843 10.0422C31.9788 10.1667 31.8074 11.3651 31.5682 11.7386C31.3613 12.0265 30.983 12.1938 30.6047 12.1938C30.1941 12.2327 29.7124 11.5713 29.1627 11.6569C28.3383 11.7386 26.9286 13.7229 26.2787 13.5984C25.9005 13.5556 25.7614 12.5634 25.4543 12.6062C25.0404 12.6062 24.5264 14.3415 24.0091 14.7967C23.5629 15.1703 23.1523 15.4154 22.635 15.4582C21.9496 15.501 20.6434 14.3415 20.1649 14.6294C19.8545 14.7967 19.9224 15.6216 19.6831 15.9134C19.4762 16.1624 19.2369 16.3686 18.9621 16.3686C18.6517 16.4075 18.1377 16.2013 17.9307 15.9134C17.7238 15.6216 17.6204 14.6722 17.6915 14.6722C17.7238 14.6294 18.5159 16.2013 18.4125 16.3258C18.3446 16.4075 17.8952 15.7072 17.5201 15.6644C16.8994 15.6216 15.7678 16.8239 15.1147 16.7811C14.6329 16.7383 14.1868 15.9134 13.844 15.9951C13.5337 16.0768 13.5337 16.9056 13.1231 17.1935C12.2986 17.7304 8.72597 17.7304 8.6904 17.4814C8.6225 17.318 9.68621 16.4931 9.9287 16.6566C10.2714 16.9056 9.68621 19.4268 9.96103 19.5902C10.2035 19.7147 10.7532 18.6837 11.1993 18.4347C11.7134 18.1856 12.3309 17.8549 12.8482 18.0222C13.3623 18.2284 13.8796 19.6758 14.2902 19.6758C14.6006 19.6758 14.772 18.8043 15.1147 18.6409C15.4574 18.4347 15.9391 18.4347 16.2818 18.5592C16.6601 18.6409 16.9705 19.3451 17.2453 19.2206C17.6915 19.0533 17.795 16.8239 18.309 16.1624C18.7552 15.6644 19.3404 15.4154 19.9224 15.3765C20.611 15.3337 21.3644 16.0379 22.2244 16.2013C23.2202 16.3686 24.5587 16.4503 25.5545 16.1624C26.4824 15.8706 27.3069 15.252 28.0279 14.6722C28.681 14.1353 29.2662 13.0614 29.7802 12.8552C30.0906 12.6879 30.3299 12.6879 30.6047 12.8124C30.8795 12.9369 31.2222 13.3494 31.3257 13.7229C31.4292 14.0536 31.0864 14.5477 31.1188 14.9602C31.1543 15.4154 31.5682 15.7889 31.6684 16.3686C31.843 17.1935 31.9788 18.4736 31.7395 19.5085C31.4647 20.7497 30.6047 22.4033 29.7802 23.2281C29.1272 23.8896 28.3027 24.3448 27.4459 24.4265C26.5859 24.551 25.4543 23.8079 24.5943 23.7262C23.9088 23.6406 23.3592 23.6017 22.7384 23.8079C21.9851 24.0569 21.1251 25.1307 20.472 25.2942C20.0614 25.3798 19.8545 25.1307 19.3727 25.2124C18.5483 25.2942 17.1419 26.1618 16.007 26.4108C14.9078 26.617 13.4658 26.8232 12.6769 26.4925C12.1272 26.2863 11.9559 25.5004 11.5097 25.4615C10.9245 25.337 9.9287 26.0412 9.41139 26.4536C9.00078 26.7026 8.65807 26.9905 8.48671 27.3602C8.31536 27.7765 8.21189 28.2317 8.38325 28.7258C8.65807 29.5935 10.4783 31.8657 11.1993 31.7451C11.8169 31.6206 11.9882 29.8425 12.5734 29.1811C13.1909 28.5624 14.0833 27.9399 14.8399 27.8582C15.6287 27.7765 16.5567 28.6013 17.2453 28.6831C17.795 28.7686 18.17 28.7258 18.6517 28.5624C19.3048 28.3951 20.0937 27.6092 20.7145 27.4458C21.193 27.3213 21.5713 27.3602 22.053 27.5275C22.635 27.7337 23.9412 28.7258 23.9088 28.8076C23.9088 28.8504 22.9098 28.7258 22.8775 28.5196C22.8096 28.1889 24.0802 27.0295 24.6622 26.8232C25.076 26.6598 25.4866 26.7026 25.8649 26.866C26.3466 27.0295 27.2034 27.8154 27.2034 27.8154C27.2034 27.8154 26.2076 27.4458 26.1397 27.0723C26.0718 26.4536 27.5138 24.7183 28.1313 24.2631C28.5096 24.0141 28.8523 23.9713 29.1983 24.0141C29.6089 24.0958 30.123 24.8 30.4689 24.6755C30.8116 24.5938 30.844 23.6834 31.2578 23.5199C31.8074 23.2281 33.0425 23.6406 33.8346 24.0569C34.6235 24.4693 35.5159 25.2942 35.9976 26.0412C36.3759 26.617 36.5828 27.2785 36.6507 27.901C36.7186 28.5196 36.7186 29.1383 36.4793 29.7608C36.1334 30.5857 35.0697 31.5778 34.4522 32.1575C34.006 32.5272 33.6277 32.819 33.1815 32.9435C32.6998 33.0252 32.0467 32.5272 31.6005 32.7373C31.1188 32.9007 30.983 33.6438 30.3978 33.9746C29.402 34.5543 27.1032 34.885 25.6256 34.8033C24.3195 34.7177 22.5348 33.3131 22.0175 33.7255C21.7426 33.9356 22.053 34.7605 21.8461 35.0484C21.5713 35.3791 20.9182 35.5036 20.3362 35.4219C19.5118 35.3402 17.3132 34.0174 17.3132 33.7255C17.3455 33.5621 18.309 33.3559 18.4125 33.5621C18.5838 33.9356 16.2139 37.1572 15.3539 37.8615C14.9078 38.2311 14.565 38.2739 14.1544 38.3167C13.7406 38.3556 13.2265 37.8615 12.9161 38.0677C12.5379 38.3556 12.6057 39.803 12.2307 40.1337C11.9203 40.4216 11.2349 40.3827 10.9245 40.2154C10.6853 40.052 10.5107 39.7213 10.4428 39.4295C10.3749 39.1026 10.4783 38.4412 10.5107 38.4412C10.5107 38.4412 10.6497 39.7213 10.5462 39.7602C10.3749 39.803 9.06868 36.4958 8.82943 35.3402C8.65807 34.5971 8.55461 34.0174 8.65807 33.5193C8.76153 33.0641 9.00078 32.6128 9.2756 32.4455C9.55042 32.282 10.0645 32.282 10.3393 32.4455C10.6141 32.6128 10.9601 33.5193 10.9601 33.5193C10.9601 33.5193 10.2358 32.4883 10.307 32.4066C10.3749 32.321 11.028 33.0641 11.3707 33.1069C11.7134 33.1069 12.0917 32.8579 12.3665 32.57C12.6769 32.282 12.7092 31.5778 13.0552 31.2899C13.3979 31.0409 13.9798 30.8736 14.3937 30.9592C14.7364 30.9981 15.0468 31.4961 15.3895 31.535C15.8001 31.6206 16.2818 31.535 16.6957 31.4144C17.0707 31.2899 17.2776 30.9592 17.8273 30.7919C18.8587 30.4222 21.5389 29.9242 22.6705 29.967C23.2881 30.0059 23.7698 30.5429 24.1481 30.3794C24.4585 30.2121 24.4908 29.4301 24.7656 29.1383C25.1083 28.8504 25.5901 28.6441 26.0718 28.6441C26.7249 28.683 27.7531 29.7997 28.4062 29.8425C28.82 29.8814 29.0593 29.718 29.4375 29.5118C30.0195 29.1383 30.8116 27.8582 31.3936 27.5703C31.7719 27.3602 32.3571 27.6909 32.4929 27.3602C32.7677 26.866 31.9788 23.8468 31.3257 23.5589C30.7437 23.2709 29.6445 24.8389 28.9914 25.049C28.5452 25.1307 28.3027 24.8389 27.7886 24.9634C26.7928 25.1696 24.6977 26.7415 23.3915 27.1151C22.4313 27.403 21.5713 27.4847 20.7468 27.403C19.9579 27.3213 19.2369 26.5353 18.5483 26.7026C17.7594 26.9088 17.2098 28.5624 16.3497 28.9321C15.5253 29.3445 14.2902 28.8932 13.5692 29.0994C13.1231 29.2239 12.8482 29.5935 12.4344 29.6363C11.9559 29.6363 11.2672 29.5118 10.821 29.0994C10.2714 28.5624 9.75734 27.4458 9.55042 26.2863C9.2756 24.7572 9.51485 21.6562 9.82524 20.5007C9.96103 19.9637 10.1356 19.5902 10.4104 19.384C10.6853 19.1778 11.1993 19.135 11.4741 19.3451C11.8169 19.5085 11.8848 20.3762 12.1596 20.7069C12.4344 20.9948 12.7092 21.1193 13.1231 21.2049C13.844 21.3683 15.4574 21.2049 16.146 20.8314C16.5567 20.6252 16.6957 20.0882 17.0028 19.9637C17.2453 19.8392 17.588 19.7964 17.8273 19.9209C18.1021 20.0065 18.3769 20.2517 18.4804 20.5435C18.6194 20.9131 18.4125 21.8663 18.5159 21.9053C18.6517 21.9481 18.8231 20.9131 19.2014 20.4579C19.8545 19.633 21.6392 18.3529 22.6027 18.0611C23.2202 17.8977 23.8054 17.9794 24.2516 18.1856C24.6298 18.3529 24.8335 19.0144 25.1795 18.9288C25.9005 18.8471 27.9244 16.2441 27.96 15.2909C27.9956 14.715 27.3425 14.3843 27.1355 13.8474C26.9286 13.3105 26.6538 12.4817 26.7928 12.0265C26.8963 11.6569 27.3069 11.2833 27.6173 11.2016C27.8565 11.116 28.1992 11.1588 28.4417 11.3261C28.7165 11.5713 29.1272 12.4 28.9914 12.7696C28.8523 13.2249 27.5817 13.2249 27.1032 13.5984C26.7573 13.8863 26.7928 14.3843 26.3466 14.6722C25.5545 15.1703 23.495 14.8785 22.1565 15.2909C20.9182 15.6216 19.6152 16.7811 18.6873 16.8628C18.1021 16.9445 17.6204 16.7383 17.2098 16.532C16.8315 16.3686 16.2139 15.8706 16.2495 15.7889C16.2818 15.6644 17.2453 15.7461 17.2776 15.9134C17.3455 16.0768 16.7636 16.7383 16.4209 16.9056C16.0426 17.069 15.5608 17.069 15.1147 16.8628C14.565 16.6566 13.7761 15.2092 13.4302 15.3337C13.1554 15.3765 13.1909 16.2441 12.9161 16.4931C12.6057 16.7383 12.0238 16.8239 11.6455 16.6994C11.2349 16.5748 10.6853 15.5399 10.5107 15.6216C10.3393 15.7072 10.6853 16.6994 10.4783 16.9873C10.2358 17.2752 9.37906 17.2752 8.93289 17.069C8.48671 16.9445 7.83361 16.2013 7.86595 16.0768C7.90151 15.9523 8.79386 16.0379 8.86499 16.1624C8.89732 16.2441 8.79386 16.3686 8.6904 16.4503C8.48671 16.6566 7.76572 17.0301 7.38744 16.9056C7.07706 16.7811 6.80224 16.3686 6.63088 15.9134C6.42396 15.3337 6.22027 13.8863 6.49186 13.4739C6.69878 13.1432 7.4909 13.0186 7.62669 13.186C7.79805 13.3922 7.62669 14.217 7.38744 14.6722C7.00916 15.2909 5.15333 15.9523 5.1889 16.283C5.1889 16.4931 5.94545 16.3258 6.22027 16.5748C6.49186 16.8239 6.8378 17.2752 6.87014 17.8121C6.9736 18.7654 5.73853 20.8742 5.59951 21.9053C5.53161 22.485 5.77086 22.8157 5.67064 23.3526C5.53161 24.0569 4.67159 25.7105 4.43234 25.6677C4.22542 25.6249 3.98616 24.3448 4.05406 24.302C4.15752 24.2203 4.87852 24.7572 5.01754 25.337C5.32469 26.4536 3.47209 30.0487 3.91827 31.1226C4.22542 31.9085 5.46371 31.6595 6.01335 32.282C6.66645 32.9824 7.21608 34.387 7.41977 35.2585C7.5588 35.8344 7.38744 36.3324 7.4909 36.7876C7.59113 37.2 7.69459 37.6553 8.00497 37.9004C8.55461 38.2311 10.6853 38.1105 10.7176 37.9004C10.7532 37.6125 7.79805 36.9938 6.8378 36.1651C6.01335 35.4647 5.29236 34.5543 5.08544 33.5621C4.87851 32.6517 5.29236 31.2471 5.49605 30.5039C5.63507 30.0487 5.87432 29.3873 6.01335 29.4301C6.11681 29.4301 6.28817 30.8347 6.22027 30.8347C6.18471 30.8736 5.70297 29.967 5.59951 29.5118C5.53161 29.0566 5.49605 28.2706 5.70297 28.0644C5.90989 27.8582 6.9057 28.2317 6.9057 28.2317C6.9057 28.2317 6.08125 28.3134 5.80643 28.0644C5.49605 27.7765 5.15333 27.0295 5.22123 26.4536C5.25679 25.7105 6.2526 24.9634 6.56299 24.1775C6.80224 23.4771 6.69878 22.734 6.94127 22.0298C7.18052 21.2438 7.59113 20.2128 8.00497 19.7147C8.27979 19.3451 8.59017 19.0533 8.89732 18.9716C9.17214 18.9288 9.48252 19.0533 9.68621 19.2206C9.89313 19.4268 10.0322 19.633 10.1356 20.0454C10.4428 21.2438 9.58598 24.9245 9.89313 27.3602C10.2358 29.9242 11.8524 33.4376 12.2307 35.0095C12.4344 35.7527 12.5734 36.0406 12.5734 36.6203C12.5734 37.2389 12.0561 37.9432 12.1951 38.5229C12.3309 39.2661 13.2265 40.3399 13.7761 40.6317C14.1868 40.8379 14.6329 40.4644 15.0468 40.6317C15.4574 40.7523 15.8712 41.6239 16.2139 41.4566C16.7959 41.2076 17.6559 37.488 17.4167 36.7448C17.3132 36.3713 16.867 36.4141 16.728 36.1651C16.5567 35.92 16.4532 35.5464 16.4888 35.2157C16.5567 34.8033 16.9705 34.0991 17.3455 33.9746C17.8273 33.8111 18.6194 34.3481 19.169 34.6788C19.6831 35.0095 20.1293 35.5036 20.5755 36.0017C20.9893 36.4958 21.5389 37.1183 21.7426 37.7798C21.9496 38.3984 21.9851 39.7213 21.8138 39.803C21.6747 39.8847 20.9893 39.0598 21.0216 38.8925C21.0895 38.7291 21.914 38.6863 22.2599 38.8925C22.6026 39.1026 22.9098 39.6785 23.0844 40.1337C23.2202 40.5072 23.3592 41.2504 23.1846 41.4138C23.0133 41.5811 21.8461 41.1259 21.8138 40.7951C21.7426 40.3399 22.9454 39.2661 23.5985 38.8536C24.1125 38.5229 24.7656 38.1922 25.1795 38.3556C25.5545 38.5618 25.9328 39.803 26.0363 39.7602C26.1397 39.7213 25.6935 38.8536 25.8649 38.5229C26.1042 38.0249 27.5817 37.4062 28.1313 37.5697C28.5096 37.6942 28.9235 38.3556 28.9558 38.8108C28.9914 39.2233 28.5775 40.052 28.2704 40.2582C27.96 40.4216 27.4459 40.301 27.2034 40.1337C26.9642 40.0092 26.7928 39.6785 26.6894 39.3478C26.5859 38.9353 26.5536 38.1922 26.6538 37.7798C26.7572 37.449 26.8963 37.1183 27.1355 36.951C27.4103 36.7876 27.9244 36.6631 28.1992 36.8265C28.5452 36.9938 28.6486 37.7798 28.9558 38.1105C29.2662 38.4412 30.0906 38.5618 30.123 38.8108C30.123 39.0598 29.1272 39.7602 29.0237 39.6396C28.8879 39.5151 29.1272 38.4412 29.402 38.0677C29.7124 37.6553 30.2943 37.3245 30.7761 37.2389C31.1899 37.1572 31.6361 37.737 32.0467 37.488C32.7353 37.0755 33.0102 34.5115 33.867 33.3948C34.727 32.1965 36.4082 30.9592 37.2327 30.5039C37.6821 30.2977 37.9892 30.1304 38.2996 30.2549C38.6423 30.3794 39.0885 31.0409 39.1564 31.4533C39.2275 31.8657 38.985 32.4455 38.7458 32.6945C38.471 32.9435 37.9537 33.0252 37.543 32.9435C37.029 32.8579 36.2369 32.4883 35.962 32.033C35.7228 31.7023 35.9297 31.0409 35.7228 30.7102C35.5159 30.4222 35.0374 30.2121 34.6591 30.1304C34.2452 30.0915 33.7635 30.0059 33.3884 30.3366C32.7677 30.8736 32.3926 33.3559 31.8753 34.1419C31.6005 34.5543 31.4971 34.636 31.0864 34.9278C30.0906 35.7099 26.9997 37.7798 25.6256 38.0249C24.8335 38.1922 24.0802 38.1922 23.634 37.6942C23.1167 37.1183 22.9454 35.134 23.0844 34.2664C23.1846 33.7255 23.495 33.1886 23.8054 32.9824C24.0446 32.8579 24.3874 32.8579 24.6298 32.9824C24.9047 33.1497 25.2797 33.5193 25.3153 33.9356C25.3832 34.4298 25.0049 35.3791 24.6622 35.8344C24.2839 36.2896 23.5985 36.6631 23.0844 36.6631C22.635 36.6631 22.1888 36.1262 21.7103 36.0406C21.2286 35.92 20.7468 35.8772 20.1972 36.0834C19.5118 36.3324 18.7552 37.0755 18.0342 37.8187C17.2098 38.6863 16.4532 40.3399 15.6287 41.1259C15.0112 41.7445 14.1868 42.3242 13.6727 42.4487C13.3623 42.4915 13.0875 42.4487 12.8806 42.2853C12.6413 42.1608 12.4344 41.8301 12.3665 41.5383C12.263 41.2504 12.2986 40.8769 12.3665 40.5889C12.47 40.301 12.6413 40.052 12.9161 39.8847C13.3623 39.5968 14.1868 39.6785 14.8399 39.4295C15.6643 39.1026 16.7959 37.8615 17.4846 37.9004C17.9307 37.9004 18.4125 38.2739 18.5838 38.6046C18.7196 38.8925 18.6873 39.4723 18.5159 39.7602C18.3769 40.052 17.9663 40.3399 17.6915 40.3827C17.4167 40.3827 16.9705 40.1337 16.8315 39.8847C16.6601 39.5968 16.5567 39.0598 16.6601 38.7291C16.7636 38.3984 17.1063 38.0249 17.3811 37.9432C17.6559 37.8187 18.1021 37.9432 18.309 38.1922C18.5159 38.3984 18.6873 38.9353 18.6517 39.2661C18.6194 39.5968 18.4125 39.8847 18.1021 40.2154C17.6204 40.7523 16.5243 41.4566 15.6643 41.8301C14.772 42.1608 13.3979 42.5304 12.8806 42.2853C12.5734 42.1608 12.4344 41.869 12.3665 41.5383C12.263 41.2076 12.2986 40.6706 12.5055 40.301C12.7803 39.803 13.5692 39.7213 14.1189 39.1415C14.9756 38.3167 16.007 36.3713 16.867 35.4219C17.5201 34.7605 17.9663 34.2664 18.6873 33.8928C19.5441 33.4804 20.9893 33.0641 21.7782 33.2314C22.3278 33.3948 22.774 34.387 23.0844 34.2664C23.3236 34.2236 23.3236 33.3559 23.5629 33.1497C23.8377 32.9435 24.3195 32.8579 24.6298 32.9824C24.9047 33.1069 25.1795 33.5193 25.3153 33.9356C25.5222 34.4726 25.5901 35.9589 25.3508 36.1651C25.1439 36.2896 24.355 35.8772 24.355 35.6281C24.355 35.0484 28.9558 33.85 30.0551 32.4883C30.8116 31.5778 30.8116 30.1304 31.1899 29.3873C31.4292 28.8504 31.6005 28.5196 31.9432 28.2317C32.3215 27.8582 32.8388 27.5275 33.3884 27.403C34.0739 27.2785 35.0374 27.2785 35.7583 27.6909C36.5472 28.1072 37.6821 29.3873 37.9537 30.1732C38.1606 30.6674 38.0927 31.535 37.9892 31.5778C37.8534 31.6206 37.2003 30.753 37.2327 30.5039C37.3038 30.3366 37.7823 30.1732 38.0248 30.1732C38.2996 30.2121 38.6068 30.3366 38.7781 30.5857C38.985 30.7919 39.1564 31.1226 39.1564 31.4533C39.1564 31.8657 38.985 32.321 38.7102 32.7762C38.1606 33.5621 36.308 34.5115 35.7907 35.2974C35.5159 35.7527 35.6193 36.2079 35.3801 36.5775C35.0697 37.0755 34.3131 37.3634 34.0383 37.8187C33.8346 38.1922 33.9381 38.6863 33.6956 39.0598C33.4563 39.5151 32.8711 40.2154 32.425 40.301C32.0467 40.3399 31.4971 39.4723 31.2222 39.5968C30.9474 39.7602 31.1543 40.8769 30.844 41.1687C30.5012 41.4994 29.5733 41.5383 28.9914 41.2932C28.3383 41.0014 27.5138 39.8847 27.1355 39.2661C26.8607 38.8536 26.6215 38.5229 26.6215 38.1105C26.6538 37.6942 27.0676 36.9938 27.3748 36.8265C27.6173 36.6631 27.96 36.702 28.1992 36.8265C28.4417 36.9082 28.7165 37.1572 28.82 37.488C29.0237 37.986 28.9558 39.3478 28.7165 39.8458C28.5452 40.1337 28.2704 40.301 27.9955 40.3399C27.6852 40.3827 27.2034 40.2154 26.9642 39.9275C26.7572 39.6785 26.6215 39.0598 26.6538 38.6863C26.7249 38.3167 27.0321 37.8615 27.3069 37.6942C27.5494 37.5308 27.8565 37.488 28.1313 37.5697C28.3738 37.6553 28.6486 37.9004 28.7844 38.1494C28.9235 38.4412 28.9914 38.8108 28.9558 39.1415C28.9235 39.4295 28.82 39.7213 28.5452 40.0092C28.0634 40.5889 26.379 41.5811 25.6256 41.7445C25.2118 41.7873 24.8691 41.7445 24.5943 41.5383C24.3195 41.3321 23.8377 40.4644 23.9412 40.3399C24.0446 40.1337 25.3153 40.4216 25.3832 40.7134C25.4543 41.1687 23.1523 43.4837 22.3957 43.3592C21.7426 43.2347 20.8147 41.2932 20.9182 41.0831C20.9893 40.9624 21.9496 41.2932 21.9496 41.3749C21.9496 41.4994 21.0895 41.7873 20.7145 41.6628C20.3006 41.5383 19.7866 40.9624 19.6152 40.4644C19.4406 39.9275 19.9224 39.1843 19.6831 38.6046C19.3048 37.737 17.1419 36.9082 16.728 36.1651C16.5243 35.8344 16.4532 35.5464 16.4888 35.2157C16.5567 34.8422 16.7959 34.3053 17.1063 34.0991C17.4167 33.9356 17.9663 33.9746 18.309 34.1419C18.6517 34.3053 18.9621 34.636 19.169 35.0095C19.3727 35.3791 19.5118 35.8344 19.5118 36.4141C19.5441 37.2 19.2693 38.4412 18.9945 39.4723C18.6873 40.5889 18.309 41.9935 17.7594 42.7795C17.3811 43.3981 16.867 43.935 16.3497 44.0595C15.8712 44.184 15.4251 43.935 14.8754 43.7288C14.1189 43.4837 13.0196 43.153 12.263 42.6121C11.5776 42.1608 10.9245 41.4994 10.5107 40.8379C10.168 40.301 9.9287 39.7213 9.8608 39.0598C9.75734 38.1922 10.3749 37.2817 10.2714 36.0017C10.1356 33.85 8.10843 30.1732 7.76572 27.3213C7.41977 24.7572 7.45534 20.8314 8.00497 19.7147C8.21189 19.2206 8.59017 19.0144 8.89732 18.9716C9.20771 18.9288 9.68621 19.1778 9.89313 19.4657C10.1001 19.6758 10.168 19.9637 10.168 20.3762C10.168 21.45 9.00078 24.9245 8.41558 25.9556C8.14077 26.4536 7.79805 26.9905 7.59113 26.9088C7.38744 26.866 7.11262 25.7922 7.11262 25.7922C7.14495 25.7922 7.96941 26.9905 8.14076 27.901C8.38325 29.2239 7.11262 31.8657 7.69459 33.1497C8.31535 34.5543 11.2349 35.2157 12.1272 35.92C12.5055 36.2079 12.7448 36.3713 12.9517 36.7448C13.1231 37.0755 13.2265 37.5697 13.1909 38.0249C13.1554 38.6046 12.8127 39.5151 12.4344 39.9703C12.1272 40.3827 11.8169 40.5461 11.2672 40.6706C10.2358 40.9196 7.52323 40.8379 6.59532 40.2154C6.04568 39.8458 5.87432 39.1843 5.59951 38.5229C5.25679 37.6553 5.1889 36.2079 4.81062 35.4219C4.50024 34.8033 4.15752 34.3053 3.74691 34.0174C3.36863 33.7255 2.85133 33.7683 2.47628 33.5193C2.13034 33.2742 1.68416 32.9007 1.5128 32.5272C1.34145 32.1575 1.30588 31.8268 1.34145 31.2899C1.34145 30.3366 1.71973 28.2317 2.02687 27.3602C2.2338 26.866 2.61208 26.6598 2.64764 26.2863C2.64764 25.9167 2.13034 25.586 2.13034 25.1307C2.13034 24.4265 3.05825 23.3098 3.19728 22.5278C3.33307 21.987 3.09382 21.5356 3.26517 21.0376C3.50443 20.3373 4.98198 19.5513 4.91408 19.0144C4.84618 18.5592 3.67578 18.4736 3.36863 17.9366C3.05825 17.4425 2.99035 16.532 2.99035 15.9134C3.02592 15.4154 3.09382 15.0458 3.33307 14.5905C3.71135 13.9719 4.84618 13.3494 5.36025 12.6879C5.73853 12.1938 5.77086 11.4468 6.18471 11.2016C6.56299 10.9098 7.21608 10.7892 7.62669 10.9954C8.04054 11.1588 8.41558 11.7775 8.65807 12.3183C8.93289 12.9369 9.13658 13.8046 9.17214 14.5088C9.17214 15.0847 9.10424 15.7461 8.86499 16.1624C8.6225 16.5748 8.04054 16.9873 7.69459 16.9445C7.35187 16.9445 6.9057 16.5748 6.73434 16.2441C6.59532 15.9523 6.59532 15.5399 6.63088 15.252C6.63088 14.9213 6.73434 14.6294 6.9057 14.3843C7.18052 14.0108 7.83361 13.4739 8.27979 13.4311C8.65807 13.3922 9.06868 13.9719 9.48252 13.9291C9.9287 13.8863 10.4783 12.9797 10.8889 13.0186C11.2672 13.0614 11.4741 13.8046 11.9203 13.8863C12.5734 14.0108 13.8796 12.7696 14.4971 12.9797C14.9433 13.1432 15.0791 14.2987 15.4251 14.3415C15.8001 14.4232 16.2495 13.4311 16.6957 13.3922C17.1419 13.3494 17.6559 14.0925 18.1021 14.1781C18.5159 14.2598 18.8231 14.1353 19.3048 13.9291C20.1649 13.5984 21.5389 11.9448 22.5671 11.7386C23.3915 11.5713 24.1837 12.3572 24.9726 12.2755C25.797 12.1938 26.7249 11.2405 27.4103 11.1588C27.8565 11.116 28.5096 11.2833 28.5452 11.4468C28.5452 11.6569 26.7928 12.4817 26.6894 12.3572C26.6215 12.2327 27.0676 11.4468 27.3425 11.2833C27.6173 11.116 28.099 11.0771 28.4417 11.3261C28.9914 11.6958 29.6445 13.3922 29.9193 14.2598C30.123 14.9213 30.2943 15.3765 30.1941 16.0379C30.0195 16.9873 29.0593 18.3101 28.4417 19.2206C27.8921 20.0454 27.2746 20.9559 26.6894 21.4111C26.2432 21.7808 25.8293 22.0726 25.3508 22.0298C24.7656 21.987 24.216 20.6641 23.495 20.7069C22.3957 20.7069 20.5076 23.7262 19.4083 23.9713C18.7196 24.1386 18.0698 23.8468 17.6204 23.5589C17.2453 23.3098 16.9705 22.9402 16.7636 22.485C16.5243 21.987 16.2495 21.0804 16.3853 20.6641C16.4888 20.2517 16.9705 19.9209 17.2776 19.8392C17.5525 19.7964 17.8629 19.882 18.1021 20.0454C18.3446 20.2945 18.6517 20.7497 18.6517 21.2049C18.6517 21.9481 17.8952 23.5199 17.3455 23.9324C16.9705 24.2203 16.4532 24.2203 16.0426 24.0958C15.6287 23.9324 14.8754 23.1036 14.9078 22.9791C14.9756 22.8585 16.1105 23.0647 16.146 23.2281C16.146 23.3954 15.5608 23.8079 15.1147 23.9324C14.426 24.1775 13.2265 24.3448 12.47 24.0141C11.6811 23.7262 10.8566 22.734 10.4104 22.0298C10.0645 21.5356 9.82524 20.9559 9.82524 20.5007C9.82524 20.17 9.96103 19.7964 10.168 19.5902C10.4104 19.3451 10.8889 19.135 11.2349 19.2206C11.5776 19.3451 11.9559 19.7575 12.1596 20.3762C12.5379 21.5745 11.3028 26.3719 11.8524 26.8232C12.1272 27.0723 12.6769 26.3291 13.2265 26.2046C13.9475 26.0412 15.1502 26.4536 15.8712 26.0801C16.5243 25.7494 16.8994 24.7183 17.449 24.3448C17.8629 24.0958 18.2411 23.9324 18.7196 23.9324C19.3404 23.9324 20.1972 24.551 20.9537 24.5938C21.7103 24.6755 22.4992 24.5938 23.2202 24.302C24.0091 24.0141 24.6622 23.2281 25.4866 22.8974C26.4145 22.485 27.8565 22.734 28.5775 22.236C29.0593 21.8664 29.1627 20.9559 29.5733 20.6252C29.9872 20.2945 30.5368 20.0882 31.0185 20.1272C31.4971 20.17 32.0823 20.419 32.4605 20.7886C32.8711 21.2049 33.0425 21.8236 33.3529 22.4422C33.6956 23.2281 34.1773 24.2631 34.3843 25.1696C34.5879 25.9984 34.727 26.9088 34.6235 27.6909C34.5201 28.3523 34.2452 29.2239 33.867 29.5546C33.5242 29.8814 32.939 29.5118 32.4605 29.7608C31.843 30.1304 31.3257 31.3716 30.6726 31.8657C30.0551 32.321 29.3696 32.7762 28.681 32.7762C27.8921 32.819 26.8607 31.535 26.1753 31.7023C25.5901 31.784 25.2474 32.9007 24.6977 33.0641C24.216 33.2742 23.7343 32.8579 23.0488 32.819C21.8817 32.819 19.6152 33.1069 18.3446 33.4376C17.4846 33.6866 16.867 34.2664 16.146 34.3481C15.5253 34.387 14.8043 34.2664 14.3258 33.9746C13.9119 33.7255 13.33 33.1886 13.3623 32.9007C13.4302 32.6128 14.8043 32.1575 14.9756 32.3638C15.1147 32.57 14.565 33.6438 14.2902 34.0991C14.051 34.4726 13.7761 34.6788 13.4658 34.9278C13.0875 35.2585 12.5734 35.5892 12.1272 35.7099C11.6455 35.8344 11.1638 35.92 10.6853 35.7099C10.0322 35.4647 8.76153 34.4726 8.65807 33.85C8.59017 33.3948 9.00078 32.6945 9.2756 32.4455C9.48252 32.2393 9.82524 32.2393 10.1001 32.321C10.3393 32.4066 10.5462 32.5272 10.7532 32.9007C11.3028 33.6866 12.0917 36.702 12.3309 38.0249C12.47 38.7719 12.6057 39.5151 12.4344 39.9275C12.2986 40.1765 11.9882 40.3399 11.7134 40.3827C11.4741 40.4644 11.1314 40.3827 10.9245 40.2154C10.6853 39.9703 10.4104 39.5151 10.3749 39.1026C10.3749 38.5229 10.7532 37.6942 11.0603 37.1183C11.4386 36.4958 12.0561 35.6281 12.5734 35.4219C12.984 35.2974 13.4658 35.92 13.9119 35.7099C14.7008 35.3791 15.5964 32.7373 16.4209 31.9513C17.0028 31.4533 17.4846 31.0837 18.1021 31.0837C18.8587 31.0837 20.0937 32.6128 20.6434 32.4883C20.9893 32.4066 21.0572 31.784 21.3644 31.5778C21.8138 31.3288 22.4636 31.3288 23.1523 31.3716C24.0802 31.3716 25.3508 32.0758 26.4501 32.033C27.5817 31.9902 28.9558 31.4961 29.8837 31.0409C30.5691 30.753 31.0864 30.0059 31.6005 29.9242C31.9788 29.8814 32.2536 30.3794 32.5963 30.2977C33.1815 30.1304 34.4522 28.9321 34.4522 28.2317C34.4877 27.4847 33.1815 25.9556 32.4929 25.8739C31.843 25.7922 31.1899 27.1151 30.5368 27.3213C29.9872 27.4847 29.3341 26.9477 28.9235 27.1968C28.5096 27.4458 28.4417 28.3134 28.0634 28.7258C27.7207 29.1811 27.1711 29.718 26.6894 29.8425C26.2787 29.9242 25.9328 29.4301 25.4543 29.5118C24.7301 29.5935 23.5629 31.1226 22.8419 31.0837C22.2923 31.0409 22.0175 30.0915 21.4678 30.0487C20.8147 30.0059 19.9579 31.1226 19.0979 31.3288C18.2056 31.535 16.867 31.4961 16.2495 31.2043C15.8357 31.0409 15.6999 30.4611 15.3895 30.4222C14.9756 30.3794 14.4971 30.7919 14.0154 31.2471C13.33 31.8657 12.5055 33.8111 11.6811 34.1419C11.028 34.4298 10.1356 34.1808 9.68621 33.85C9.37906 33.6049 9.41139 33.0641 9.10424 32.6945C8.6225 32.1147 7.31631 31.4961 6.8378 30.9164C6.52742 30.5429 6.42396 30.2977 6.2526 29.8814C6.01335 29.2239 5.59951 28.1072 5.59951 27.403C5.59951 26.8232 5.77086 26.4108 6.08125 25.9167C6.49186 25.2552 7.45534 24.5082 8.21189 23.9713C8.96522 23.4771 9.82524 22.9791 10.5462 22.7729C11.1314 22.6095 11.7813 22.485 12.1951 22.6912C12.5379 22.8974 12.5055 23.6017 12.9161 23.7651C13.7761 24.1775 16.4888 23.5199 17.4846 23.1464C17.9986 22.9402 18.2056 22.485 18.6194 22.4033C19.0656 22.3177 19.6831 22.9791 20.0937 22.8157C20.472 22.6484 20.6434 21.8663 20.9893 21.5745C21.2965 21.2866 21.6068 21.1193 22.0175 21.0376C22.5348 20.8742 23.2557 20.9131 23.8054 20.9131C24.2839 20.9131 24.6622 20.7886 25.1439 20.9559C25.8293 21.2049 27.3748 22.485 27.3425 22.6095C27.3425 22.6484 26.1042 22.3605 26.1042 22.1543C26.0718 21.8236 28.1313 21.3255 28.6131 20.7886C28.8879 20.4579 28.9558 20.17 29.0948 19.6758C29.2985 18.8899 29.6089 17.3997 29.5054 16.4931C29.4375 15.7889 28.8879 15.2909 28.8879 14.715C28.8523 14.217 29.0593 13.5556 29.3341 13.2249C29.6445 12.8941 30.262 12.649 30.6047 12.8124C30.9151 12.9369 31.3613 13.5556 31.3613 14.0536C31.3936 14.6294 30.7761 15.5399 30.3654 16.0379C29.9516 16.532 29.4375 16.9873 28.9558 17.1935C28.5452 17.3608 28.1313 17.1546 27.6852 17.318C27.0676 17.6059 26.4824 18.7654 25.6256 19.0533C24.4229 19.4657 21.7782 19.3023 20.9537 18.7654C20.5399 18.4736 20.5755 17.6487 20.2651 17.6487C19.7154 17.6059 18.9945 20.8742 17.8952 21.5745C16.728 22.3177 14.3581 22.0726 13.3979 21.7418C12.8482 21.5745 12.4021 21.2866 12.2307 20.8742C12.0917 20.5007 12.263 19.4657 12.3665 19.4268C12.5055 19.4268 13.0875 20.3762 12.984 20.7497C12.7803 21.3255 10.5462 21.9053 9.61831 21.9053C9.00078 21.8663 8.41558 21.8236 8.04054 21.3255C7.45534 20.419 7.24841 16.9873 7.62669 15.9134C7.86595 15.2909 8.38325 14.8785 8.79386 14.7967C9.20771 14.6722 10.0645 15.0458 10.0645 15.1703C10.0645 15.2909 8.93289 15.5827 8.89732 15.4582C8.82943 15.2909 10.168 13.9719 10.7176 13.8046C11.0959 13.6801 11.4386 13.7618 11.749 13.9719C12.0561 14.1781 12.5734 14.7539 12.5379 14.9602C12.47 15.1703 11.5776 15.4154 11.5097 15.2909C11.4386 15.1703 11.8848 14.2598 12.263 13.9291C12.7448 13.5167 13.6371 13.186 14.2223 13.186C14.6685 13.186 15.0468 13.7618 15.4574 13.6801C15.9036 13.5984 16.3497 12.7696 16.7636 12.6062C17.1419 12.5245 17.5201 12.6062 17.8629 12.7307C18.2735 12.8941 18.7196 13.2249 19.0656 13.6412C19.4083 14.0925 19.9903 14.8395 19.9579 15.3337C19.89 15.7461 19.3048 16.3258 18.9621 16.3686C18.6517 16.4503 18.1377 16.2013 17.9307 15.9134C17.7238 15.6216 17.6204 15.1275 17.6915 14.6722C17.7594 13.9719 18.4804 12.7696 18.9266 12.2755C19.2369 11.902 19.5441 11.7775 19.89 11.6569C20.1972 11.5324 20.5755 11.4468 20.9182 11.5713C21.3999 11.6958 21.9496 12.7307 22.3957 12.6879C22.8096 12.6062 23.0133 11.5713 23.495 11.2833C23.9767 10.9526 25.2474 10.9526 25.2474 10.9526C25.2474 10.9526 24.1481 11.2833 24.0802 11.1588C24.0091 10.9526 24.6977 9.91767 25.1439 9.71146C25.5222 9.50524 26.1397 9.46634 26.4501 9.71146C26.7928 9.96047 27.1711 10.9954 27.0676 11.2405C26.9286 11.4896 25.9684 11.4896 25.9005 11.2833C25.8293 10.9954 27.5817 9.21732 28.2704 8.84381C28.7165 8.63759 29.0593 8.7193 29.4731 8.8049C29.9193 8.88661 30.844 9.29903 30.844 9.46634C30.8116 9.62975 29.6089 9.96047 29.4731 9.75426C29.3696 9.50524 29.8481 8.30687 30.2264 8.05786C30.5368 7.81274 31.0185 7.89445 31.3613 8.05786C31.7719 8.22517 32.425 8.84381 32.4605 9.29903C32.5284 9.75426 32.0467 10.4974 31.7395 10.7036C31.4971 10.8709 31.1543 10.8709 30.9151 10.7464C30.6403 10.6647 30.4689 10.4585 30.2264 10.1278C29.8481 9.46634 29.1272 7.68824 29.0948 6.90229C29.0948 6.48987 29.1983 6.19806 29.3696 5.95293C29.541 5.70392 29.8481 5.45491 30.123 5.45491C30.4689 5.45491 31.1188 5.74283 31.3257 6.19806C31.6005 6.65328 31.6684 7.89445 31.3936 8.34967C31.0185 8.88661 29.6768 9.09282 29.0948 8.88661C28.6131 8.7193 28.1992 8.10066 27.9955 7.64544C27.8565 7.27581 27.8565 6.40427 27.8565 6.40427C27.8565 6.40427 28.1669 7.31472 28.0279 7.64544C27.9244 8.01895 27.5138 8.26408 27.1711 8.55589C26.7249 8.88661 26.0718 9.34183 25.5222 9.50524C25.076 9.67255 24.6298 9.42354 24.216 9.62975C23.7698 9.79706 23.495 10.5791 23.0133 10.7464C22.4992 10.9526 21.5713 10.8709 21.0895 10.6219C20.7468 10.4585 20.7145 9.96047 20.3362 9.75426C19.5797 9.38074 17.5201 9.75426 16.6957 9.38074C16.2139 9.13562 15.9391 8.88661 15.6999 8.47418C15.4251 7.97616 15.1147 7.06571 15.2505 6.52877C15.3539 6.07355 15.8357 5.57942 16.146 5.45491C16.4209 5.3732 16.728 5.49771 16.9349 5.66112C17.1742 5.78563 17.3811 6.03464 17.449 6.40427C17.5525 7.0268 17.2453 8.55589 16.7959 9.29903C16.4209 10.0033 15.8001 10.6219 15.1502 10.7892C14.3937 10.9954 12.9161 10.7036 12.5055 10.2484C12.2307 9.96047 12.1272 9.42354 12.2307 9.05002C12.3309 8.63759 12.9161 7.85165 13.2944 7.85165C13.6048 7.81274 14.1544 8.30687 14.2547 8.68039C14.3937 9.05002 14.2902 9.62975 13.9798 10.0422C13.2265 11.0343 9.44696 12.8124 8.38325 12.6062C7.93708 12.5245 7.4909 12.0693 7.45534 11.6958C7.38744 11.3651 7.76572 10.7036 8.07287 10.4585C8.48671 10.2095 9.41139 10.1667 9.72178 10.4585C9.99659 10.7036 9.96103 11.3261 9.99659 11.7386C10.0322 12.0693 10.0645 12.3572 9.99659 12.6062C9.89313 12.8552 9.61831 13.1432 9.41139 13.2249C9.24004 13.3105 9.00078 13.2677 8.82943 13.1432C8.65807 13.0186 8.38325 12.4 8.38325 12.4Z" fill="white"/>
</mask>
<g mask="url(#mask7_40_11335)">
<path d="M-0.0327148 3.22159H40.5563V45.7559H-0.0327148V3.22159Z" fill="#702CC9"/>
</g>
</g>
<mask id="mask8_40_11335" style="mask-type:luminance" maskUnits="userSpaceOnUse" x="28" y="8" width="12" height="31">
<path d="M28.1216 8.25244H39.1175V38.4296H28.1216V8.25244Z" fill="white"/>
</mask>
<g mask="url(#mask8_40_11335)">
<mask id="mask9_40_11335" style="mask-type:luminance" maskUnits="userSpaceOnUse" x="28" y="8" width="12" height="31">
<path d="M31.1187 10.2095C28.7488 11.9448 28.4416 11.6569 28.3026 11.4079C28.1991 11.1589 28.1312 10.7037 28.2347 10.373C28.4416 9.87883 29.3695 9.05009 29.8836 8.96838C30.2619 8.88667 30.7081 9.09289 30.915 9.38081C31.0863 9.62982 31.0863 9.96054 31.0508 10.4158C31.0184 11.2834 30.1584 14.1782 30.1229 14.1354C30.0905 14.1354 30.1229 13.1432 30.3298 12.8553C30.6046 12.5635 31.1542 12.5246 31.636 12.4818C32.15 12.439 32.9066 12.3184 33.2849 12.688C33.6955 13.0615 34.0059 14.1782 34.0382 14.6295C34.0382 14.9213 33.9703 15.0847 33.8345 15.252C33.6632 15.54 33.3172 15.9135 33.0101 15.9524C32.6997 15.9952 32.2535 15.789 32.0466 15.54C31.8429 15.252 31.7039 14.7151 31.8073 14.3416C31.9787 13.8047 33.078 12.8942 33.592 12.8942C34.0059 12.8553 34.5199 13.3105 34.6913 13.6412C34.8303 13.8864 34.8303 14.2988 34.7624 14.5906C34.6913 14.8785 34.313 15.3337 34.2807 15.3337C34.2451 15.2909 34.6234 14.0537 34.7269 14.0537C34.8303 14.0926 34.9661 16.0769 34.7948 16.1197C34.6913 16.2014 33.938 15.0847 34.0382 14.9602C34.1093 14.7968 35.4479 15.0847 35.7582 15.54C36.0654 16.038 35.9975 17.1118 35.894 17.7733C35.7906 18.353 35.4834 18.8899 35.1375 19.3841C34.7624 20.0066 34.0738 20.9132 33.6276 21.1194C33.3172 21.2439 33.0424 21.1622 32.8031 20.9949C32.5639 20.8743 32.3214 20.5824 32.2535 20.2945C32.15 19.9638 32.15 19.3841 32.357 19.0145C32.5639 18.5981 33.2493 18.1857 33.6955 18.0612C34.0738 17.9367 34.5199 17.9367 34.8627 18.104C35.2086 18.2674 35.5158 18.7226 35.8261 19.0534C36.1689 19.4269 36.5827 19.7148 36.8219 20.3373C37.1647 21.2867 36.7864 23.7651 37.1647 24.5511C37.3716 25.0063 37.7499 24.9635 38.0247 25.337C38.403 25.7922 38.8491 26.4537 39.0205 27.2785C39.2274 28.5197 38.8491 30.504 38.6422 32.1576C38.403 33.8929 38.1605 36.5776 37.5785 37.5697C37.2681 38.1105 36.7541 38.4413 36.4081 38.3985C36.101 38.3985 35.6871 38.025 35.5513 37.737C35.4123 37.488 35.3444 37.1573 35.4123 36.8694C35.4834 36.5387 35.7582 36.0017 36.0331 35.8344C36.3402 35.7099 36.8219 35.7099 37.0968 35.92C37.3716 36.0834 37.6108 36.6204 37.6464 36.9939C37.6464 37.3635 37.4395 37.9004 37.2002 38.1495C36.9577 38.3557 36.4792 38.4802 36.1689 38.3557C35.894 38.2312 35.5837 37.9432 35.4479 37.4491C35.1375 36.2079 36.4081 31.8269 36.5116 29.9671C36.5827 28.8932 36.6829 28.2318 36.4437 27.403C36.2044 26.4926 34.8627 24.8818 34.9338 24.8001C34.9661 24.7573 35.7582 25.6249 35.7227 25.6249C35.7227 25.6249 34.6913 24.9635 34.4876 24.5083C34.2807 24.0141 34.3486 23.271 34.4876 22.7341C34.5878 22.236 35.173 21.7419 35.1051 21.4112C35.0372 21.1194 34.452 20.8743 34.1093 20.7887C33.6955 20.707 33.1459 21.1622 32.8031 20.9949C32.4928 20.8743 32.2179 20.3373 32.15 19.9638C32.1177 19.6759 32.1856 19.3452 32.357 19.0145C32.5639 18.5592 33.6276 18.1429 33.6276 17.6488C33.6632 17.1936 32.6318 16.6994 32.5283 16.1625C32.4604 15.789 32.6641 14.9602 32.8031 14.9213C32.9389 14.8785 33.3528 16.1625 33.3883 16.1625C33.3883 16.1197 32.7676 15.0847 32.7352 14.5478C32.6997 14.0537 32.871 13.3494 33.1135 13.0615C33.2849 12.8553 33.6276 12.8125 33.8668 12.8942C34.1417 12.9798 34.5878 13.3105 34.6913 13.6412C34.8303 14.0109 34.7269 14.754 34.4876 15.1275C34.2128 15.54 33.1459 16.038 33.1135 15.9524C33.078 15.8707 33.9024 14.9602 33.938 14.9602C33.9703 15.003 33.6955 15.5828 33.4886 15.7462C33.2849 15.9135 33.0101 16.038 32.7352 15.9524C32.4604 15.9135 32.0466 15.5828 31.9108 15.2909C31.7718 15.003 31.8073 14.3416 31.8073 14.3416C31.8073 14.3416 31.9787 14.8396 31.8752 15.003C31.7718 15.252 31.1898 15.2909 30.776 15.3337C30.2263 15.3765 29.2661 15.501 28.8199 15.1703C28.4416 14.8396 28.1668 14.2171 28.1668 13.5167C28.1312 12.4001 29.0236 9.54811 29.6767 9.09289C29.9871 8.84387 30.5367 8.96838 30.7436 9.17459C30.9829 9.3808 31.1542 10.0422 31.0508 10.4158C30.915 10.9527 29.9515 11.6569 29.5053 11.8203C29.1982 11.9021 28.8522 11.9448 28.6485 11.7775C28.4061 11.5713 28.1668 11.0344 28.1991 10.622C28.2347 10.2095 28.613 9.75432 28.9913 9.38081C29.473 8.92558 30.5011 8.22523 30.915 8.30694C31.1898 8.38865 31.4291 8.76217 31.4646 9.05009C31.5325 9.3808 31.1187 10.2095 31.1187 10.2095Z" fill="white"/>
</mask>
<g mask="url(#mask9_40_11335)">
<path d="M26.7927 6.65332H40.3946V40.0948H26.7927V6.65332Z" fill="#702CC9"/>
</g>
</g>
<mask id="mask10_40_11335" style="mask-type:luminance" maskUnits="userSpaceOnUse" x="15" y="34" width="24" height="14">
<path d="M15.9487 34.8539H38.0021V47.2111H15.9487V34.8539Z" fill="white"/>
</mask>
<g mask="url(#mask10_40_11335)">
<mask id="mask11_40_11335" style="mask-type:luminance" maskUnits="userSpaceOnUse" x="15" y="34" width="23" height="14">
<path d="M17.9663 40.5462C17.8272 41.7056 18.4803 41.0014 18.9621 41.0014C19.5796 41.0014 20.5398 41.3749 21.0895 41.9546C21.6391 42.5733 21.5712 44.2269 22.1888 44.6821C22.8774 45.1373 24.1836 44.7638 25.0048 44.4331C25.8293 44.0596 26.6537 42.6122 27.2389 42.6122C27.6495 42.655 28.099 43.1919 28.1992 43.5654C28.3026 43.9779 27.892 45.0128 27.8241 45.0128C27.7207 44.97 27.5138 44.1452 27.7207 43.6899C28.2703 42.406 32.939 40.4645 33.8346 39.0599C34.2807 38.3984 34.0382 37.737 34.3842 37.1184C34.8304 36.3324 35.8585 35.134 36.5116 34.9667C36.9578 34.8422 37.543 35.134 37.7822 35.4648C37.9536 35.7527 37.9892 36.3324 37.8857 36.702C37.7822 37.0328 37.4072 37.4063 37.1324 37.488C36.822 37.5697 36.3403 37.4063 36.1333 37.1573C35.9296 36.9939 35.8262 36.702 35.7906 36.4569C35.7583 36.0834 35.8941 35.5037 36.101 35.2586C36.3403 35.0095 36.7864 34.8033 37.0968 34.9278C37.4395 35.0484 37.9213 35.7099 37.9536 36.1262C37.9892 36.4958 37.7822 36.9939 37.543 37.239C37.3037 37.5308 36.7541 37.3635 36.4793 37.6942C36.1333 38.1494 36.1689 39.3478 35.8941 39.9703C35.6548 40.4645 35.5158 40.6707 35.0696 41.1687C34.0382 42.3243 30.3298 45.6743 28.9557 46.2112C28.3738 46.4563 27.9955 46.4174 27.5493 46.2929C27.1031 46.1684 26.5858 45.9194 26.3466 45.5497C26.1041 45.219 25.9683 44.6821 25.9683 44.2658C26.0039 43.8144 26.2431 43.153 26.4824 42.904C26.6893 42.6978 26.9997 42.5733 27.2389 42.6122C27.5138 42.6978 27.9599 42.9857 28.099 43.2736C28.2347 43.5226 28.3026 43.8961 28.2347 44.2269C28.0634 44.8066 27.2034 45.6742 26.5179 46.1684C25.7969 46.7053 24.8335 47.1177 23.9767 47.1605C23.0843 47.2033 21.9851 46.9971 21.2641 46.4174C20.5398 45.8377 20.3362 44.1024 19.6475 43.5226C18.9944 43.0285 17.9986 43.3164 17.3811 43.0285C16.8993 42.8223 16.3852 42.5733 16.146 42.1608C15.9746 41.8301 15.9391 41.3321 16.007 40.9197C16.0425 40.4217 16.2495 39.6785 16.5566 39.4295C16.8314 39.2233 17.449 39.1844 17.6914 39.3906C17.8951 39.5968 17.9663 40.5462 17.9663 40.5462Z" fill="white"/>
</mask>
<g mask="url(#mask11_40_11335)">
<path d="M14.6328 33.2743H39.3664V48.857H14.6328V33.2743Z" fill="#702CC9"/>
</g>
</g>
<mask id="mask12_40_11335" style="mask-type:luminance" maskUnits="userSpaceOnUse" x="10" y="11" width="11" height="15">
<path d="M10.6465 11.6841H20.4268V25.6288H10.6465V11.6841Z" fill="white"/>
</mask>
<g mask="url(#mask12_40_11335)">
<path d="M20.2327 18.9522C20.2327 22.2477 18.0536 25.3059 15.3669 25.3059C12.6801 25.3059 10.821 22.6368 10.821 19.3413C10.821 16.0496 13.317 12.2094 16.0006 12.2094C18.6873 12.2094 20.2327 15.6606 20.2327 18.9522Z" fill="white"/>
<path d="M15.3669 25.5199C12.6769 25.5199 10.6465 22.8625 10.6465 19.3413C10.6465 16.0341 13.1166 11.9993 16.0006 11.9993C18.7585 11.9993 20.4041 15.5361 20.4041 18.9522C20.4041 22.45 18.0504 25.5199 15.3669 25.5199ZM16.0006 12.4234C13.3526 12.4234 10.9924 16.2909 10.9924 19.3413C10.9924 22.6212 12.8741 25.0958 15.3669 25.0958C17.8661 25.0958 20.0582 22.2244 20.0582 18.9522C20.0582 15.7423 18.5418 12.4234 16.0006 12.4234Z" fill="black"/>
</g>
<path d="M29.4828 18.4191C29.4828 21.9675 27.2293 24.8428 24.8367 24.8428C22.4474 24.8428 20.8276 21.9675 20.8276 18.4191C20.8276 14.8668 22.4474 11.6024 24.8367 11.6024C27.2293 11.6024 29.4828 14.8668 29.4828 18.4191Z" fill="white"/>
<mask id="mask13_40_11335" style="mask-type:luminance" maskUnits="userSpaceOnUse" x="20" y="10" width="10" height="16">
<path d="M20.4268 10.6881H29.6574V25.6288H20.4268V10.6881Z" fill="white"/>
</mask>
<g mask="url(#mask13_40_11335)">
<path d="M24.8368 25.0569C22.4507 25.0569 20.6531 22.201 20.6531 18.4192C20.6531 14.9641 22.2179 11.3885 24.8368 11.3885C27.3586 11.3885 29.6574 14.7385 29.6574 18.4192C29.6574 21.9559 27.4039 25.0569 24.8368 25.0569ZM24.8368 11.8126C22.4345 11.8126 20.999 15.1704 20.999 18.4192C20.999 21.9598 22.6512 24.6328 24.8368 24.6328C27.2196 24.6328 29.3115 21.7264 29.3115 18.4192C29.3115 15.0225 27.1355 11.8126 24.8368 11.8126Z" fill="black"/>
</g>
<path d="M20.2327 19.4891C19.6766 19.2206 18.8618 19.4891 18.5029 17.7655C18.3219 16.89 18.781 15.9329 19.8253 16.0496L20.1195 17.4036L20.2327 19.4891Z" fill="black"/>
<path d="M29.4828 18.7576C29.0269 18.8315 27.6754 18.318 27.7951 16.8822C27.9147 15.4465 28.9946 15.5555 28.9946 15.5555L29.389 17.1585L29.4828 18.7576Z" fill="black"/>
<path d="M16.9802 4.80129C16.8864 4.47446 16.7118 4.24879 16.4758 4.14763C16.3433 4.08927 16.2204 4.09705 16.1137 4.17098C15.8583 4.34995 15.7807 4.82852 15.6643 5.5561C15.5673 6.15529 15.4477 6.89843 15.1955 7.62212C14.5812 9.3691 13.7212 10.2095 13.7115 10.2173C13.65 10.2757 13.6274 10.3729 13.6565 10.4624C13.6824 10.5441 13.747 10.5947 13.8182 10.5947C13.8214 10.5947 13.8279 10.5947 13.8311 10.5947C13.8861 10.5908 15.1631 10.4391 16.2495 8.25633C16.9446 6.85563 17.2097 5.5989 16.9802 4.80129Z" fill="black"/>
<mask id="mask14_40_11335" style="mask-type:luminance" maskUnits="userSpaceOnUse" x="17" y="0" width="9" height="9">
<path d="M17.9436 0.74707H25.3928V8.696H17.9436V0.74707Z" fill="white"/>
</mask>
<g mask="url(#mask14_40_11335)">
<path d="M25.0566 7.57157C23.5014 7.11245 21.6197 5.43162 21.1929 3.22553C20.9537 1.97658 20.6401 0.766537 19.7542 0.898825C19.4147 0.949405 18.9944 1.27234 18.823 1.8832C18.6808 2.3929 18.6323 3.48232 19.9094 5.03476C21.8331 7.36924 24.8626 7.96454 24.9887 7.98788C24.9984 7.99177 25.0081 7.99177 25.0178 7.99177C25.0986 7.99177 25.1697 7.92174 25.1859 7.82058C25.2053 7.70774 25.1471 7.5988 25.0566 7.57157Z" fill="black"/>
</g>
<mask id="mask15_40_11335" style="mask-type:luminance" maskUnits="userSpaceOnUse" x="36" y="38" width="8" height="17">
<path d="M36.0266 38.13H43.5922V54.2107H36.0266V38.13Z" fill="white"/>
</mask>
<g mask="url(#mask15_40_11335)">
<mask id="mask16_40_11335" style="mask-type:luminance" maskUnits="userSpaceOnUse" x="36" y="38" width="8" height="17">
<path d="M36.0331 38.5619C36.6506 37.9432 36.7541 38.1105 36.8575 38.3556C37.336 39.4295 37.6109 45.8377 38.264 48.5262C38.7101 50.386 40.0842 52.8217 39.8773 53.1135C39.845 53.1952 39.5346 53.1135 39.5346 53.0318C39.5023 52.9073 41.5262 51.8723 42.0079 51.954C42.2472 51.9968 42.4541 52.1602 42.4897 52.3275C42.522 52.491 42.3862 52.8217 42.2828 52.8217C42.1793 52.8217 41.8722 52.0396 41.94 51.9968C41.9724 51.9151 42.4541 52.1602 42.4897 52.3275C42.522 52.5338 42.2472 52.8217 42.0079 53.0707C41.5618 53.4442 40.5983 53.8994 40.0163 54.0239C39.638 54.1056 39.124 54.1446 39.0205 53.9811C38.9171 53.8566 38.9849 53.6076 39.0884 53.4014C39.3988 52.9462 40.7373 52.452 41.4939 52.1213C42.0758 51.8723 42.8324 51.4599 43.1751 51.6233C43.382 51.7089 43.6213 52.0396 43.5534 52.203C43.4499 52.6155 40.8731 53.3197 40.3267 53.1524C40.0842 53.0707 39.9129 52.8645 39.9129 52.7011C39.8773 52.5766 40.0519 52.2847 40.1521 52.2847C40.2911 52.2458 40.6339 52.5766 40.6339 52.74C40.6339 52.8645 40.359 53.1524 40.2232 53.1524C40.1198 53.1135 39.8773 52.6583 39.9484 52.491C40.0519 52.203 40.8731 51.954 41.4227 51.8334C42.0079 51.6661 42.9682 51.3782 43.2786 51.6233C43.4499 51.7478 43.5534 52.1213 43.4499 52.3703C43.2107 53.0318 40.0163 54.2301 39.3988 54.1873C39.1919 54.1873 39.0528 54.1056 39.0205 53.9811C38.9526 53.8566 39.0205 53.5687 39.1563 53.3625C39.5346 52.8645 41.3548 51.9968 41.94 51.9968C42.1793 51.9968 42.4218 52.0785 42.4897 52.2458C42.522 52.3703 42.3862 52.8217 42.2828 52.8217C42.2149 52.8217 41.8722 52.0396 41.94 51.9968C41.9724 51.9151 42.4897 52.203 42.4897 52.3275C42.522 52.5766 41.8722 53.0318 41.4583 53.238C40.8731 53.5687 39.8773 54.1446 39.2953 53.7749C38.4709 53.2769 38.1282 50.8413 37.6464 48.9776C37.0289 46.4174 36.3079 41.4994 36.2368 39.8458C36.2044 39.2233 36.1689 38.7292 36.3079 38.5619C36.3758 38.4412 36.6506 38.4801 36.6506 38.5229C36.6829 38.6047 36.4081 39.0599 36.2723 39.0599C36.1689 39.0171 36.0331 38.5619 36.0331 38.5619Z" fill="white"/>
</mask>
<g mask="url(#mask16_40_11335)">
<path d="M34.6591 36.2896H44.9631V55.8604H34.6591V36.2896Z" fill="#1E1E1E"/>
</g>
</g>
<mask id="mask17_40_11335" style="mask-type:luminance" maskUnits="userSpaceOnUse" x="11" y="25" width="18" height="11">
<path d="M11.7391 25.8039H28.6809V35.6943H11.7391V25.8039Z" fill="white"/>
</mask>
<g mask="url(#mask17_40_11335)">
<path d="M28.6098 34.1497C28.5257 34.5699 28.3058 34.9784 27.9761 35.134C27.6915 35.2702 27.3747 35.2119 27.0805 35.1263C26.9285 35.0835 26.7766 35.0329 26.6278 34.9784C25.0921 34.4454 23.6857 33.5544 22.0853 33.1964C20.4493 32.8346 18.7713 32.9669 17.1838 33.5855C16.0522 34.029 15.0823 34.9979 13.9636 35.4609C13.7728 35.5387 13.5788 35.6009 13.3816 35.6476C12.971 35.7371 12.5119 35.7177 12.1918 35.3947C11.875 35.0757 11.7683 34.5465 11.7456 34.0524C11.6389 31.7062 12.9387 29.6441 14.4647 28.2473C14.8559 27.8855 15.2665 27.5703 15.6675 27.3057C17.2129 26.2902 19.1043 25.7533 20.9601 25.8039C22.8709 25.8545 24.8108 26.5937 26.3045 28.045C26.8412 28.5663 27.3197 29.1811 27.7206 29.8892C28.1733 30.6946 28.516 31.6362 28.6324 32.605C28.6938 33.0953 28.7132 33.6633 28.6098 34.1497Z" fill="#1D1D1B"/>
</g>
<mask id="mask18_40_11335" style="mask-type:luminance" maskUnits="userSpaceOnUse" x="14" y="25" width="13" height="7">
<path d="M14.6329 25.8039H26.2206V31.6051H14.6329V25.8039Z" fill="white"/>
</mask>
<g mask="url(#mask18_40_11335)">
<path d="M26.1074 28.3835C26.1074 28.3835 25.9522 28.8387 25.8229 29.1461C25.603 29.6635 25.3702 29.8581 24.9467 30.1849C24.73 30.3522 24.3776 30.4767 24.0672 30.5234C23.6178 30.5934 23.0682 30.8541 22.2341 30.8191C20.4882 30.7452 20.0969 30.3522 18.7229 30.5623C18.1764 30.6479 17.9695 30.753 17.4005 30.7569C17.1451 30.7569 17.0642 30.5351 16.7474 30.4962C16.2657 30.4378 15.5414 30.5117 15.2375 30.1188C14.9821 29.7881 15.0565 28.3523 15.0565 28.3523C15.0759 28.3368 16.479 27.1462 18.2573 26.6404C19.7348 26.2163 21.4484 26.2319 22.6285 26.5276C23.6825 26.7921 24.7203 27.3641 25.6547 27.9827C25.9069 28.1539 26.1074 28.3835 26.1074 28.3835Z" fill="white"/>
</g>
<path d="M26.6861 34.5193C25.1568 33.7334 23.7407 33.033 22.1403 32.6634C20.5043 32.286 18.8263 32.4222 17.242 33.068C16.1104 33.5272 15.1179 34.2664 14.0186 35.0173C13.8634 33.7373 13.9022 32.4727 14.3225 31.7257C14.4777 31.4495 14.9562 30.8386 15.5931 30.7491C16.1363 30.6713 16.9349 30.4262 17.2517 30.3056C18.1603 31.0487 16.2624 29.9165 16.2624 29.9165C16.7053 29.7492 17.1354 29.7025 17.5363 29.6714C20.4558 29.4535 23.3365 30.4807 23.537 30.5429C23.6469 30.5779 24.2289 30.4884 24.3323 30.5273C26.1332 31.1615 26.2981 31.3561 26.6635 32.3988C26.9156 33.107 26.8413 33.8773 26.6861 34.5193Z" fill="white"/>
<mask id="mask19_40_11335" style="mask-type:luminance" maskUnits="userSpaceOnUse" x="0" y="27" width="22" height="12">
<path d="M0.908203 27.6287H21.4064V38.7525H0.908203V27.6287Z" fill="white"/>
</mask>
<g mask="url(#mask19_40_11335)">
<mask id="mask20_40_11335" style="mask-type:luminance" maskUnits="userSpaceOnUse" x="0" y="27" width="22" height="12">
<path d="M4.5003 34.1808C1.17015 38.6474 0.96323 38.2739 0.998795 37.986C1.10226 37.1573 4.26104 34.0174 4.77512 34.0563C4.91414 34.0563 5.0176 34.1808 5.0176 34.3481C5.0176 34.9278 1.92671 38.3984 1.54843 38.3167C1.44497 38.2739 1.37707 38.0677 1.44497 37.8615C1.89114 36.702 16.4888 29.8815 18.0698 30.1733C18.3447 30.2122 18.516 30.4223 18.5483 30.5857C18.5483 30.7919 18.2735 30.9981 17.9987 31.2043C17.3456 31.7023 14.7009 33.1886 14.3937 32.9435C14.2903 32.8579 14.3258 32.57 14.3937 32.3638C14.4972 32.1148 14.8399 31.9514 15.1826 31.7023C15.7323 31.3288 17.0029 30.255 17.3133 30.3795C17.4491 30.4223 17.5202 30.753 17.5202 30.7919C17.4491 30.8347 16.1461 29.5118 16.075 29.0566C16.0426 28.8076 16.1461 28.438 16.2819 28.3952C16.5923 28.3524 18.2735 30.504 18.377 31.1226C18.4449 31.3716 18.3091 31.7023 18.2056 31.7451C18.1377 31.8269 17.9664 31.7841 17.8952 31.7023C17.795 31.535 17.8952 30.9981 17.9987 30.5429C18.2056 29.7608 19.0301 27.7337 19.3728 27.652C19.5118 27.6092 19.6476 27.8154 19.7155 27.9827C19.7866 28.1889 19.6832 28.5197 19.5442 28.8504C19.3405 29.5546 17.9987 31.0409 18.2056 31.5778C18.4449 32.1965 20.9182 31.7023 21.2642 32.1148C21.4355 32.2821 21.4355 32.6517 21.3321 32.819C21.1607 33.0641 20.3007 33.1497 19.7155 33.0641C19.0656 33.0252 17.9308 32.5272 17.5525 32.2393C17.3456 32.1148 17.2454 31.9903 17.2098 31.7841C17.1419 31.4533 17.3456 30.8347 17.5202 30.3367C17.7595 29.7608 18.2735 28.7687 18.6195 28.6014C18.7908 28.5197 19.098 28.6014 19.1691 28.7687C19.3049 29.1383 18.3447 31.0837 17.9664 31.5778C17.795 31.7841 17.656 31.9903 17.4491 31.9514C16.935 31.7841 15.5253 29.2628 15.493 28.6014C15.493 28.3524 15.6288 28.0644 15.7678 28.0644C16.075 28.0216 17.4846 30.8347 17.3812 30.9981C17.3456 31.0837 17.0708 30.9981 17.0385 30.8736C16.935 30.5429 18.1701 28.3952 18.6195 28.1072C18.8232 27.9399 19.0656 27.901 19.1335 28.0216C19.3049 28.2707 17.9308 30.504 18.1022 31.1226C18.1701 31.4961 18.5483 31.6206 18.9266 31.7841C19.4763 32.0331 20.8859 31.7023 21.2286 31.9903C21.3644 32.1148 21.4 32.3638 21.3644 32.5272C21.3321 32.6945 21.1252 32.9435 20.8503 32.9824C20.1294 33.1497 17.2777 32.3638 16.5244 31.3716C15.9392 30.5857 15.7678 28.6014 15.9748 28.2707C16.075 28.1072 16.3854 28.1072 16.5244 28.2317C16.8671 28.5197 17.0385 30.6285 17.1064 31.2471C17.1419 31.535 17.1743 31.7023 17.1064 31.8658C17.0385 32.0331 16.8671 32.1148 16.6246 32.2821C15.9036 32.6945 14.0155 33.7256 12.4021 34.2236C10.3749 34.8422 7.28404 34.7177 5.36032 35.3403C3.95066 35.7955 2.37288 37.239 1.85558 37.1184C1.68422 37.0756 1.54843 36.9083 1.54843 36.7876C1.51287 36.702 1.58076 36.5386 1.75212 36.4141C2.40522 35.8344 5.87439 35.0912 7.79811 34.3053C9.58604 33.605 11.61 32.2821 12.8483 31.9086C13.5693 31.7023 14.3582 31.4533 14.5651 31.6596C14.7009 31.7841 14.772 32.1148 14.6686 32.3638C14.2903 33.0641 11.235 34.0991 9.44702 34.7605C7.62675 35.4648 5.18896 35.7099 3.88277 36.4141C3.02598 36.8693 2.40522 37.9004 1.99461 37.986C1.82325 38.0677 1.61633 37.986 1.54843 37.9004C1.4773 37.7798 1.44497 37.5308 1.58076 37.3635C2.1304 36.5775 8.5191 34.4298 9.27566 34.885C9.48258 35.0095 9.58605 35.3403 9.51492 35.5465C9.20777 36.2468 3.57562 38.0677 2.92252 37.6553C2.75116 37.5308 2.68003 37.239 2.75116 37.0328C3.09388 36.2896 8.55467 34.3053 9.20777 34.6788C9.37912 34.8033 9.44702 35.134 9.37912 35.3403C9.1043 35.92 5.53167 37.2818 5.0176 36.9939C4.84625 36.9083 4.74278 36.5386 4.81068 36.3713C4.98204 36.0406 6.22034 36.1651 7.21615 35.7955C9.00084 35.0912 13.0197 33.1069 14.3937 32.0331C15.0468 31.535 15.354 30.6285 15.6644 30.6674C15.8357 30.6674 16.075 31.0837 16.0426 31.2043C16.0071 31.2899 15.5965 31.3716 15.5253 31.2899C15.4574 31.2043 15.5253 30.7102 15.6288 30.6674C15.6999 30.6285 16.0426 30.9592 16.0426 31.1654C16.075 31.4533 15.6288 31.9514 15.1147 32.4066C13.8085 33.5194 9.27566 35.7099 7.3875 36.4141C6.35613 36.7876 5.29242 37.239 4.94647 36.9939C4.81068 36.8693 4.74278 36.5775 4.81068 36.3713C5.0855 35.7955 8.69046 34.387 9.20777 34.6788C9.37912 34.8033 9.44702 35.0912 9.37912 35.3403C9.1043 35.9589 5.6707 36.9511 4.5003 37.3246C3.81487 37.5308 3.09388 37.8615 2.85139 37.6553C2.7156 37.5308 2.6477 37.239 2.75116 37.0328C3.12621 36.2896 7.93714 35.0095 8.93295 34.885C9.2401 34.8422 9.48258 34.8422 9.55048 34.9667C9.61838 35.0912 9.65394 35.3403 9.51492 35.5465C8.93295 36.3324 2.16596 38.4412 1.61633 37.986C1.4773 37.8615 1.51287 37.5697 1.58076 37.3635C1.75212 36.9083 2.50868 36.3713 3.3008 35.9589C4.63932 35.2158 7.35194 34.885 9.27566 34.1419C11.0959 33.4377 13.912 31.3288 14.4972 31.6596C14.7009 31.7451 14.8044 32.1576 14.7365 32.2821C14.6007 32.5272 13.8441 32.2821 13.0197 32.4883C10.9246 33.0641 3.05831 37.2001 1.92671 37.1184C1.71979 37.0756 1.58076 36.9939 1.54843 36.9083C1.51287 36.7876 1.54843 36.5775 1.68422 36.4141C2.0625 35.9589 3.60795 35.2586 4.94647 34.8033C6.8702 34.1808 10.168 34.2664 12.2308 33.605C13.8441 33.0641 16.075 32.4066 16.4209 31.4961C16.6246 30.9592 15.9748 30.2122 15.8713 29.5935C15.8002 29.0138 15.7323 28.0644 15.9392 27.8582C16.075 27.7337 16.4533 27.7765 16.6246 27.9827C16.8994 28.3952 16.3498 30.006 16.7992 30.6674C17.4491 31.6596 21.2286 31.6596 21.3644 32.2393C21.4355 32.4455 21.1252 32.7762 20.8859 32.9007C20.5076 33.0641 19.7155 32.8579 19.1691 32.6517C18.5839 32.4066 17.6916 31.9086 17.5202 31.3716C17.3456 30.9592 17.5881 30.3795 17.795 29.8425C18.0343 29.2239 18.7553 27.901 18.9945 27.9399C19.098 27.9399 19.237 28.1889 19.2693 28.3952C19.2693 28.6442 18.9945 29.0138 18.7908 29.3873C18.516 29.8814 18.1022 30.7919 17.7239 31.1226C17.4491 31.3716 17.1064 31.6596 16.8315 31.4961C16.3498 31.2471 15.3896 28.5197 15.5609 28.1889C15.6288 28.0644 15.8357 28.0216 16.0071 28.1072C16.3498 28.3135 17.0029 29.3873 17.2454 29.967C17.4167 30.3795 17.2454 31.1654 17.4167 31.2043C17.656 31.2899 18.6518 28.4769 18.9266 28.5197C19.0301 28.5197 19.1691 28.8076 19.1691 29.0566C19.1335 29.5935 17.5525 30.9592 17.6916 31.535C17.8273 32.0331 19.1335 32.2393 19.7511 32.321C20.3007 32.4066 21.0573 31.9086 21.2642 32.1148C21.4 32.2393 21.4679 32.6517 21.3321 32.819C21.1252 33.0641 19.8901 32.8579 19.237 32.6945C18.6195 32.4883 17.7239 32.3638 17.5525 31.7841C17.3133 30.9592 18.9945 27.6909 19.3728 27.652C19.5118 27.652 19.6832 27.901 19.6832 28.1889C19.7511 28.8076 18.8232 31.6596 18.2056 31.7451C17.6204 31.8658 16.1784 29.6752 16.075 29.0566C16.0426 28.7687 16.1461 28.438 16.2819 28.3952C16.5567 28.3524 17.795 29.718 17.8952 30.2122C17.9664 30.504 17.8629 30.753 17.656 30.9981C17.2098 31.6206 14.6686 33.1497 14.3937 32.9435C14.2903 32.8579 14.3258 32.5272 14.4616 32.321C14.8044 31.7023 17.4167 30.1305 18.0698 30.1733C18.3091 30.1733 18.516 30.3367 18.516 30.504C18.5483 30.6674 18.4125 30.9164 18.1377 31.1226C17.1743 31.9903 12.5735 33.3131 9.78973 34.5543C7.00922 35.8344 2.61214 38.9354 1.4773 38.6864C1.13459 38.6474 0.930899 38.3556 0.930899 38.0677C0.895334 37.4063 2.85139 35.422 3.57562 34.636C3.98623 34.1808 4.32894 33.8501 4.67165 33.6867C4.91414 33.605 5.25686 33.5194 5.36032 33.6867C5.46378 33.8929 5.29242 34.5543 5.04993 35.0484C4.57143 35.9589 2.92252 37.7798 2.1304 38.2311C1.68422 38.4801 1.06669 38.6474 0.96323 38.4412C0.756308 38.0677 2.92252 34.6788 3.60795 33.9746C3.91833 33.6439 4.29661 33.4377 4.4324 33.5194C4.53586 33.605 4.5003 34.1808 4.5003 34.1808Z" fill="white"/>
</mask>
<g mask="url(#mask20_40_11335)">
<path d="M-0.443237 25.9984H22.7611V40.3827H-0.443237V25.9984Z" fill="#1E1E1E"/>
</g>
</g>
<mask id="mask21_40_11335" style="mask-type:luminance" maskUnits="userSpaceOnUse" x="35" y="22" width="10" height="10">
<path d="M35.532 22.7146H44.6559V31.0604H35.532V22.7146Z" fill="white"/>
</mask>
<g mask="url(#mask21_40_11335)">
<mask id="mask22_40_11335" style="mask-type:luminance" maskUnits="userSpaceOnUse" x="35" y="22" width="10" height="10">
<path d="M37.4752 24.8817C37.3038 24.0569 37.7144 24.1775 38.0572 24.3876C38.8137 24.8817 40.3268 27.0723 41.2515 27.8582C41.8367 28.3523 42.7646 28.6013 42.8325 28.9321C42.8325 29.0994 42.6612 29.4301 42.4542 29.4301C41.9046 29.5118 40.3592 27.154 39.2276 26.3291C38.0927 25.5004 35.7907 25.0062 35.5838 24.4265C35.4836 24.2203 35.5838 23.9324 35.6873 23.8468C35.8263 23.7262 36.1334 23.8896 36.5473 24.0958C37.6465 24.5938 41.9725 27.3213 42.4219 28.1461C42.5221 28.3523 42.5221 28.6013 42.4542 28.6441C42.1115 28.8932 37.029 24.1386 36.5828 23.2709C36.4794 23.1036 36.4438 22.9402 36.4794 22.8585C36.5473 22.734 36.6831 22.6912 36.89 22.734C37.8535 23.0219 43.9318 28.9321 43.8962 29.718C43.8639 29.8853 43.657 30.0487 43.4501 30.0059C42.8681 29.8853 41.5263 27.1151 40.4271 25.9984C39.3633 24.9245 37.1325 23.8896 37.0613 23.3098C37.029 23.1036 37.2327 22.8157 37.4073 22.7729C37.8179 22.7729 38.7781 24.6755 39.7061 25.7105C41.0123 27.154 44.4459 29.6363 44.6172 30.504C44.6883 30.753 44.5493 30.9981 44.4135 31.0409C44.2745 31.0837 44.0353 30.7919 43.7604 30.504C43.0039 29.7608 41.3226 27.3602 40.1522 26.2046C39.2276 25.2125 37.5075 24.302 37.4073 23.7262C37.3717 23.5199 37.4752 23.2281 37.611 23.1892C38.2641 23.0219 43.2787 28.8932 43.7249 29.8425C43.8283 30.0487 43.8283 30.1732 43.7928 30.2549C43.7249 30.3794 43.5179 30.4222 43.3822 30.3366C43.0039 30.1732 41.9046 28.3951 41.9402 27.9399C41.9402 27.6909 42.215 27.4458 42.2829 27.4458C42.3508 27.4847 42.4219 28.0216 42.3508 28.0644C42.2829 28.1072 41.9046 27.8154 41.9046 27.7337C41.9046 27.652 42.215 27.4847 42.3863 27.5703C42.797 27.7337 43.8962 29.5546 43.7928 29.967C43.7604 30.1732 43.5535 30.3366 43.3143 30.2977C42.3863 30.1732 37.3717 24.551 37.3717 23.6834C37.3717 23.4344 37.5431 23.2281 37.75 23.2281C38.2285 23.1892 39.5347 24.7183 40.5305 25.7105C41.8011 27.0295 44.4814 29.6363 44.6172 30.504C44.6528 30.753 44.5849 30.9981 44.4135 31.0409C43.8962 31.2043 40.6695 27.652 39.3278 26.1618C38.4031 25.1307 37.0969 23.8896 37.0613 23.3098C37.029 23.0647 37.1648 22.8157 37.3362 22.7729C37.7144 22.6484 38.8816 23.8079 39.7061 24.5938C40.7374 25.5004 42.215 27.1151 42.936 28.0644C43.3466 28.6441 43.8283 29.1811 43.8283 29.5546C43.8639 29.7608 43.7928 30.0059 43.657 30.0487C43.0039 30.2121 38.3675 25.2942 37.2683 24.0958C36.8577 23.6406 36.4438 23.3098 36.4794 23.0647C36.4794 22.8974 36.6831 22.734 36.89 22.734C37.6821 22.7729 41.1836 26.4925 41.9402 27.6092C42.2473 28.0216 42.5577 28.5196 42.4542 28.6441C42.1794 29.0138 35.7907 25.2942 35.5838 24.4265C35.5159 24.1775 35.6549 23.9324 35.8263 23.8468C36.308 23.6017 38.332 24.9245 39.5024 25.7494C40.6695 26.617 42.797 28.3134 42.8325 28.9321C42.8325 29.1811 42.5221 29.3873 42.2829 29.4301C42.0081 29.469 41.6654 29.1383 41.2192 28.7687C40.2557 28.0216 37.4396 25.5004 37.2004 24.7183C37.1325 24.4693 37.2004 24.1775 37.3038 24.1386C37.4073 24.0569 37.7144 24.1775 37.8179 24.302C37.8858 24.4265 37.9214 24.6755 37.8858 24.7572C37.8179 24.8817 37.4752 24.8817 37.4752 24.8817Z" fill="white"/>
</mask>
<g mask="url(#mask22_40_11335)">
<path d="M34.2129 21.0804H46.0107V32.6945H34.2129V21.0804Z" fill="#1E1E1E"/>
</g>
</g>
<mask id="mask23_40_11335" style="mask-type:luminance" maskUnits="userSpaceOnUse" x="40" y="28" width="7" height="8">
<path d="M40.8732 28.3446H47V35.0951H40.8732V28.3446Z" fill="white"/>
</mask>
<g mask="url(#mask23_40_11335)">
<mask id="mask24_40_11335" style="mask-type:luminance" maskUnits="userSpaceOnUse" x="40" y="28" width="7" height="8">
<path d="M43.7247 29.7608C46.3371 28.3524 46.5764 28.5625 46.5764 28.7687C46.5764 29.3056 44.3778 30.9981 43.6924 31.3716C43.382 31.535 43.0393 31.6206 42.9359 31.535C42.868 31.4533 42.868 31.1226 42.9359 30.9981C43.0393 30.753 43.2786 30.6285 43.6213 30.4223C44.2744 29.967 46.6443 28.5197 46.9191 28.7687C47.0226 28.8504 47.0226 29.1383 46.9191 29.2628C46.6119 29.6752 44.1709 30.1305 43.7247 29.967C43.5534 29.9242 43.4176 29.7997 43.4499 29.6752C43.5178 29.3873 46.4729 28.4769 46.7122 28.7687C46.8156 28.8932 46.7833 29.2239 46.6119 29.4301C46.2337 29.8853 43.4176 30.6285 43.3141 30.4612C43.2786 30.3795 43.382 30.0915 43.5178 30.0915C43.8638 30.0487 45.8877 32.4066 45.8198 32.7762C45.7875 32.9007 45.5806 33.0252 45.3736 32.9435C44.7917 32.819 42.4897 30.4612 42.3183 29.7608C42.2472 29.469 42.3183 29.1383 42.4218 29.0994C42.7289 29.0138 45.0988 31.9903 45.0309 32.4066C44.9954 32.57 44.7205 32.6517 44.5169 32.57C44.103 32.3638 43.3141 29.6752 42.868 29.7997C42.2828 29.8853 42.0435 34.3481 41.5262 34.8033C41.3548 34.9667 41.0477 34.9667 40.9442 34.8033C40.7373 34.4726 41.7687 32.0759 42.2472 31.1226C42.5576 30.4223 43.0716 29.4301 43.3141 29.469C43.4499 29.469 43.5534 29.8425 43.5534 30.2122C43.5889 31.0837 42.7645 34.4726 42.2828 34.8422C42.1114 34.9667 41.801 34.885 41.7331 34.7605C41.5973 34.5115 41.9045 33.6439 42.0758 33.1069C42.2828 32.5272 42.5576 31.4533 42.8324 31.2899C42.9682 31.2471 43.2786 31.3716 43.3141 31.535C43.4176 31.8268 42.4897 32.8579 42.4897 33.1886C42.4897 33.3559 42.6966 33.5194 42.661 33.5622C42.6255 33.6049 42.147 33.2742 42.147 33.1886C42.1793 33.1069 42.5576 32.9435 42.6255 32.9824C42.6966 33.0641 42.5931 33.6049 42.522 33.6439C42.4218 33.6867 42.147 33.3559 42.147 33.2314C42.147 33.1069 42.522 32.9007 42.5931 32.9824C42.6966 33.0252 42.6966 33.4804 42.6255 33.5622C42.5576 33.6439 42.3507 33.6439 42.2472 33.5622C42.1114 33.4804 41.9724 33.1069 41.9724 32.819C42.0079 32.4066 42.522 31.4144 42.8324 31.2899C42.9682 31.2471 43.243 31.3288 43.3141 31.535C43.4855 31.9903 42.6255 34.4298 42.2828 34.8422C42.1793 35.0095 42.0435 35.0912 41.94 35.0484C41.8366 35.0095 41.7687 34.885 41.7331 34.6788C41.6652 33.9746 42.7289 29.9242 43.0393 29.8853C43.1428 29.8425 43.2786 30.0487 43.2786 30.255C43.3465 30.9592 41.5973 34.9667 41.219 35.0095C41.08 35.0484 40.9442 34.8033 40.9087 34.636C40.8408 34.3053 40.9766 33.7256 41.1156 33.1069C41.3225 32.0759 41.9045 29.3873 42.4218 29.0566C42.6966 28.8932 42.9682 29.0994 43.2786 29.3445C43.7247 29.6752 44.4134 30.9592 44.6882 31.535C44.8596 31.8658 45.0988 32.1576 45.0309 32.321C44.9954 32.4883 44.7561 32.6128 44.5169 32.57C43.9996 32.4455 42.3183 30.2978 42.2472 29.6752C42.2472 29.4301 42.3862 29.1383 42.5576 29.0994C42.9682 29.0138 44.3423 30.4223 44.8919 31.1226C45.3413 31.6595 45.8877 32.4883 45.8198 32.7762C45.7875 32.9007 45.5806 32.9824 45.4415 32.9824C45.2379 32.9824 44.963 32.7373 44.6527 32.4455C44.1709 31.9514 42.6966 30.6285 42.8324 30.0487C43.0037 29.3056 46.0623 28.3524 46.5085 28.6442C46.7122 28.7687 46.7833 29.1383 46.6798 29.3445C46.5085 29.7608 45.0988 30.0487 44.5169 30.2122C44.103 30.2978 43.7926 30.4223 43.5178 30.3795C43.3141 30.2978 43.0393 30.1305 43.0037 29.967C42.9682 29.7997 43.2107 29.5118 43.4855 29.3056C43.9317 28.9749 45.0988 28.6831 45.7519 28.6014C46.1981 28.5625 46.8156 28.5625 46.9191 28.7687C46.987 28.9321 46.8868 29.2239 46.7122 29.469C46.2337 30.0487 43.6213 31.7841 43.3141 31.5778C43.1751 31.4533 43.243 31.0409 43.382 30.753C43.7247 30.0915 45.5127 28.3524 46.0623 28.3524C46.3016 28.3952 46.5764 28.6831 46.5764 28.8932C46.5408 29.2628 44.963 30.2978 44.3778 30.4612C44.0351 30.5857 43.5534 30.5429 43.4855 30.3795C43.4176 30.255 43.7247 29.7608 43.7247 29.7608Z" fill="white"/>
</mask>
<g mask="url(#mask24_40_11335)">
<path d="M39.5345 26.6598H48.3384V36.702H39.5345V26.6598Z" fill="#1E1E1E"/>
</g>
</g>
</svg>
