<svg width="38" height="59" viewBox="0 0 38 59" fill="none" xmlns="http://www.w3.org/2000/svg">
<mask id="mask0_40_10453" style="mask-type:luminance" maskUnits="userSpaceOnUse" x="2" y="0" width="34" height="49">
<path d="M2.25391 0.74707H35.009V48.962H2.25391V0.74707Z" fill="white"/>
</mask>
<g mask="url(#mask0_40_10453)">
<mask id="mask1_40_10453" style="mask-type:luminance" maskUnits="userSpaceOnUse" x="2" y="0" width="33" height="49">
<path d="M17.7052 33.2704C17.9994 33.7256 18.5393 33.1731 18.8626 32.8502C19.186 32.5272 19.5869 32.107 19.7485 31.6829C19.9102 31.3288 19.991 30.8075 19.8843 30.5157C19.7776 30.2277 19.506 30.0332 19.2118 29.9009C18.8077 29.7414 18.0802 29.7725 17.6244 29.8698C17.301 29.9359 17.0844 29.9671 16.7352 30.2277C16.0886 30.7102 14.9053 32.072 14.2586 33.0136C13.7187 33.8229 13.2887 34.7294 13.0203 35.5076C12.8037 36.0562 12.7229 36.5114 12.6421 37.0289C12.5612 37.5814 12.5063 38.165 12.5612 38.6825C12.6162 39.1688 12.7229 39.6552 12.9104 40.0754C13.1012 40.4956 13.3146 40.8224 13.6637 41.1454C14.2037 41.5967 15.3062 42.1803 15.9819 42.3126C16.4927 42.441 16.8969 42.3749 17.3269 42.2465C17.786 42.1181 18.1869 41.9547 18.6719 41.5344C19.3735 40.9197 20.3693 39.6863 20.961 38.5852C21.5268 37.4841 21.8759 35.9939 22.0926 34.9551C22.2284 34.2742 22.2542 33.854 22.2542 33.1731C22.2284 32.3327 22.2284 30.9398 21.8759 30.2589C21.5817 29.7414 21.0968 29.3523 20.5859 29.1889C19.9393 28.9944 18.8885 29.2862 18.1869 29.578C17.6244 29.8037 17.2719 30.0955 16.7061 30.5507C15.8461 31.2627 14.3912 32.6867 13.6928 33.6594C13.2337 34.3092 12.9395 34.8267 12.7229 35.4765C12.5063 36.1223 12.3446 36.8343 12.3187 37.5503C12.2929 38.2273 12.3996 39.0404 12.5871 39.6863C12.7488 40.3011 12.9912 40.9508 13.3437 41.371C13.6379 41.729 14.0162 41.9858 14.4203 42.083C14.8503 42.1803 15.3611 42.0208 15.8461 41.7912C16.4119 41.5656 17.0585 41.017 17.5953 40.4956C18.1869 39.947 18.8077 39.235 19.2668 38.5191C19.7227 37.8732 20.1268 37.1262 20.3952 36.4453C20.6376 35.7994 20.8543 35.1496 20.8801 34.5349C20.8801 34.0174 20.7993 33.4649 20.5859 33.0447C20.3952 32.6245 20.0718 32.2354 19.7227 32.0097C19.3476 31.7491 18.8626 31.6207 18.4035 31.6207C17.9186 31.6518 17.3819 31.8775 16.8678 32.1381C16.3311 32.4611 15.7394 32.9474 15.2803 33.4649C14.8244 33.9824 14.4203 34.6321 14.1228 35.2469C13.8545 35.7683 13.5312 36.383 13.557 36.8694C13.612 37.3207 13.9062 37.9705 14.2586 38.0989C14.7695 38.3245 15.872 37.6786 16.5445 37.2234C17.1394 36.8343 17.5953 36.3169 18.0544 35.671C18.6202 34.8267 19.616 33.3054 19.561 32.5272C19.506 32.0409 19.131 31.5234 18.7818 31.3911C18.3486 31.2316 17.5435 31.6207 17.1652 31.9436C16.8678 32.2004 16.7352 32.5895 16.5445 33.0136C16.357 33.4999 16.1953 34.1458 16.1436 34.6983C16.0886 35.1496 16.0078 35.7332 16.1694 36.0251C16.3052 36.2857 16.6803 36.4803 16.9228 36.4453C17.2202 36.4141 17.4627 36.1535 17.7569 35.8305C18.3227 35.2469 19.3994 33.7567 19.8035 32.9163C20.046 32.3949 20.1818 31.9747 20.2076 31.4884C20.2335 30.9709 20.1009 30.4534 19.9102 29.9359C19.7227 29.3834 19.4252 28.7687 19.076 28.3135C18.701 27.8621 18.2419 27.438 17.7569 27.2785C17.2719 27.084 16.6803 27.1151 16.1436 27.2435C15.4969 27.4069 14.7953 27.796 14.1487 28.2162C13.4245 28.6714 12.6421 29.3173 11.9696 29.9671C11.2971 30.6129 10.6504 31.3911 10.1105 32.1381C9.59967 32.819 9.1147 33.5972 8.79138 34.3092C8.49716 34.8928 8.22558 35.5076 8.17385 36.0562C8.14475 36.4803 8.22558 36.9005 8.36137 37.2234C8.49716 37.4841 8.73965 37.7098 9.008 37.8382C9.27635 37.9705 9.65463 38.0016 10.0297 37.9705C10.5147 37.8732 11.0546 37.6125 11.5654 37.2896C12.183 36.9005 12.7779 36.4141 13.4504 35.671C14.5011 34.601 16.1694 32.4611 16.9228 31.1966C17.4077 30.3873 17.6502 29.7414 17.8927 29.0605C18.0802 28.4458 18.3777 27.7298 18.2419 27.2785C18.1352 26.9206 17.731 26.5665 17.4077 26.5004C17.0585 26.4342 16.7061 26.6949 16.1953 27.0178C15.3062 27.5703 13.557 28.9632 12.6421 29.9671C11.9696 30.7102 11.5105 31.3911 11.1063 32.2354C10.7022 33.0447 10.3821 33.9824 10.1913 34.8928C10.0038 35.7332 9.84215 36.6748 9.86802 37.4841C9.92298 38.1961 10.0297 38.9081 10.3013 39.4256C10.5147 39.8497 10.8638 40.2038 11.2421 40.3672C11.6463 40.5617 12.183 40.5306 12.697 40.3983C13.3146 40.2388 13.9871 39.7525 14.6628 39.235C15.442 38.6514 16.3052 37.807 17.0844 36.9666C17.8668 36.0912 18.701 35.0524 19.3735 34.0797C20.0201 33.142 20.6376 32.1693 21.0418 31.2316C21.391 30.4184 21.7434 29.5118 21.7951 28.7687C21.8242 28.1539 21.7434 27.5353 21.5009 27.1151C21.2843 26.6949 20.8284 26.4031 20.3693 26.2747C19.8585 26.1113 19.1569 26.1774 18.5102 26.372C17.786 26.6287 16.9777 27.1812 16.2503 27.7649C15.442 28.4107 14.6078 29.22 13.9353 30.0955C13.2337 30.9709 12.5871 31.9747 12.0763 32.9786C11.5913 33.9824 11.2162 35.0524 10.9738 36.0912C10.7313 37.0289 10.5405 38.0016 10.5696 38.9081C10.5696 39.6863 10.6763 40.5306 10.9188 41.1454C11.1354 41.694 11.4587 42.2153 11.8629 42.5071C12.2929 42.8301 12.8296 42.9585 13.3695 42.9585C13.9871 42.9896 14.6886 42.7639 15.3611 42.441C16.1436 42.083 16.9777 41.4994 17.7569 40.8536C18.5911 40.1415 19.3994 39.235 20.1268 38.2934C20.8284 37.3868 21.4718 36.383 21.9859 35.3792C22.4417 34.5037 22.9009 33.5622 23.0884 32.6867C23.2759 31.9436 23.3567 31.1654 23.2242 30.4845C23.1142 29.8698 22.7651 29.22 22.3609 28.7337C21.9568 28.2162 21.3101 27.796 20.6926 27.5703C20.046 27.3408 19.2927 27.2435 18.5652 27.3408C17.8119 27.438 17.0036 27.796 16.2503 28.2162C15.4678 28.6714 14.6628 29.3173 13.9612 29.9671C13.2337 30.648 12.5612 31.3911 12.0213 32.2004C11.5105 32.9474 11.0805 33.7567 10.783 34.566C10.5147 35.3442 10.353 36.1223 10.3271 36.9005C10.3013 37.6436 10.4338 38.4568 10.6504 39.1688C10.8929 39.8809 11.268 40.5929 11.7012 41.1454C12.1312 41.729 12.6679 42.3126 13.2337 42.6044C13.7995 42.8962 14.4203 43.0246 15.0378 42.9274C15.7394 42.8301 16.4927 42.441 17.1911 41.9547C18.0253 41.371 18.8626 40.4333 19.6418 39.5229C20.476 38.5541 21.3392 37.3868 22.0376 36.2507C22.7101 35.2158 23.3858 34.1147 23.8417 33.0136C24.2458 32.072 24.6241 31.1343 24.7308 30.1927C24.8116 29.3173 24.7308 28.4458 24.4883 27.6326C24.2717 26.7922 23.8417 25.9479 23.3309 25.267C22.7909 24.6211 22.0667 24.0063 21.3101 23.6795C20.5859 23.3566 19.7485 23.2904 18.9435 23.3566C18.0802 23.4227 17.1652 23.7768 16.3052 24.2009C15.387 24.6522 14.472 25.3331 13.612 26.0451C12.7488 26.761 11.9146 27.6015 11.1871 28.4769C10.4888 29.2862 9.84215 30.1616 9.35718 31.1343C8.87221 32.072 8.49716 33.142 8.25468 34.2431C7.98309 35.3442 7.82144 36.6087 7.82144 37.7759C7.79557 38.9743 7.90226 40.2388 8.14475 41.3399C8.36137 42.3437 8.71055 43.3787 9.19552 44.0596C9.62553 44.6782 10.2463 45.1607 10.838 45.3902C11.4587 45.647 12.1312 45.6159 12.8296 45.4875C13.612 45.3241 14.4462 44.8689 15.2545 44.3864C16.1436 43.8028 17.1103 42.9896 17.9735 42.1803C18.8885 41.3399 19.8294 40.3361 20.6376 39.3634C21.391 38.4568 22.1475 37.5152 22.6842 36.5425C23.1951 35.671 23.6283 34.7956 23.8967 33.889C24.1101 33.0447 24.2717 32.107 24.1909 31.2316C24.1392 30.3873 23.9225 29.5118 23.5734 28.7998C23.2242 28.0878 22.6584 27.4731 22.0926 26.9867C21.5009 26.5004 20.7734 26.1424 20.0718 25.9167C19.3476 25.6911 18.5393 25.5938 17.786 25.6249C17.0036 25.656 16.1694 25.8195 15.442 26.1424C14.6886 26.4692 13.9871 27.049 13.3437 27.6326C12.697 28.2162 12.0763 28.9632 11.5396 29.7064C10.9738 30.4534 10.4888 31.2938 10.0588 32.1693C9.65463 33.0136 9.25049 33.9513 9.008 34.924C8.76552 35.9278 8.62972 36.9978 8.62972 38.0989C8.65882 39.235 8.84634 40.4956 9.14056 41.5967C9.43801 42.7017 9.84215 43.9001 10.408 44.7716C10.9188 45.6159 11.5654 46.3629 12.2638 46.7831C12.9395 47.2034 13.7446 47.429 14.527 47.429C15.3611 47.429 16.2503 47.1061 17.1103 46.717C18.0253 46.2657 18.9693 45.5186 19.8294 44.7405C20.7476 43.865 21.6335 42.7639 22.4159 41.6628C23.1951 40.5617 23.9484 39.2972 24.5433 38.0989C25.0541 36.9316 25.51 35.7332 25.7816 34.601C26.0241 33.5622 26.2116 32.5272 26.1308 31.5545C26.0758 30.6791 25.8624 29.8036 25.5391 29.0916C25.1899 28.3485 24.6759 27.6987 24.1101 27.2124C23.5475 26.6949 22.82 26.3058 22.1184 26.0451C21.4201 25.7883 20.6376 25.6249 19.9102 25.656C19.1569 25.7222 18.4035 25.9479 17.7052 26.3058C16.9486 26.6949 16.1953 27.3408 15.5487 27.9905C14.9311 28.6364 14.3395 29.3523 13.9062 30.1305C13.5021 30.8425 13.182 31.6207 12.9654 32.4922C12.7229 33.4026 12.6162 34.4376 12.6162 35.4414C12.6421 36.5114 12.8296 37.7098 13.0721 38.7798C13.3437 39.8497 13.7187 40.9508 14.1778 41.8263C14.6078 42.6355 15.1445 43.4137 15.7394 43.865C16.3311 44.3203 17.0295 44.5809 17.731 44.6432C18.4585 44.7093 19.2927 44.4837 20.1009 44.1919C20.961 43.8339 21.8759 43.2503 22.7101 42.6044C23.5992 41.9547 24.5142 41.0481 25.2708 40.2038C25.9691 39.4256 26.6416 38.6163 27.1524 37.7759C27.6374 36.9978 28.0416 36.2196 28.339 35.3792C28.6332 34.5349 28.9048 33.5972 28.9565 32.6867C29.0115 31.7802 28.9307 30.8075 28.7432 29.9671C28.5524 29.1578 28.2323 28.4107 27.7991 27.7649C27.3949 27.1151 26.7774 26.5004 26.1857 26.0801C25.565 25.6249 24.8666 25.267 24.1909 25.1386C23.5184 25.0102 22.7909 25.0413 22.0926 25.2047C21.391 25.3993 20.6667 25.8195 19.991 26.2747C19.2668 26.761 18.646 27.3408 17.8927 28.1189C16.8419 29.1578 15.3611 30.8736 14.472 32.1381C13.7995 33.1108 13.3954 34.5349 12.8846 34.8578C12.5871 35.0524 12.2638 35.1185 12.0213 34.8578C11.4038 34.2431 11.7012 30.648 11.1063 28.508C10.408 26.0801 8.84635 23.7145 7.85053 21.1544C6.79976 18.497 5.88478 14.8357 4.9407 12.828C4.37813 11.5947 3.27239 10.7192 3.27239 10.0072C3.24653 9.61813 3.51488 9.00338 3.78323 9.00338C4.64648 9.00338 8.09302 16.5515 9.35718 19.5358C10.1913 21.5435 10.6504 23.2904 11.0546 24.8468C11.3488 26.0451 11.5913 28.0878 11.6721 28.0567C11.8887 28.0217 11.2421 18.139 10.9188 14.1548C10.6763 11.1744 9.78719 7.54432 10.0588 6.34595C10.1655 5.95687 10.3271 5.70008 10.5405 5.63394C10.7571 5.56779 11.0805 5.70008 11.3229 6.08916C12.2638 7.54432 13.182 16.6488 13.5829 20.668C13.8545 23.52 14.1778 26.8233 13.9062 27.9594C13.7995 28.3485 13.6379 28.5742 13.4504 28.6714C13.2887 28.7687 12.9912 28.7026 12.8587 28.5742C12.697 28.4458 12.6679 28.2823 12.5871 27.8933C12.2121 25.9829 12.6679 14.4777 12.5354 9.87881C12.4545 6.99572 11.782 3.94921 12.183 2.87924C12.3187 2.45903 12.6421 2.19835 12.8846 2.23337C13.1012 2.23337 13.3437 2.52518 13.5021 2.97651C14.042 4.43557 13.5312 10.0733 13.8254 13.6062C14.097 17.1702 14.6628 22.2244 15.1995 24.2631C15.4161 25.1386 15.9528 25.5588 15.9269 26.0451C15.9011 26.372 15.6036 26.8233 15.387 26.8544C15.1736 26.9206 14.7145 26.6287 14.6337 26.3058C14.5011 25.7883 15.3353 24.4927 15.5487 23.5511C15.7912 22.6446 15.8203 22.1271 16.0336 20.7653C16.5445 17.2324 17.731 3.49399 18.5652 1.55248C18.7269 1.13227 18.8885 0.937727 19.076 0.90271C19.2927 0.90271 19.6677 1.06612 19.8294 1.45521C20.3952 3.01153 18.1869 11.2406 17.7569 15.6139C17.4077 19.4035 17.8668 24.9129 17.2461 26.2085C17.0295 26.6287 16.7352 26.8233 16.5186 26.7922C16.3052 26.761 16.0627 26.4342 15.9528 25.9829C15.6295 24.6522 16.6544 19.6292 16.7611 17.2013C16.8678 15.5166 16.8969 14.3494 16.8419 12.8592C16.7611 11.2717 16.6253 8.03067 16.357 7.99955C16.1694 7.96842 15.872 9.10065 15.6845 9.90994C15.3611 11.0772 15.1445 12.5674 14.9053 14.5128C14.4462 17.7538 13.9871 24.6211 13.557 27.6326C13.3146 29.255 13.2887 30.9398 12.8296 31.36C12.6162 31.5545 12.2379 31.4884 11.9954 31.3288C11.6463 31.0682 11.4038 30.4534 11.1063 29.578C10.3013 27.3096 9.08883 19.209 8.4422 16.7461C8.17385 15.7423 8.09302 15.2559 7.79557 14.6412C7.52722 14.0264 6.85472 13.5089 6.79976 13.0537C6.7448 12.7308 6.85472 12.3417 7.04225 12.1783C7.22977 12.0499 7.65978 12.0188 7.90226 12.2755C8.65882 13.1821 8.4422 19.0144 9.008 22.3216C9.54471 25.6249 11.3779 30.7102 11.2162 32.1381C11.1871 32.5583 11.0255 32.784 10.8638 32.8813C10.6504 32.9786 10.3821 32.9163 10.0297 32.5895C8.60386 31.1966 2.86825 17.9445 2.41237 16.0341C2.33154 15.645 2.27658 15.5166 2.38327 15.3221C2.4641 15.0964 2.78742 14.8668 3.00404 14.8668C3.1657 14.8668 3.37909 14.9991 3.48901 15.2248C3.7315 15.6139 3.59571 16.5204 3.81233 17.427C4.18737 19.0494 5.05062 21.8003 5.96561 24.0686C7.01638 26.6287 9.70636 30.5818 9.92298 31.8463C9.97795 32.2004 9.94885 32.3949 9.84215 32.5583C9.76133 32.7529 9.49297 32.9163 9.30222 32.9163C9.1147 32.9163 8.90131 32.819 8.76552 32.5895C8.49716 32.107 8.73965 31.0682 8.57799 29.7064C8.14475 26.2085 5.18318 13.3144 5.31898 11.1433C5.34484 10.6881 5.42567 10.4936 5.58733 10.334C5.72312 10.2017 5.99147 10.1706 6.15313 10.2368C6.31479 10.299 6.36975 10.3652 6.50231 10.5908C7.12308 11.6608 8.71055 17.9445 9.70636 20.5708C10.408 22.3527 11.6721 24.0686 11.6721 24.979C11.6721 25.3993 11.4846 25.8195 11.268 25.9167C11.0805 26.014 10.6213 25.8506 10.4629 25.5276C10.1913 24.979 10.783 23.2904 10.838 22.0921C10.8929 20.7964 10.8638 19.6953 10.7571 18.1079C10.6213 15.68 10.4888 10.1706 9.89712 9.00338C9.6805 8.6143 9.22139 8.71157 9.16966 8.4859C9.14056 8.26023 9.38305 7.80501 9.5447 7.70774C9.76133 7.61047 10.1655 7.70774 10.3821 8.03067C10.838 8.74658 10.5696 11.7581 10.783 13.4117C10.9738 14.8357 11.1871 15.8395 11.5396 17.2986C12.0213 19.2751 12.9654 22.5784 13.5829 24.1036C13.9353 24.9129 14.1487 25.656 14.527 25.8506C14.8503 26.014 15.3062 25.8506 15.5778 25.5938C15.9269 25.267 16.0627 24.6211 16.3311 23.8429C16.8161 22.4189 17.4627 19.9871 18.0253 17.6565C18.7527 14.575 19.4802 8.22521 20.1818 6.92958C20.3693 6.54049 20.531 6.38097 20.7476 6.34595C20.9092 6.31483 21.1776 6.47824 21.2843 6.63776C21.4201 6.80118 21.4201 6.96459 21.4201 7.34978C21.3651 8.83996 19.3185 14.9641 18.701 18.2713C18.1869 20.9598 18.1352 24.59 17.6761 25.656C17.5144 26.0451 17.3528 26.2397 17.1652 26.3058C17.0036 26.372 16.7352 26.2397 16.5994 26.1113C16.4636 25.9479 16.3861 25.7222 16.4119 25.4304C16.4636 24.8156 17.2719 23.8741 17.7569 22.7418C18.5393 20.8314 19.6677 17.5593 20.3434 15.0302C20.9868 12.6958 21.6076 9.81267 21.7951 8.12794C21.905 7.19026 21.6076 6.38097 21.8242 5.92575C21.9859 5.63394 22.39 5.40827 22.6034 5.47052C22.7909 5.53667 23.0334 5.92575 23.0625 6.34595C23.1142 7.15524 22.1184 8.6143 21.5817 10.1395C20.8284 12.4078 19.7485 15.8395 19.186 18.5631C18.646 20.991 18.7269 24.979 18.1352 25.656C17.9186 25.8856 17.5694 25.8506 17.4077 25.7222C17.2461 25.5938 17.0585 25.2047 17.0844 24.944C17.1394 24.59 17.7052 24.4577 18.0253 23.9091C18.6719 22.8391 19.3735 20.6369 20.1527 18.2713C21.4459 14.4466 23.68 4.46669 24.5142 2.94539C24.6759 2.62245 24.7567 2.52518 24.9474 2.45903C25.1091 2.39289 25.3774 2.45903 25.51 2.62245C25.6458 2.78197 25.7008 2.97651 25.7008 3.46286C25.6199 5.79735 20.531 21.2205 19.3994 24.8156C19.0243 26.014 18.9144 26.8233 18.5911 27.2124C18.4294 27.438 18.216 27.5353 18.0544 27.5353C17.8668 27.5353 17.6244 27.3408 17.5435 27.1812C17.4336 26.9867 17.4336 26.8544 17.4886 26.4692C17.8119 24.5238 23.4925 10.5908 24.8375 9.32631C25.1091 9.06952 25.3516 9.06952 25.5391 9.13177C25.7008 9.19792 25.8624 9.39246 25.9142 9.65314C26.0499 10.1706 25.7816 10.9799 25.5908 12.1472C25.0541 15.1275 23.0075 26.0801 22.1734 27.7298C21.9859 28.1189 21.8242 28.2823 21.6335 28.3135C21.4718 28.3485 21.2034 28.2162 21.0968 28.0878C20.9868 27.9244 20.9092 27.7649 20.961 27.4069C21.1226 25.3331 27.424 9.65314 28.8757 7.99955C29.199 7.64159 29.4706 7.54432 29.6581 7.64159C29.8457 7.70774 30.0623 8.06569 30.0623 8.51703C30.0623 9.87881 27.4499 13.7346 26.2116 16.7811C24.7858 20.2789 23.1142 27.1812 22.1184 28.4769C21.8501 28.8309 21.5817 28.9632 21.3651 28.8971C21.1776 28.866 20.9868 28.6053 20.9351 28.4107C20.8801 28.2512 20.8801 28.1851 20.9351 27.8933C21.3101 26.0451 26.7774 10.7542 28.2582 9.4586C28.6074 9.16679 28.9307 9.19792 29.1182 9.32631C29.2799 9.4586 29.4157 9.78154 29.3898 10.1706C29.309 10.9799 27.9607 12.6958 27.3949 14.0575C26.8324 15.3882 26.4282 16.4543 25.9433 18.174C25.1608 20.8626 24.0583 27.6676 23.5184 28.7026C23.3858 28.9632 23.305 29.0255 23.1692 29.0605C23.0075 29.1228 22.7392 29.0916 22.6034 28.9632C22.4417 28.8309 22.3092 28.543 22.3609 28.1851C22.4676 27.1462 24.3816 24.8156 25.4841 22.6134C27.0199 19.5358 29.3898 12.5362 30.4923 11.369C30.8156 11.0461 31.084 10.9138 31.2747 10.9799C31.4881 11.0772 31.7047 11.4351 31.7047 11.8865C31.7047 13.7035 27.2074 21.4112 25.7525 24.7845C24.8375 26.9517 23.6542 29.3523 23.5992 30.1616C23.5734 30.3561 23.735 30.4534 23.68 30.5507C23.6283 30.7452 23.2759 31.002 23.0625 31.002C22.9009 31.002 22.6584 30.8075 22.5775 30.648C22.4967 30.4534 22.4676 30.29 22.5484 29.9359C22.82 28.5742 25.7266 23.4227 27.3432 20.3762C28.8499 17.462 31.0581 12.8592 31.8922 11.9526C32.1089 11.6919 32.2156 11.6297 32.3772 11.6297C32.5647 11.6297 32.8072 11.7581 32.8881 11.9215C32.9948 12.116 32.9948 12.4078 32.9139 12.7619C32.6747 13.6373 31.3264 15.0964 30.4373 16.8784C28.9565 19.6953 26.5091 27.2785 25.4292 28.4769C25.1091 28.7998 24.8375 28.8971 24.65 28.866C24.4883 28.8309 24.3525 28.6714 24.3008 28.508C24.22 28.3135 24.1909 27.9905 24.3008 27.796C24.4075 27.5353 24.705 27.5703 25.0283 27.1812C26.3183 25.6911 31.3264 15.3882 32.5938 14.221C32.8881 13.9603 33.1047 13.8319 33.2922 13.9291C33.4797 13.9953 33.7513 14.3805 33.7513 14.7696C33.7772 15.5827 32.6197 16.8784 31.7565 18.6915C29.9265 22.5784 25.1091 35.7332 23.6542 37.2584C23.3567 37.6125 23.0884 37.7098 22.9009 37.6125C22.7101 37.5152 22.5226 37.095 22.5775 36.5776C22.7909 34.4376 29.8457 22.2555 31.3523 21.0571C31.7047 20.7653 31.9989 20.6992 32.1606 20.8314C32.3514 20.9598 32.4839 21.3178 32.4322 21.8003C32.2705 23.9091 25.9691 37.1612 24.6241 37.7759C24.3267 37.9043 24.0583 37.6786 23.9484 37.4841C23.8158 37.3207 23.79 36.9316 23.8967 36.6398C24.0583 36.1223 24.6759 35.8967 25.2966 35.0212C26.9908 32.5583 32.3772 21.026 33.7222 19.7265C34.0197 19.4385 34.2072 19.3724 34.3947 19.4035C34.5855 19.4697 34.773 19.6953 34.8538 19.8899C34.9088 20.0844 34.8797 20.2789 34.773 20.6019C34.4238 21.6719 32.3514 24.59 31.1648 26.761C29.9006 29.0605 28.4198 32.3638 27.4758 34.1147C26.9391 35.0874 26.6416 35.8305 26.1566 36.348C25.7525 36.8032 25.135 37.3207 24.8116 37.2896C24.6241 37.2584 24.5142 37.095 24.3816 36.8032C23.9225 35.8616 23.7091 32.1381 23.25 29.7725C22.7651 27.3408 22.1475 24.6211 21.6076 22.4811C21.1776 20.7964 20.6667 18.7576 20.2885 17.9133C20.1268 17.5593 19.8585 17.4931 19.8294 17.2013C19.8035 16.9406 19.9393 16.4232 20.1268 16.2597C20.2626 16.1313 20.5568 16.1625 20.7185 16.2597C20.8543 16.3259 20.9868 16.4543 21.0159 16.6488C21.0677 17.0068 20.7185 17.427 20.5568 18.2051C20.1009 20.3101 19.4252 28.2823 19.0243 30.4845C18.8626 31.36 18.8077 31.8463 18.5652 32.2354C18.4294 32.5272 18.1869 32.784 17.9735 32.8502C17.786 32.9163 17.5435 32.9163 17.3819 32.7529C17.0844 32.4611 16.9228 31.5234 16.7611 30.7452C16.5736 29.7725 16.5186 28.7998 16.357 27.3408C16.1145 24.6522 15.872 18.3335 15.5778 16.0341C15.442 14.9991 15.0637 14.3805 15.1445 13.8319C15.1995 13.4428 15.387 13.0226 15.6036 12.9564C15.8203 12.8592 16.1694 12.9876 16.3861 13.3766C17.1394 14.7073 17.3819 24.5238 16.8969 26.2085C16.7611 26.6638 16.5445 26.9206 16.3311 26.9867C16.1436 27.0178 15.872 26.8544 15.7653 26.726C15.6586 26.5976 15.6586 26.5004 15.6036 26.2085C15.2545 24.3293 13.9062 7.09299 14.7953 5.27598C14.9829 4.89079 15.3611 4.79352 15.5487 4.85577C15.7394 4.89079 15.9269 5.1826 16.0078 5.53667C16.1953 6.21756 15.7394 7.5132 15.6845 9.0345C15.6036 11.8553 16.2244 19.5981 15.9528 21.0571C15.872 21.4112 15.8203 21.5746 15.6845 21.6719C15.5487 21.8003 15.2803 21.8664 15.1187 21.7691C14.957 21.703 14.7695 21.4773 14.7436 21.2828C14.6886 21.0571 14.7436 20.7342 14.8762 20.6019C14.9829 20.4424 15.2254 20.3101 15.4161 20.3451C15.5778 20.3762 15.7912 20.5708 15.872 20.7653C15.9528 20.9287 15.9528 21.2828 15.872 21.4462C15.7912 21.6407 15.5487 21.8353 15.387 21.8353C15.1736 21.8003 14.8762 21.5746 14.7145 21.1233C14.1228 19.5669 14.3104 11.8242 14.4203 8.97225C14.5011 7.3848 14.472 5.92575 14.7953 5.27598C14.957 4.98806 15.1995 4.82465 15.4161 4.82465C15.6036 4.82465 15.8203 5.01919 15.9819 5.34212C16.3861 6.15141 16.3311 8.41976 16.4378 10.657C16.6544 14.4466 17.1103 24.59 16.8969 26.2085C16.8419 26.5004 16.8419 26.5976 16.7352 26.726C16.5994 26.8544 16.3311 27.0178 16.1694 26.9867C15.9528 26.9206 15.7394 26.6638 15.6036 26.2085C15.0378 24.5549 14.6337 15.2248 15.1445 13.6373C15.2803 13.1821 15.5487 12.9564 15.7653 12.9253C15.9528 12.8903 16.1953 13.0226 16.3861 13.3766C17.1394 14.8046 17.1911 23.6173 17.6244 27.1151C17.8668 29.255 18.5911 31.4884 18.3777 32.3327C18.3227 32.6245 18.1352 32.784 17.9735 32.8502C17.8119 32.9163 17.5144 32.8813 17.3819 32.7529C17.2202 32.5895 17.0844 32.107 17.1394 31.9125C17.1911 31.7491 17.4336 31.7491 17.5435 31.5856C17.6761 31.2938 17.7052 30.9048 17.8119 30.2277C18.0802 28.4769 18.5393 22.808 19.0502 20.2478C19.3735 18.5942 19.6418 16.6177 20.1268 16.2597C20.3434 16.1002 20.6376 16.1975 20.8543 16.357C21.0968 16.5204 21.2034 16.8434 21.4201 17.3647C22.0117 18.7576 23.0075 22.6134 23.6542 25.6249C24.4075 29.0916 26.0241 35.8967 25.51 36.9978C25.3516 37.2896 24.9992 37.3207 24.8116 37.2896C24.65 37.2584 24.4334 36.9978 24.3816 36.8032C24.3267 36.6087 24.3525 36.3169 24.4625 36.0912C24.5692 35.8616 24.9183 35.7994 25.1608 35.5076C25.565 35.0212 25.8883 34.3403 26.4282 33.3365C27.6374 31.1654 30.5182 25.0724 31.9181 22.6134C32.6747 21.2828 33.3181 19.9871 33.8321 19.5981C34.0455 19.4035 34.2363 19.3724 34.3947 19.4035C34.5855 19.4697 34.773 19.6953 34.8538 19.8899C34.9088 20.0844 34.8797 20.2478 34.773 20.6019C34.2072 22.45 28.0416 33.4649 26.2375 35.9939C25.565 36.9316 25.08 37.6436 24.6241 37.7759C24.3816 37.8382 24.0583 37.6786 23.9484 37.4841C23.8158 37.3207 23.8158 37.0639 23.8967 36.6398C24.3008 34.601 29.9524 22.2555 31.3523 21.0571C31.6756 20.7653 31.9731 20.7653 32.1606 20.8314C32.3223 20.8937 32.4322 21.0882 32.458 21.2516C32.513 21.4462 32.4839 21.6057 32.3772 21.9637C31.7565 23.7768 24.8375 36.2196 23.5734 37.418C23.3309 37.6436 23.2242 37.6787 23.0625 37.6436C22.8718 37.6436 22.6584 37.453 22.5775 37.2584C22.4967 37.095 22.4967 36.9316 22.5775 36.5776C22.9817 34.566 28.824 21.8003 30.654 17.9445C31.514 16.1313 32.1089 14.5128 32.7005 14.0926C32.9689 13.898 33.2372 13.863 33.428 13.9953C33.5897 14.0926 33.7772 14.3494 33.7513 14.7696C33.6705 16.357 28.6332 24.1036 26.9908 26.4692C26.2116 27.6326 25.6199 28.6714 25.08 28.8309C24.8375 28.9282 24.5142 28.8309 24.3816 28.6364C24.2458 28.4769 24.2458 28.2162 24.3008 27.796C24.4883 26.4692 26.5091 22.3839 27.6374 19.8899C28.6882 17.5593 30.0073 14.6412 30.8964 13.2171C31.3523 12.5012 31.7565 11.8865 32.1089 11.6919C32.3223 11.5947 32.5389 11.6297 32.6747 11.6919C32.8072 11.7581 32.9139 11.9215 32.9689 12.081C33.0239 12.2755 33.0239 12.4078 32.9139 12.7619C32.3514 14.7384 24.8925 29.3523 23.5992 30.7102C23.3567 30.9709 23.25 31.002 23.0625 31.002C22.9009 31.002 22.6842 30.8075 22.5775 30.648C22.4676 30.4534 22.4676 30.2589 22.4676 29.9671C22.5226 29.4496 22.7909 28.866 23.1692 27.8933C24.1101 25.3993 27.3141 17.8161 28.7432 14.8046C29.5223 13.151 30.114 11.4974 30.6798 11.0772C30.9514 10.9138 31.2456 10.9488 31.4331 11.0772C31.5948 11.2056 31.7047 11.4663 31.7047 11.8865C31.5948 13.7657 26.4282 24.0063 24.9183 26.6949C24.3008 27.796 23.8708 28.543 23.4117 28.866C23.1692 29.0605 22.9009 29.1578 22.7392 29.0605C22.5484 28.9632 22.4159 28.6053 22.3609 28.1851C22.2542 27.1151 23.0334 24.3954 23.4376 22.5784C23.8417 20.8626 24.1909 19.3724 24.7858 17.5904C25.4841 15.4193 26.8841 11.8865 27.5566 10.5908C27.854 10.0422 28.0157 9.68427 28.2582 9.4586C28.4457 9.29519 28.6623 9.16679 28.824 9.19792C29.0115 9.22904 29.309 9.55587 29.3898 9.78154C29.4415 10.0072 29.3898 10.2017 29.254 10.657C28.6623 12.793 23.4667 26.8233 22.1184 28.4769C21.8242 28.8309 21.5817 28.9632 21.3651 28.8971C21.1776 28.866 20.9868 28.6053 20.9351 28.4107C20.8801 28.2512 20.8801 28.1851 20.9351 27.8933C21.2584 26.2085 25.2158 15.68 26.8033 12.081C27.6665 10.1395 28.3907 8.12794 29.0665 7.73886C29.3607 7.54432 29.7648 7.64159 29.9006 7.83613C30.0623 8.03068 30.0882 8.38863 29.9815 8.97225C29.6323 11.3028 24.9183 22.2244 23.3309 25.4304C22.6584 26.8233 22.0926 28.1539 21.6335 28.3135C21.4459 28.3796 21.2034 28.2162 21.0968 28.0878C20.9868 27.9244 20.961 27.7649 20.961 27.4069C20.961 25.4304 23.5992 10.6258 24.8375 9.32631C25.1091 9.0345 25.4841 9.06952 25.6717 9.19792C25.8333 9.36133 25.9142 9.68427 25.8624 10.2017C25.6458 12.439 19.7485 25.8506 18.5911 27.2124C18.3486 27.4731 18.216 27.5353 18.0544 27.5353C17.8668 27.5353 17.6244 27.3408 17.5435 27.1812C17.4336 26.9867 17.4336 26.8544 17.4886 26.4692C17.731 24.2009 23.0884 7.22139 24.1101 4.14376C24.3816 3.33447 24.3816 2.87924 24.6759 2.65357C24.8925 2.45903 25.3516 2.45903 25.51 2.62245C25.6717 2.75084 25.7008 3.01153 25.7008 3.46286C25.6458 5.40827 22.39 15.4504 21.3101 18.8549C20.7734 20.5708 20.531 21.5435 19.9652 22.7107C19.4543 23.8118 18.701 25.3331 18.1352 25.656C17.8377 25.8195 17.4886 25.7883 17.2719 25.6249C17.0295 25.3642 16.9486 24.7845 16.9486 24.1036C16.9228 22.773 17.5694 19.956 17.9735 18.1079C18.3486 16.4543 18.6719 15.2559 19.186 13.5712C19.8843 11.3028 21.0677 6.60664 21.905 5.76233C22.1993 5.47052 22.5226 5.40827 22.7392 5.53667C22.9817 5.70008 23.1433 6.24868 23.1951 6.80118C23.305 7.87115 22.8718 9.68427 22.4967 11.4351C21.9568 13.898 20.8543 17.8161 20.1268 20.0183C19.6968 21.4112 19.3476 22.3839 18.8885 23.4227C18.4844 24.3604 17.9444 25.5938 17.5694 26.014C17.3819 26.2085 17.1911 26.3369 17.0295 26.3058C16.8419 26.3058 16.5994 26.1113 16.4927 25.9479C16.4119 25.8195 16.4119 25.7222 16.4119 25.4304C16.3861 24.3604 16.9486 20.6369 17.4886 17.9133C18.1352 14.5439 19.3994 7.90228 20.2335 6.73503C20.4501 6.4121 20.6926 6.31483 20.9092 6.38097C21.0968 6.4121 21.3651 6.70391 21.4459 7.15524C21.7693 8.97225 19.4543 17.9795 18.4035 21.5435C17.731 23.7768 17.1103 25.8856 16.357 26.8233C15.9528 27.3408 15.5487 27.6015 15.0928 27.6015C14.6078 27.6015 13.9871 27.1812 13.557 26.726C13.1012 26.2085 12.8296 25.5588 12.4545 24.6522C11.8079 23.0336 10.838 19.6953 10.353 17.6565C9.97795 16.1313 9.73546 15.0302 9.5447 13.6062C9.33132 11.9837 9.008 9.39246 9.16966 8.4859C9.25049 8.09682 9.38305 7.83613 9.5447 7.70774C9.70636 7.61047 10.0038 7.67661 10.1655 7.77388C10.3013 7.83613 10.408 8.22522 10.4338 8.19409C10.4629 8.19409 10.3821 7.90228 10.3821 7.90228C10.408 7.87115 10.9447 9.00338 11.1613 9.90994C11.5654 11.6919 11.8629 15.7773 12.0213 18.0417C12.1312 19.6642 12.2121 20.9287 12.1312 22.1893C12.0504 23.3255 11.9146 24.7495 11.6721 25.3642C11.5654 25.656 11.4587 25.8195 11.268 25.9167C11.1063 25.9829 10.8638 25.9479 10.6763 25.8195C10.4629 25.656 10.3271 25.3642 10.1105 24.944C9.70636 24.1347 9.14056 22.7418 8.57799 21.1544C7.65978 18.6254 5.31898 12.6335 5.31898 11.1433C5.31898 10.7192 5.3998 10.4624 5.58733 10.334C5.74899 10.2017 6.12726 10.2017 6.31479 10.334C6.50231 10.4936 6.53141 10.7854 6.69307 11.369C7.3397 13.6685 9.49298 26.1774 9.84215 29.5469C9.97795 30.8075 10.1655 31.6518 9.94885 32.2004C9.84215 32.5895 9.5447 32.9163 9.30222 32.9163C8.9789 32.9163 8.60386 32.2004 8.14475 31.4884C7.28473 30.1305 5.77808 26.9517 4.834 24.6211C3.91902 22.3839 2.94908 19.5358 2.5999 17.8161C2.38328 16.7811 2.22162 15.7773 2.38327 15.3221C2.4641 15.0614 2.65486 14.9018 2.84238 14.8668C3.00404 14.8357 3.19156 14.9018 3.40818 15.0964C3.86406 15.4855 4.2973 16.6838 4.9698 18.0106C6.25982 20.668 9.5738 27.8933 10.5405 30.1927C10.8929 31.0993 11.2421 31.6518 11.2162 32.1381C11.2162 32.4611 11.0255 32.784 10.8638 32.8813C10.6504 32.9786 10.2722 32.8502 10.0297 32.5895C9.65463 32.1381 9.5738 31.0682 9.30222 29.8387C8.71055 27.2785 7.42052 21.1233 7.04225 17.9445C6.79976 15.8395 6.45058 13.5401 6.77389 12.6646C6.93555 12.2755 7.22977 12.0499 7.47226 12.0499C7.74061 12.0499 8.06392 12.3728 8.33551 12.7619C8.82048 13.4739 9.22139 14.8668 9.65463 16.392C10.3271 18.886 11.0546 23.9713 11.6204 26.4692C11.9437 27.9905 12.1571 29.3834 12.4804 30.0955C12.6679 30.4845 13.0462 30.648 13.0721 30.8736C13.0721 31.037 12.9654 31.2627 12.8296 31.36C12.697 31.4572 12.2929 31.5545 12.1312 31.4261C11.9437 31.2938 11.8629 31.0682 11.8079 30.648C11.5654 28.6714 13.1012 18.0767 13.6637 14.1898C13.9871 12.081 14.1487 10.5908 14.527 9.26406C14.8244 8.29136 15.0637 7.22139 15.5778 6.89845C15.9528 6.63776 16.6803 6.70391 17.0585 7.02685C17.4886 7.3848 17.6502 8.26023 17.8377 9.29519C18.1611 11.1083 18.0802 14.7384 18.0253 17.3297C17.9994 19.6953 17.8377 22.45 17.5953 24.1347C17.4627 25.1386 17.4336 26.2085 17.0844 26.5665C16.8678 26.761 16.4119 26.7922 16.2244 26.6638C16.0336 26.5004 16.0078 26.1774 15.9528 25.656C15.7394 23.6484 16.4636 15.5827 16.9777 11.2406C17.4077 7.64159 17.9186 2.52518 18.5911 1.35793C18.8077 1.035 19.0502 0.90271 19.2377 0.90271C19.4543 0.937727 19.6968 1.06612 19.8294 1.45521C20.476 3.49399 17.7569 20.4424 16.8161 24.0686C16.4927 25.302 16.1694 25.9479 15.872 26.4031C15.7103 26.6638 15.5778 26.8544 15.387 26.8544C15.0928 26.8894 14.6078 26.5004 14.3395 26.014C13.8804 25.2047 13.7995 23.5822 13.5312 21.8353C13.0721 18.8549 12.4545 13.2171 12.2379 9.75041C12.0763 7.15524 11.7529 3.94921 12.183 2.87924C12.3446 2.45903 12.6421 2.19835 12.8846 2.23337C13.1012 2.23337 13.3437 2.45903 13.5021 2.97651C14.3653 5.37325 13.9871 24.1036 13.9353 26.9867C13.9353 27.6015 13.9871 27.8271 13.8804 28.1539C13.7995 28.3796 13.6379 28.6053 13.4504 28.6714C13.2887 28.7337 12.9912 28.6714 12.8587 28.5742C12.7229 28.4769 12.6679 28.3796 12.5871 28.0878C12.3446 27.1462 12.5871 23.7145 12.3446 20.8937C11.9696 16.8434 9.59967 7.73886 10.0846 6.15141C10.2204 5.76233 10.4888 5.63394 10.7022 5.60281C10.8929 5.60281 11.1613 5.73121 11.3229 6.08916C11.8887 7.09299 11.9696 11.0772 12.183 14.0926C12.4804 17.9445 12.8846 25.267 12.8037 27.4069C12.7779 28.0878 12.8587 28.3485 12.6679 28.7337C12.4545 29.1578 11.8338 29.8036 11.4587 29.7725C11.0805 29.7064 10.7022 28.9944 10.4338 28.3796C10.1105 27.6015 10.1655 26.4692 9.89712 25.3331C9.51884 23.8429 9.05973 22.1582 8.25468 20.2789C7.09721 17.5243 3.7315 12.828 3.1366 10.6881C2.86825 9.75041 2.76155 8.71157 3.00404 8.4859C3.19156 8.29136 3.81233 8.6143 4.18737 9.00338C4.834 9.587 5.42567 10.8515 6.0723 12.2444C7.01638 14.3182 7.8764 17.7849 8.92717 20.4424C9.97795 23.0648 11.7529 26.3369 12.3446 28.0567C12.6421 28.8971 12.7229 29.2862 12.8587 30.0332C13.0203 30.9398 13.127 32.3327 13.127 33.1731C13.127 33.7917 13.2079 34.4376 12.9912 34.6983C12.8037 34.9551 12.3446 35.0524 12.1571 34.9551C11.9696 34.8928 11.8338 34.566 11.8079 34.3715C11.782 34.1769 11.8079 34.0797 11.9146 33.8229C12.2379 33.0136 13.8804 30.5818 15.1187 29.1228C16.4119 27.6015 18.216 25.8195 19.5351 24.9129C20.4501 24.2982 21.2034 23.9402 22.0667 23.7768C22.9009 23.5822 23.79 23.5822 24.595 23.7768C25.4292 23.9713 26.2666 24.4265 26.9649 24.979C27.6924 25.5276 28.3907 26.2747 28.8757 27.1151C29.3607 27.8933 29.739 28.8309 29.9265 29.8036C30.1431 30.8075 30.2239 31.9747 30.114 33.0447C30.0332 34.0797 29.739 35.1496 29.3898 36.1223C29.0374 37.0639 28.5815 37.9354 28.0416 38.7798C27.4758 39.6863 26.7774 40.5306 26.0241 41.3399C25.1899 42.2465 24.22 43.2192 23.25 43.9312C22.3092 44.6121 21.2843 45.2579 20.2626 45.6159C19.3185 45.9388 18.2968 46.1684 17.3819 46.005C16.5186 45.8766 15.6295 45.4875 14.9053 44.9039C14.1778 44.2891 13.5829 43.3787 13.0721 42.4099C12.5612 41.4022 12.1571 40.2038 11.8887 39.0054C11.6204 37.807 11.4296 36.4803 11.4296 35.2469C11.4296 34.0797 11.5913 32.8813 11.8629 31.8463C12.1312 30.8736 12.5354 29.9671 13.0203 29.1228C13.5312 28.2823 14.1778 27.4731 14.9053 26.7922C15.6295 26.0451 16.5186 25.3331 17.4077 24.9129C18.2419 24.4927 19.186 24.2631 20.046 24.232C20.9351 24.2009 21.8242 24.3954 22.6584 24.7495C23.4667 25.0724 24.3267 25.5588 24.9992 26.2397C25.6717 26.8894 26.2924 27.7298 26.6707 28.6364C27.0716 29.5469 27.2882 30.6791 27.3432 31.7179C27.3691 32.8502 27.1815 34.0174 26.8841 35.1496C26.5899 36.4141 26.1049 37.7098 25.51 38.9432C24.8925 40.2388 24.1101 41.5344 23.25 42.7017C22.4159 43.865 21.4459 45.0634 20.4501 45.9739C19.4802 46.8454 18.4294 47.6586 17.3819 48.1099C16.3861 48.5651 15.2803 48.8881 14.2845 48.8219C13.3437 48.7908 12.3446 48.4679 11.5105 47.9154C10.6763 47.3318 9.92298 46.4252 9.33132 45.4525C8.71055 44.4175 8.28054 43.1219 7.95723 41.8574C7.63391 40.5929 7.44639 39.1688 7.44639 37.9043C7.44639 36.6748 7.63391 35.4414 7.90226 34.3092C8.19972 33.2392 8.62972 32.2354 9.08883 31.2938C9.54471 30.3561 10.0846 29.4807 10.7022 28.6714C11.2971 27.8271 11.9954 27.0178 12.7488 26.372C13.5021 25.6911 14.3395 25.0724 15.1995 24.7184C16.0627 24.3604 17.0036 24.2009 17.9186 24.1659C18.7818 24.1659 19.7227 24.2982 20.5568 24.59C21.391 24.9129 22.2542 25.3642 22.9526 25.9829C23.6542 26.5976 24.3008 27.438 24.705 28.3135C25.1091 29.22 25.3516 30.3561 25.4033 31.3911C25.4292 32.4611 25.2417 33.5622 24.9474 34.566C24.65 35.6049 24.165 36.5425 23.5992 37.5152C23.0075 38.5191 22.2284 39.5229 21.4459 40.4645C20.5859 41.4683 19.616 42.5071 18.646 43.3787C17.7052 44.2541 16.6803 45.1296 15.6586 45.7443C14.7145 46.2968 13.7187 46.8143 12.7779 46.9427C11.9146 47.0399 10.9996 46.9777 10.2204 46.6197C9.43801 46.2657 8.68469 45.5498 8.14475 44.7405C7.57895 43.865 7.2039 42.6667 6.93555 41.4994C6.66397 40.3011 6.58314 38.877 6.61224 37.5814C6.6381 36.2507 6.82562 34.8928 7.14894 33.6594C7.44639 32.4611 7.8764 31.2627 8.41634 30.2277C8.95304 29.1578 9.6805 28.2512 10.408 27.3408C11.1871 26.4342 12.0763 25.5277 13.0203 24.7845C13.9612 24.0063 14.9829 23.2593 16.0078 22.773C17.0036 22.3216 18.0544 21.9637 19.076 21.9325C20.046 21.8664 21.0677 22.0298 21.9568 22.45C22.8459 22.9052 23.7091 23.6795 24.3525 24.5238C24.9474 25.3331 25.4292 26.4031 25.7008 27.438C25.9433 28.4458 25.995 29.6091 25.8624 30.648C25.7266 31.7491 25.2966 32.784 24.8666 33.8229C24.3525 34.9901 23.68 36.1223 22.9526 37.2234C22.1993 38.3907 21.3101 39.6202 20.4243 40.659C19.5351 41.6317 18.5911 42.6667 17.6244 43.3164C16.7352 43.865 15.7912 44.2891 14.9053 44.3514C14.097 44.4175 13.2628 44.1919 12.5612 43.7678C11.8338 43.3787 11.1871 42.6667 10.6763 41.9235C10.1655 41.2076 9.73546 40.3361 9.46388 39.4256C9.22139 38.5191 9.08883 37.5152 9.14056 36.5776C9.19552 35.636 9.43801 34.6983 9.76133 33.8229C10.0846 32.8813 10.5955 31.9747 11.1871 31.1654C11.782 30.29 12.5354 29.4496 13.3146 28.7337C14.097 28.0217 14.9829 27.3096 15.9011 26.8233C16.787 26.372 17.7569 25.9479 18.6719 25.8856C19.561 25.8195 20.5051 25.9479 21.2843 26.3058C22.0667 26.6638 22.8718 27.2435 23.3858 27.9594C23.8967 28.6714 24.2717 29.6091 24.4075 30.4845C24.5433 31.3911 24.4075 32.3638 24.1909 33.2704C23.9484 34.3092 23.4667 35.313 22.9526 36.2857C22.39 37.3557 21.6884 38.4218 20.9351 39.3945C20.1527 40.3672 19.2668 41.371 18.3486 42.1181C17.4627 42.8612 16.5186 43.511 15.6036 43.865C14.7695 44.223 13.8545 44.4487 13.0721 44.3864C12.3446 44.2891 11.5654 43.9973 11.0255 43.511C10.4888 43.0246 10.0297 42.2465 9.76133 41.4683C9.46388 40.659 9.35718 39.6202 9.35718 38.6825C9.38305 37.6436 9.5738 36.5425 9.86802 35.5076C10.1396 34.3715 10.5696 33.1731 11.1063 32.107C11.6721 31.002 12.3737 29.9009 13.1529 28.9632C13.9062 28.0217 14.7953 27.1462 15.7103 26.4692C16.5736 25.8195 17.5435 25.1697 18.4585 24.944C19.2927 24.7495 20.2335 24.7184 20.9351 25.0413C21.5817 25.302 22.2284 25.9167 22.5775 26.5976C22.9009 27.2785 23.0075 28.2823 22.9267 29.1578C22.8459 30.1305 22.4417 31.0993 22.0376 32.072C21.5817 33.1108 20.9351 34.1147 20.2626 35.0874C19.5351 36.1223 18.6719 37.1923 17.8119 38.0989C16.9777 39.0054 16.0627 39.912 15.1736 40.5617C14.3395 41.1454 13.4762 41.694 12.6679 41.8574C11.9437 41.9547 11.1613 41.8885 10.5696 41.5344C10.0038 41.2076 9.49298 40.5617 9.16966 39.8809C8.82048 39.1688 8.68469 38.1961 8.65882 37.3207C8.62972 36.348 8.82048 35.313 9.05973 34.3092C9.30222 33.3054 9.6805 32.2354 10.1396 31.2938C10.6213 30.3873 11.1063 29.6091 11.8629 28.7998C12.8846 27.6676 14.7436 26.1113 15.8461 25.5276C16.5445 25.1386 17.1652 24.9129 17.7052 25.0102C18.1869 25.0724 18.7269 25.3331 18.9952 25.7533C19.2927 26.1774 19.4252 26.9206 19.4252 27.5353C19.4252 28.2512 19.2118 28.9944 18.9693 29.7414C18.701 30.5507 18.4294 31.2316 17.8927 32.1381C17.0585 33.4999 15.3062 35.7683 14.1778 36.9316C13.3954 37.7409 12.7229 38.2934 11.9696 38.7136C11.2971 39.1377 10.5405 39.4606 9.86802 39.4918C9.27635 39.4918 8.65882 39.3322 8.19971 38.9743C7.7697 38.6825 7.39143 38.13 7.2039 37.5814C6.98728 36.9978 6.96142 36.2507 7.04225 35.5737C7.14894 34.8578 7.47226 34.1458 7.79557 33.4338C8.17385 32.6556 8.71055 31.8463 9.25049 31.0682C9.84215 30.2589 10.5405 29.4496 11.2971 28.7337C12.0213 28.0217 12.8587 27.3408 13.6928 26.8233C14.5011 26.3369 15.3353 25.9167 16.1436 25.7883C16.8969 25.656 17.7052 25.7222 18.3777 26.014C19.0243 26.2747 19.6418 26.8544 20.1009 27.4731C20.5859 28.0878 20.961 28.8971 21.1776 29.6441C21.3651 30.3561 21.5009 31.1654 21.4459 31.8775C21.391 32.5583 21.1485 33.1731 20.8801 33.7917C20.6118 34.4376 20.2335 35.1496 19.8035 35.7332C19.3994 36.348 18.8885 36.9666 18.3777 37.3557C17.8927 37.7098 17.301 38.0327 16.8161 38.0677C16.3861 38.0677 15.872 37.9043 15.5487 37.5814C15.2254 37.2584 14.9829 36.6748 14.8762 36.1535C14.7436 35.5737 14.7953 34.8928 14.8762 34.2431C14.9829 33.531 15.1736 32.6867 15.4678 32.0409C15.7394 31.4572 16.0886 30.9048 16.5186 30.5157C16.9486 30.1305 17.5435 29.8036 18.0544 29.7414C18.5393 29.6753 19.131 29.8387 19.5351 30.0955C19.9393 30.3561 20.3434 30.8075 20.531 31.2938C20.7185 31.7491 20.7993 32.3949 20.7476 32.9474C20.6926 33.5622 20.4243 34.1769 20.1527 34.7956C19.8294 35.4765 19.3735 36.1885 18.8885 36.8032C18.3486 37.4841 17.7052 38.165 17.0844 38.6514C16.4927 39.0716 15.8461 39.4606 15.2254 39.589C14.6886 39.6863 14.0679 39.6552 13.612 39.3945C13.182 39.1688 12.7779 38.7136 12.5871 38.2273C12.3737 37.7098 12.3446 37.0289 12.4254 36.4141C12.5063 35.7332 12.8296 34.9901 13.1529 34.3403C13.5312 33.5972 14.042 32.8502 14.6078 32.2665C15.1736 31.6518 15.872 31.0682 16.5736 30.7452C17.2461 30.4184 17.9994 30.1616 18.6719 30.2277C19.3185 30.2589 20.0201 30.5157 20.531 30.9398C21.0418 31.36 21.5009 32.0097 21.7434 32.6556C22.0117 33.3365 22.0926 34.1458 22.0376 34.8928C21.9859 35.671 21.7143 36.4803 21.4201 37.2234C21.0968 38.0327 20.6376 38.8459 20.1268 39.589C19.5869 40.3672 18.9144 41.1454 18.2419 41.7601C17.5435 42.3749 16.7611 42.9896 16.0078 43.2503C15.3353 43.476 14.582 43.5732 13.9353 43.3787C13.3437 43.1841 12.7488 42.7017 12.3187 42.1181C11.8629 41.5344 11.5654 40.7252 11.3779 39.912C11.1613 39.0716 11.0805 38.0989 11.1354 37.2234C11.1871 36.348 11.3779 35.4765 11.6721 34.6983C11.9437 33.9201 12.3737 33.2392 12.8296 32.5895C13.2628 31.9436 13.6928 31.4261 14.3395 30.8075C15.2545 29.9359 16.8419 28.5742 17.8668 28.0567C18.5102 27.6987 19.0502 27.5703 19.616 27.5042C20.1527 27.4731 20.6926 27.5703 21.1485 27.7298C21.5817 27.9244 22.0117 28.2162 22.3351 28.5742C22.6584 28.9282 22.9009 29.2862 23.0884 29.8698C23.3567 30.7102 23.4667 32.3327 23.4667 33.3365C23.4667 34.1147 23.4376 34.601 23.2759 35.3792C23.0334 36.5114 22.4417 38.3907 21.9568 39.4918C21.5817 40.2699 21.1776 40.8224 20.7185 41.4022C20.2626 41.9858 19.7227 42.5383 19.1569 42.9274C18.6202 43.3164 17.9994 43.6394 17.4077 43.8028C16.8161 43.9312 16.1953 43.9312 15.6295 43.8339C15.0637 43.7366 14.5529 43.511 14.042 43.2192C13.557 42.9585 13.0462 42.6044 12.6679 42.1492C12.2638 41.729 11.8887 41.1454 11.6463 40.5617C11.4038 39.9781 11.268 39.2972 11.2162 38.6163C11.1613 37.9705 11.2162 37.2584 11.3229 36.5776C11.4038 35.9278 11.5105 35.3792 11.7529 34.6983C12.0504 33.854 12.5871 32.784 13.1529 31.8775C13.6928 31.002 14.472 30.0332 15.0637 29.4146C15.4678 28.9944 15.7394 28.7337 16.2503 28.4769C16.9228 28.1539 18.1611 27.8933 18.8626 27.9244C19.3476 27.9594 19.7227 28.1189 20.0718 28.3135C20.4243 28.543 20.7734 28.866 21.0159 29.22C21.2293 29.578 21.391 29.9671 21.4459 30.4845C21.4718 31.1343 21.3101 32.1693 20.9868 32.8502C20.6926 33.4999 20.1527 34.0485 19.616 34.4376C19.131 34.8578 18.4585 35.2819 17.9186 35.2469C17.4336 35.2158 16.8161 34.8267 16.5736 34.4687C16.3861 34.2119 16.3052 33.8229 16.3311 33.531C16.3311 33.3365 16.4119 33.1108 16.5445 32.9786C16.6803 32.8502 16.9777 32.7218 17.1652 32.7529C17.3819 32.819 17.7052 33.2704 17.7052 33.2704Z" fill="white"/>
</mask>
<g mask="url(#mask1_40_10453)">
<path d="M1.30664 -0.392914H35.9563V50.102H1.30664V-0.392914Z" fill="#E7191F"/>
</g>
</g>
<mask id="mask2_40_10453" style="mask-type:luminance" maskUnits="userSpaceOnUse" x="10" y="28" width="14" height="8">
<path d="M10.3529 28.1306H23.9968V35.5504H10.3529V28.1306Z" fill="white"/>
</mask>
<g mask="url(#mask2_40_10453)">
<path d="M10.6665 29.1461C10.6665 29.1461 13.9384 29.4535 17.1522 28.9904C20.3659 28.5235 21.1128 28.1306 21.9955 28.4885C22.8781 28.8465 23.2176 29.3601 23.4859 31.0409C23.7511 32.7217 23.5732 34.9862 23.3243 35.1068C23.0786 35.2274 22.3317 35.5465 21.1322 35.2624C19.9295 34.9745 17.8829 34.4648 17.0487 34.3675C16.2146 34.2742 14.2391 34.2158 12.8844 34.457C11.5265 34.7022 10.7732 34.8889 10.7732 34.8889L10.4078 29.5391L10.6665 29.1461Z" fill="white"/>
</g>
<mask id="mask3_40_10453" style="mask-type:luminance" maskUnits="userSpaceOnUse" x="9" y="28" width="15" height="8">
<path d="M9.12756 28.2006H23.9645V35.527H9.12756V28.2006Z" fill="white"/>
</mask>
<g mask="url(#mask3_40_10453)">
<path d="M19.1697 32.3871C19.1729 32.3949 19.1923 32.3949 19.2053 32.3949C19.2117 32.3871 19.1859 32.3949 19.1697 32.3871ZM18.7332 32.2704C18.7171 32.2704 18.7009 32.2704 18.7041 32.2743C18.7171 32.2743 18.73 32.2743 18.7332 32.2704ZM19.0986 32.3716C19.0889 32.3716 19.063 32.3716 19.0468 32.3677C19.0468 32.3716 19.0759 32.3716 19.0792 32.3754C19.0824 32.3716 19.1018 32.3754 19.0986 32.3716ZM18.8044 32.2821C18.7979 32.286 18.7688 32.2782 18.7623 32.2821C18.7785 32.2821 18.8205 32.286 18.8044 32.2821ZM18.397 32.2937C18.4131 32.2937 18.4261 32.2937 18.439 32.2976C18.5166 32.3015 18.4325 32.2937 18.397 32.2937ZM18.9757 32.3482C18.9563 32.3482 18.9304 32.3443 18.9207 32.3482C18.9207 32.3482 18.924 32.3521 18.9272 32.3482C18.9369 32.3443 18.9725 32.356 18.9757 32.3482ZM18.9919 32.3677C19.0145 32.3638 19.0177 32.3716 19.0274 32.3677C19.021 32.3677 19.0242 32.3677 19.0274 32.3638C19.0145 32.3677 18.9854 32.3599 18.9919 32.3677ZM18.6104 32.3171C18.5683 32.3171 18.5263 32.3054 18.4875 32.3054C18.5198 32.3054 18.5716 32.321 18.6104 32.3171ZM18.8561 32.286C18.8658 32.2898 18.9046 32.2937 18.911 32.2898C18.8852 32.2898 18.869 32.286 18.8561 32.286ZM19.7905 32.2587C19.8131 32.2587 19.839 32.2587 19.8616 32.2587C19.8487 32.2548 19.7937 32.2509 19.7905 32.2587ZM19.0662 32.2821C19.0662 32.2898 19.0307 32.2821 19.0307 32.286C19.0339 32.2898 19.0856 32.286 19.0662 32.2821ZM12.9362 32.4455C12.9394 32.4416 12.9523 32.4494 12.9556 32.4416C12.9491 32.4416 12.9265 32.4416 12.9362 32.4455ZM12.739 32.3482C12.7357 32.356 12.7487 32.3521 12.7551 32.356C12.7551 32.3521 12.7454 32.3521 12.739 32.3482ZM12.8069 32.4572C12.8069 32.4533 12.8263 32.461 12.823 32.4533C12.823 32.4533 12.7972 32.4533 12.8069 32.4572ZM12.448 32.4805C12.435 32.4766 12.4221 32.4766 12.4124 32.4766C12.4189 32.4805 12.4447 32.4883 12.448 32.4805ZM13.1334 32.3988C13.1269 32.3988 13.1205 32.3988 13.114 32.3988C13.0752 32.4027 13.1172 32.4027 13.1334 32.3988ZM12.8845 32.4455C12.8941 32.4455 12.9038 32.4455 12.9103 32.4455C12.9071 32.4416 12.8877 32.4416 12.8845 32.4455ZM13.0299 32.3949C13.0493 32.3949 13.072 32.3988 13.0914 32.3949C13.0752 32.3988 13.0493 32.391 13.0299 32.3949ZM12.7907 32.3716C12.7972 32.3716 12.8069 32.3716 12.8166 32.3754C12.8166 32.3677 12.8004 32.3716 12.8004 32.3677C12.8004 32.3677 12.7907 32.3677 12.7907 32.3716ZM12.9847 32.4455C12.9782 32.4494 12.975 32.4494 12.9717 32.4533C12.9814 32.4533 12.9879 32.4533 12.9847 32.4455ZM12.8263 32.3754C12.8327 32.3754 12.8457 32.3793 12.8424 32.3716C12.8327 32.3754 12.8295 32.3716 12.8263 32.3716C12.8295 32.3716 12.8263 32.3716 12.8263 32.3754ZM12.8521 32.391C12.8618 32.391 12.8715 32.391 12.878 32.3871C12.878 32.3871 12.8748 32.3832 12.8748 32.3871C12.8683 32.391 12.8521 32.3832 12.8521 32.391ZM10.1395 29.6091C10.1363 29.6091 10.133 29.613 10.1395 29.613C10.1492 29.6246 10.1427 29.6635 10.1557 29.6635C10.1492 29.6441 10.146 29.6169 10.1395 29.6091ZM10.1298 29.6947C10.1395 29.7141 10.133 29.7219 10.1363 29.7297C10.1363 29.7219 10.1395 29.7258 10.1427 29.7297C10.1363 29.718 10.1363 29.683 10.1298 29.6947ZM10.3561 34.4415C10.3497 34.4765 10.3561 34.4882 10.3464 34.5232C10.34 34.5543 10.3238 34.5776 10.3109 34.6049C10.2947 34.6321 10.2818 34.6555 10.2753 34.6866C10.2721 34.706 10.2753 34.7294 10.2818 34.7411C10.2753 34.6788 10.3044 34.6399 10.3303 34.5815C10.3723 34.4804 10.3917 34.3325 10.4079 34.1769C10.3949 34.2469 10.3788 34.3948 10.3561 34.4882C10.3561 34.492 10.3561 34.492 10.3529 34.492C10.3561 34.4765 10.3594 34.4531 10.3561 34.4415ZM10.1427 29.932C10.1589 29.932 10.1427 29.9087 10.146 29.8931C10.1395 29.897 10.1427 29.9165 10.1427 29.932ZM10.3723 33.9318C10.3691 33.959 10.3723 33.9746 10.3788 33.9901C10.3755 33.9707 10.3788 33.9395 10.3723 33.9318ZM10.1524 29.8075C10.1524 29.7958 10.146 29.7725 10.146 29.7491C10.1363 29.753 10.1492 29.7842 10.1427 29.7919C10.146 29.7919 10.146 29.8114 10.1524 29.8075ZM10.0748 29.2706C10.0619 29.2239 10.0651 29.1772 10.049 29.1383C10.0587 29.1694 10.0587 29.2317 10.0748 29.2706ZM13.2821 29.1383C13.2854 29.1461 13.2304 29.1422 13.1722 29.1422C13.1172 29.1422 13.0623 29.1422 13.0655 29.1461C13.0914 29.1539 13.3985 29.1461 13.2821 29.1383ZM11.6817 29.1266C11.6429 29.1305 11.4651 29.1111 11.4263 29.1188C11.5265 29.1266 11.7884 29.1383 11.6817 29.1266ZM11.2452 29.0916C11.1418 29.0838 11.048 29.076 11.0642 29.0877C11.1482 29.0955 11.2194 29.0955 11.2452 29.0916ZM12.338 29.1539C12.1829 29.15 12.0891 29.1422 12.0083 29.1461C12.0535 29.15 12.296 29.1616 12.338 29.1539ZM14.1615 29.3406C14.1874 29.3212 14.0355 29.3406 13.9417 29.3328C13.9579 29.3406 14.0807 29.3367 14.1615 29.3406ZM13.502 29.3095C13.4373 29.3095 13.2918 29.3134 13.1722 29.3095C13.1819 29.3173 13.3694 29.3134 13.3921 29.3212C13.3953 29.3173 13.5149 29.3173 13.502 29.3095ZM14.8987 34.0485C14.9957 34.0446 15.18 34.0446 15.2317 34.0368C15.0668 34.0368 14.9731 34.0407 14.8987 34.0485ZM9.29889 35.3441C9.31829 35.3519 9.08873 35.4375 9.13076 35.4375C9.26655 35.383 9.33122 35.348 9.40558 35.313C9.40881 35.3013 9.35062 35.3247 9.29889 35.3441ZM9.20512 28.9943C9.29565 29.006 9.37648 29.0138 9.46054 29.0255C9.93258 29.0799 9.41851 29.0099 9.20512 28.9943ZM17.7018 28.7414C17.8506 28.7259 18.0058 28.6986 18.1351 28.6714C18.0575 28.6792 17.718 28.7259 17.7018 28.7414ZM9.88409 35.3402C9.80002 35.3636 9.6998 35.3947 9.66423 35.4142C9.6998 35.3986 9.73213 35.3869 9.76446 35.3791C9.79356 35.3714 9.82266 35.3636 9.84852 35.3558C9.90025 35.3402 9.95198 35.3247 10.0166 35.3052C10.036 35.2936 9.96815 35.313 9.88409 35.3402ZM13.0623 29.3056C12.9879 29.3095 12.8101 29.2978 12.8457 29.3095C12.9814 29.3056 13.0105 29.3173 13.0623 29.3134C13.0202 29.3134 13.0429 29.3095 13.0623 29.3056ZM11.63 34.815C11.5815 34.8267 11.5298 34.8383 11.478 34.8539C11.4554 34.8578 11.4295 34.8656 11.4037 34.8695C11.381 34.8772 11.3552 34.885 11.3325 34.8889C11.2388 34.9161 11.1547 34.9434 11.103 34.9628C11.1838 34.9395 11.3131 34.9045 11.4263 34.8772C11.5362 34.85 11.63 34.8267 11.63 34.815ZM10.2203 30.4884C10.2268 30.5195 10.23 30.5195 10.23 30.5429C10.2397 30.5429 10.2268 30.4923 10.2203 30.4884ZM10.2106 30.4184C10.2139 30.4339 10.2139 30.4612 10.2203 30.4651C10.2236 30.4534 10.2171 30.4223 10.2106 30.4184ZM10.5501 34.8889C10.5372 34.8733 10.5275 34.8539 10.521 34.8305C10.5146 34.8461 10.5081 34.8617 10.5049 34.8811C10.4984 34.8695 10.5081 34.8656 10.5081 34.85C10.4919 34.8772 10.479 34.8928 10.4693 34.92C10.4952 34.9123 10.5243 34.9006 10.5501 34.8889ZM10.1524 29.3717L10.1686 29.434C10.1783 29.4379 10.1524 29.3678 10.1524 29.3717ZM12.4674 32.321C12.4674 32.3249 12.49 32.3249 12.49 32.321C12.4771 32.321 12.4771 32.321 12.4674 32.321ZM12.5029 32.3249C12.5062 32.3249 12.5191 32.3249 12.5223 32.3249C12.5159 32.3249 12.5029 32.321 12.5029 32.3249ZM12.9491 32.426C12.9426 32.4338 12.9782 32.4299 12.9782 32.426H12.9491ZM12.8166 32.4455C12.823 32.4416 12.8295 32.4455 12.8327 32.4416C12.823 32.4416 12.8166 32.4377 12.8166 32.4455ZM19.7678 32.4182C19.7678 32.4144 19.7193 32.4182 19.7193 32.4182C19.7452 32.4182 19.7452 32.4182 19.7678 32.4182ZM19.6935 32.4182C19.6838 32.4144 19.6579 32.4182 19.6547 32.4182C19.6644 32.4182 19.6935 32.4221 19.6935 32.4182ZM18.7203 32.2937L18.7785 32.2976C18.7882 32.2937 18.7171 32.2937 18.7203 32.2937ZM19.0468 32.2976C19.0307 32.2976 19.0177 32.2937 19.0113 32.2976C19.0307 32.2976 19.0468 32.3054 19.0468 32.2976ZM17.5887 29.0799C17.5984 29.0683 17.3074 29.1111 17.2977 29.1188C17.4626 29.0994 17.4594 29.0916 17.5887 29.0799ZM17.1522 29.1344C17.0908 29.1383 16.9291 29.1577 16.8968 29.1694C16.9744 29.1577 17.1393 29.1461 17.1522 29.1344ZM11.1709 29.1383C11.2937 29.1422 11.4134 29.15 11.5362 29.1577C11.5815 29.1461 11.1515 29.1344 11.1709 29.1383ZM13.1722 29.1694C13.0655 29.1733 12.9944 29.1616 12.9556 29.1733C13.0687 29.1733 13.1722 29.185 13.1722 29.1694ZM23.9354 33.3676C23.903 33.7178 23.8448 34.0641 23.7478 34.3987L23.7123 34.5232C23.6993 34.5621 23.6832 34.6049 23.6702 34.6438L23.6282 34.7644C23.612 34.8033 23.5959 34.8422 23.5797 34.8811L23.528 34.9979L23.473 35.1107L23.4342 35.1924L23.4084 35.243L23.3954 35.2702L23.389 35.2819C23.389 35.2858 23.3857 35.2858 23.3825 35.2858L23.376 35.2897C23.3243 35.3013 23.2693 35.3169 23.2144 35.3286C23.1432 35.3441 23.0753 35.3636 23.0074 35.3791C22.9363 35.3908 22.8684 35.4025 22.7973 35.4142C22.765 35.4181 22.7294 35.4258 22.6938 35.4297C22.6615 35.4297 22.6259 35.4336 22.5904 35.4375C22.5225 35.4414 22.4546 35.4492 22.3867 35.4531C21.8403 35.4764 21.3197 35.4103 20.8348 35.3208C20.7604 35.3091 20.7604 35.313 20.686 35.3013C20.6181 35.2858 20.5438 35.2702 20.4727 35.2546C20.3983 35.2391 20.3272 35.2235 20.2528 35.2041C20.1041 35.1729 19.9554 35.134 19.8034 35.099C19.4995 35.0212 19.1859 34.9434 18.869 34.8695C18.7914 34.8539 18.7138 34.8344 18.633 34.815C18.5522 34.7994 18.4746 34.78 18.3937 34.7644C18.3161 34.7449 18.2353 34.7333 18.1545 34.7177L17.9152 34.6749C17.7568 34.6399 17.5952 34.6204 17.4367 34.5971C17.3591 34.5815 17.2783 34.5699 17.2007 34.5582C17.1199 34.5465 17.0423 34.5387 16.9647 34.5271C16.8677 34.5154 16.7675 34.5076 16.6705 34.4959L16.5961 34.4882C16.5702 34.4882 16.5476 34.4843 16.5217 34.4843C16.4732 34.4804 16.4248 34.4765 16.3763 34.4765C16.1855 34.4648 16.0044 34.4492 15.846 34.4376C15.7167 34.4337 15.5809 34.4337 15.4354 34.4298C15.2899 34.4298 15.1412 34.4337 14.986 34.4337C14.9472 34.4337 14.9084 34.4376 14.8696 34.4376C14.8308 34.4376 14.792 34.4415 14.75 34.4415C14.6724 34.4454 14.5916 34.4492 14.514 34.4531C14.4331 34.457 14.3523 34.4609 14.2747 34.4648C14.1939 34.4726 14.1163 34.4804 14.0355 34.4843C13.9579 34.492 13.877 34.4998 13.7994 34.5037C13.7606 34.5076 13.7218 34.5115 13.6863 34.5154C13.6475 34.5193 13.6087 34.5232 13.5699 34.5271C13.4212 34.5465 13.2724 34.5621 13.1366 34.5776C12.9976 34.5971 12.8651 34.6166 12.7454 34.6321C12.6872 34.6438 12.629 34.6477 12.5741 34.6555C12.5191 34.6632 12.4674 34.6749 12.4221 34.6827C12.3251 34.6983 12.2314 34.7177 12.1344 34.7372C12.0988 34.7411 12.0697 34.7449 12.0406 34.7488C12.0083 34.7488 11.9727 34.7527 11.9177 34.7644C11.8272 34.7955 11.714 34.8228 11.588 34.85C11.5233 34.8617 11.4586 34.8772 11.3875 34.8928C11.3196 34.9123 11.2485 34.9278 11.1741 34.9473C11.1256 34.9628 11.1095 34.9745 11.1062 34.9784C11.2323 34.9317 11.1903 34.9551 11.4231 34.8928C11.4554 34.885 11.1547 34.9706 11.0351 35.0056C11.1224 34.9745 10.9543 35.0095 11.103 34.9667C11.0577 34.9784 11.006 34.9901 10.9478 35.0056C10.8928 35.0173 10.8346 35.0329 10.77 35.0523C10.6406 35.0912 10.4952 35.1379 10.327 35.1924C10.3561 35.1729 10.4079 35.169 10.4661 35.1418C10.2785 35.1924 10.1492 35.2235 9.90672 35.3247C9.92935 35.3052 9.81296 35.3402 9.6998 35.3791C9.58664 35.4181 9.47671 35.4531 9.51227 35.4181C9.51551 35.4103 9.38941 35.4686 9.34092 35.4881C9.38295 35.4531 9.0661 35.5737 9.15339 35.5075C9.40235 35.4064 9.38295 35.3597 9.54784 35.2741C9.52521 35.2702 9.37648 35.3519 9.40881 35.3247C9.52521 35.278 9.61897 35.2352 9.70626 35.1963C9.79356 35.1574 9.87439 35.1224 9.95845 35.0834C10.0716 35.0406 10.146 35.0173 10.2042 34.9979C10.2268 34.994 10.2462 34.9862 10.2656 34.9823C10.2656 34.9706 10.2721 34.9551 10.2656 34.9512C10.2688 34.9434 10.2753 34.9356 10.2818 34.9395C10.2785 34.9551 10.2785 34.9667 10.2721 34.9823C10.2882 34.9784 10.3044 34.9745 10.3173 34.9706C10.3109 34.9551 10.3044 34.9434 10.3044 34.9278C10.2947 34.9239 10.2979 34.9589 10.2915 34.9473C10.3076 34.9123 10.3044 34.8772 10.3076 34.8461C10.3173 34.8072 10.3303 34.8033 10.3432 34.78C10.3464 34.7527 10.3464 34.7255 10.3497 34.7021C10.3497 34.6788 10.3529 34.6516 10.3626 34.6166C10.3691 34.601 10.3723 34.5893 10.3755 34.5776C10.3788 34.5621 10.3755 34.5543 10.3755 34.5543C10.3755 34.5504 10.3852 34.5387 10.3852 34.5271C10.3885 34.5076 10.382 34.4882 10.382 34.4726C10.3852 34.4648 10.3949 34.4337 10.3982 34.4259C10.4046 34.387 10.4046 34.3481 10.4079 34.3053C10.4208 34.1886 10.4337 34.0524 10.4402 33.9123C10.4467 33.7722 10.4467 33.6283 10.4467 33.4882C10.4467 33.4143 10.4467 33.3326 10.4467 33.2587C10.4499 32.9552 10.4434 32.6595 10.4208 32.3482C10.4176 32.3404 10.4208 32.2782 10.4143 32.2315C10.3949 31.9397 10.3594 31.6051 10.3173 31.2627C10.2753 30.9203 10.2236 30.574 10.1718 30.2627C10.1751 30.255 10.1718 30.2433 10.1783 30.255C10.1783 30.2433 10.1751 30.2433 10.1718 30.2433C10.1686 30.2083 10.1686 30.2083 10.1686 30.1732C10.1654 30.0993 10.1427 29.9904 10.1524 29.9437C10.1621 30.0565 10.1751 30.1888 10.1945 30.3016C10.2009 30.2277 10.1686 30.1032 10.1848 30.041C10.1718 30.0059 10.1815 29.9787 10.1686 29.9593C10.188 29.9476 10.1492 29.8581 10.1492 29.8231C10.1621 29.8153 10.1589 29.8503 10.1621 29.8581C10.1621 29.8503 10.1686 29.8425 10.1589 29.8192C10.1654 29.827 10.1718 29.827 10.1718 29.8425C10.1751 29.7803 10.1621 29.7608 10.1589 29.7063C10.1621 29.7063 10.1621 29.718 10.1654 29.7141C10.1621 29.6674 10.1492 29.5896 10.1298 29.5352C10.133 29.5352 10.1395 29.5507 10.1427 29.5663C10.146 29.5585 10.1298 29.504 10.146 29.5313C10.1363 29.4846 10.133 29.4924 10.1266 29.4496C10.1395 29.4924 10.1492 29.5001 10.1589 29.5546C10.1621 29.5468 10.1589 29.5313 10.1589 29.5196C10.1686 29.5274 10.1621 29.5507 10.1686 29.5663C10.1621 29.4846 10.1427 29.399 10.1233 29.3095C10.133 29.3328 10.1492 29.3873 10.1557 29.4379C10.1557 29.4029 10.1427 29.3523 10.1363 29.3134C10.1524 29.3484 10.1427 29.3056 10.1395 29.2861C10.1589 29.3678 10.1751 29.4301 10.1912 29.4846C10.188 29.4612 10.188 29.434 10.188 29.4106C10.188 29.4068 10.188 29.4068 10.188 29.4068C10.188 29.3912 10.188 29.3756 10.188 29.3601C10.1848 29.3562 10.1815 29.3484 10.1815 29.3406C10.1848 29.3367 10.188 29.3406 10.188 29.3445C10.188 29.3367 10.1912 29.325 10.1912 29.3173C10.1848 29.3017 10.1751 29.2784 10.1686 29.2589C10.1686 29.2745 10.1783 29.3017 10.1718 29.3095C10.1492 29.2511 10.1427 29.1889 10.1266 29.1227C10.1427 29.1694 10.1557 29.2433 10.1686 29.2978C10.1751 29.2861 10.1621 29.2472 10.1589 29.2239C10.1686 29.2472 10.1815 29.2745 10.1912 29.3017C10.1977 29.2122 10.2171 29.15 10.2527 29.1266C10.2042 29.1188 10.1557 29.1149 10.1104 29.1111C10.091 29.1072 10.0716 29.1033 10.049 29.1033C10.0522 29.1188 10.0554 29.1266 10.049 29.1033C9.93582 29.0877 9.83236 29.076 9.74829 29.0683C9.84529 29.076 9.94552 29.0877 10.0457 29.0955C10.0457 29.0916 10.0425 29.0877 10.0425 29.0838C10.0393 29.0683 10.036 29.0566 10.0328 29.041C10.0393 29.0527 10.0457 29.0799 10.049 29.0994C10.0716 29.0994 10.0942 29.1033 10.1169 29.1072C10.1654 29.1111 10.2106 29.1149 10.2559 29.1227C10.2688 29.1149 10.2785 29.1111 10.2947 29.1149C10.5727 29.1383 10.6665 29.1461 10.6665 29.1461C10.6665 29.1461 10.9284 31.5817 11.3358 32.1381C11.4457 32.1653 11.5556 32.1848 11.6688 32.2042C11.672 32.2042 11.6979 32.212 11.7205 32.2159C11.9759 32.2587 12.3154 32.3015 12.5935 32.321C12.5967 32.3249 12.6032 32.3249 12.5967 32.3288C12.6032 32.3288 12.6032 32.3249 12.6032 32.3249C12.6193 32.3288 12.6193 32.3288 12.6323 32.3326C12.6646 32.3404 12.7131 32.3404 12.7325 32.3521C12.684 32.3443 12.6258 32.3326 12.5741 32.3288C12.6064 32.3443 12.6646 32.3404 12.6872 32.3599C12.7034 32.356 12.7131 32.3677 12.7228 32.3599C12.726 32.3716 12.7681 32.3638 12.7842 32.3677C12.7842 32.3754 12.7713 32.3677 12.7681 32.3677C12.7713 32.3716 12.7745 32.3754 12.7842 32.3754C12.781 32.3754 12.781 32.3793 12.7745 32.3793C12.8004 32.3871 12.8101 32.3832 12.8327 32.3871C12.8327 32.3871 12.8295 32.3871 12.8295 32.391C12.8489 32.3949 12.8845 32.3949 12.9103 32.391C12.9103 32.3949 12.9039 32.3949 12.8942 32.3949C12.8974 32.3988 12.9232 32.3949 12.9103 32.4027C12.9297 32.4027 12.9265 32.3988 12.9491 32.4027C12.9265 32.4027 12.9232 32.4066 12.8974 32.4066C12.9006 32.4105 12.9071 32.4105 12.9135 32.4105C12.9071 32.4144 12.9006 32.4105 12.8909 32.4105C12.9265 32.4182 12.9685 32.4182 13.0073 32.4182C12.9944 32.4221 12.9685 32.4221 12.9491 32.4221C12.962 32.426 12.9847 32.4221 13.0041 32.426C12.9847 32.4299 13.0073 32.4299 13.0138 32.4299C12.9685 32.4338 12.9362 32.4338 12.9071 32.4338C12.8748 32.4338 12.8392 32.4377 12.7907 32.4377C12.8069 32.4377 12.8198 32.4416 12.8327 32.4377C12.836 32.4377 12.8424 32.4416 12.836 32.4416C12.8392 32.4455 12.8521 32.4377 12.8554 32.4455C12.8424 32.4572 12.8004 32.4494 12.7778 32.4533C12.7778 32.4572 12.7875 32.4572 12.7842 32.461C12.7972 32.461 12.781 32.4533 12.7972 32.4572C12.7842 32.4688 12.7584 32.461 12.7422 32.461C12.726 32.461 12.7099 32.461 12.6905 32.461C12.7002 32.4688 12.7325 32.4649 12.7551 32.4649C12.7584 32.4688 12.7519 32.4688 12.7487 32.4688C12.7099 32.4688 12.642 32.4688 12.6064 32.4649C12.6193 32.4727 12.6387 32.4688 12.6646 32.4688C12.6646 32.4727 12.6614 32.4727 12.6581 32.4727C12.6937 32.4766 12.7713 32.4766 12.823 32.4727C12.836 32.4727 12.8489 32.4688 12.8586 32.4649C12.8715 32.4649 12.9006 32.4649 12.9135 32.4572C12.9297 32.461 12.9362 32.4572 12.9523 32.4533C12.9523 32.4572 12.9459 32.4572 12.9523 32.4572C12.962 32.461 12.9556 32.4533 12.9588 32.4533C12.9653 32.4533 12.9782 32.4572 12.9847 32.4533C12.9814 32.461 13.0041 32.4533 13.0202 32.4494C13.0138 32.4494 13.0041 32.4494 13.0008 32.4455C13.0299 32.4377 13.0558 32.4455 13.0849 32.4416C13.0623 32.4455 13.0299 32.4455 13.0073 32.4455C13.0105 32.4494 13.0267 32.4494 13.0396 32.4494C12.9135 32.4844 12.6808 32.5 12.5159 32.4844C12.5159 32.4727 12.4803 32.4688 12.4577 32.4649C12.4641 32.4649 12.4577 32.461 12.4641 32.4572C12.4706 32.461 12.4835 32.4572 12.4965 32.461C12.4835 32.4533 12.4447 32.4572 12.4189 32.4533C12.4189 32.4533 12.4286 32.4533 12.435 32.4533C12.4383 32.4572 12.4092 32.4533 12.4027 32.4572C12.4253 32.461 12.435 32.461 12.4512 32.461C12.4447 32.4688 12.393 32.4572 12.3768 32.4572C12.3704 32.4572 12.3768 32.4572 12.3801 32.4572C12.3542 32.4494 12.3251 32.4455 12.3057 32.4455C12.3122 32.4494 12.338 32.4533 12.3671 32.4533C12.3477 32.461 12.3122 32.4455 12.2831 32.4455C12.2831 32.4416 12.2896 32.4416 12.2993 32.4455C12.2928 32.4377 12.2766 32.4416 12.2766 32.4455C12.2702 32.4416 12.254 32.4416 12.2475 32.4455C12.2928 32.4455 12.338 32.461 12.3833 32.4649C12.3833 32.4649 12.3768 32.4649 12.3704 32.461C12.3768 32.4572 12.4027 32.4649 12.4253 32.4649C12.4253 32.4688 12.4221 32.4688 12.4189 32.4688C12.435 32.4727 12.4738 32.4727 12.49 32.4766C12.435 32.4727 12.3801 32.4688 12.3283 32.4649C12.2734 32.4572 12.2184 32.4494 12.1635 32.4377C12.1796 32.4338 12.2152 32.4416 12.2378 32.4416C12.2281 32.4377 12.1893 32.4338 12.1764 32.4338C12.1958 32.426 12.2346 32.4416 12.2605 32.4416C12.1279 32.4182 12.018 32.4066 11.8725 32.3871C11.9307 32.3988 11.9695 32.3988 12.018 32.4066C12.018 32.4105 12.0147 32.4105 12.0083 32.4105C12.0406 32.4144 12.102 32.4221 12.1344 32.4299C12.1311 32.4299 12.1182 32.426 12.1117 32.426C12.1247 32.4299 12.1408 32.4338 12.1602 32.4377C12.0826 32.4377 12.0083 32.426 11.9242 32.4182C11.9242 32.4182 11.9177 32.4182 11.921 32.4105C11.7399 32.3832 11.5524 32.3521 11.3972 32.3132C11.394 32.3132 11.3907 32.3171 11.3875 32.3171C11.3746 32.3132 11.3584 32.3093 11.3455 32.3054C11.1903 32.5194 10.8346 33.1808 10.8928 34.6827C10.9219 34.6749 10.9543 34.6671 10.9834 34.6593C11.0707 34.636 11.1612 34.6166 11.2517 34.5971C11.3422 34.5738 11.4328 34.5582 11.5233 34.5387C11.6171 34.5232 11.7076 34.5037 11.7981 34.4804C11.8498 34.4687 11.8886 34.4609 11.9274 34.4492C11.9662 34.4415 11.9986 34.4337 12.0309 34.4259C12.0988 34.4103 12.1667 34.3948 12.2702 34.3753C12.2055 34.3948 12.0762 34.4181 11.9792 34.4415C11.9727 34.4454 11.9953 34.4415 12.018 34.4376C12.1538 34.4103 12.3089 34.3792 12.4738 34.3481C12.6387 34.317 12.8101 34.2936 12.9782 34.2664C13.0202 34.2586 13.059 34.2508 13.1011 34.2469C13.1431 34.2391 13.1819 34.2353 13.2239 34.2314C13.3048 34.2197 13.3824 34.2119 13.4567 34.2041C13.5278 34.1963 13.599 34.1847 13.6636 34.1808C13.7283 34.173 13.7865 34.1691 13.8382 34.1652C13.78 34.1691 13.7251 34.1769 13.6701 34.1808C13.6151 34.1886 13.5602 34.1925 13.5052 34.2002C13.3953 34.2119 13.2854 34.2275 13.1787 34.2391C13.1496 34.243 13.1237 34.2469 13.0978 34.2508C13.0687 34.2547 13.0429 34.2586 13.017 34.2625C12.962 34.2703 12.9103 34.2819 12.8586 34.2897C12.7519 34.3053 12.6484 34.3208 12.5482 34.3364C12.3445 34.3753 12.1473 34.4142 11.963 34.4492C11.7755 34.4882 11.6009 34.5271 11.4392 34.5621C11.2388 34.6088 11.0642 34.6477 10.8961 34.6944C10.8961 34.7177 10.8961 34.7411 10.8993 34.7683C11.0092 34.7294 11.1385 34.6944 11.3034 34.6477C11.3519 34.6321 11.394 34.6243 11.436 34.6166C11.4748 34.6049 11.5136 34.5971 11.5556 34.5893C11.5944 34.5776 11.6203 34.5699 11.6365 34.566C11.6526 34.5582 11.6623 34.5543 11.6623 34.5543C11.7044 34.5465 11.769 34.5348 11.8434 34.5193C11.8725 34.5115 11.8983 34.5037 11.9274 34.4959C11.9533 34.4882 11.9792 34.4804 12.005 34.4765C12.0503 34.4609 12.0956 34.4492 12.1279 34.4415C12.1926 34.4259 12.3671 34.3987 12.4189 34.3909C12.5288 34.3675 12.6387 34.3481 12.7551 34.3286C12.8683 34.3092 12.9847 34.2858 13.1075 34.2703C13.793 34.1691 14.5625 34.1107 15.3513 34.1146C16.1435 34.1185 16.9518 34.1847 17.718 34.3053C17.7697 34.3131 17.8215 34.3247 17.8764 34.3325C17.9282 34.3442 17.9831 34.352 18.0349 34.3636C18.1416 34.3831 18.2482 34.4026 18.3582 34.422C18.4649 34.4454 18.5683 34.4687 18.675 34.492C18.7785 34.5154 18.8819 34.5387 18.9822 34.5621C19.8099 34.7683 20.6246 34.9978 21.4523 35.0951C21.8661 35.1418 22.2832 35.1535 22.6938 35.1029L22.849 35.0757L22.9266 35.064C22.9525 35.0601 22.9783 35.0562 23.001 35.0484L23.1529 35.0095L23.2047 34.9979L23.2111 34.994H23.2144L23.2176 34.9901L23.2241 34.9784L23.2564 34.9123C23.2693 34.885 23.2823 34.8578 23.2952 34.8305L23.3114 34.7877C23.3922 33.3598 22.8878 32.3754 22.7294 32.107C22.6389 32.1303 22.5451 32.1498 22.4546 32.1692C22.3867 32.1848 22.3156 32.1965 22.2477 32.2081C21.9761 32.2548 21.7045 32.2898 21.4264 32.3288C21.4167 32.3288 21.3618 32.3326 21.3165 32.3365C21.0546 32.3677 20.7442 32.3949 20.4306 32.4105C20.117 32.4299 19.7937 32.4338 19.5027 32.426C19.4995 32.4221 19.4865 32.4221 19.4995 32.4182C19.4865 32.4182 19.4865 32.4221 19.4865 32.4221C19.4574 32.4182 19.4542 32.4182 19.4251 32.4144C19.3605 32.4066 19.257 32.4027 19.2182 32.3949C19.2699 32.3988 19.3249 32.4027 19.3799 32.4066C19.4348 32.4105 19.493 32.4144 19.5447 32.4144C19.4801 32.4027 19.3605 32.4066 19.312 32.3871C19.2764 32.391 19.257 32.3793 19.2344 32.3871C19.2311 32.3754 19.1438 32.3832 19.1115 32.3754C19.1083 32.3677 19.1374 32.3754 19.1471 32.3754C19.1374 32.3716 19.1309 32.3677 19.1115 32.3677C19.1212 32.3677 19.1212 32.3638 19.1341 32.3677C19.0792 32.356 19.0598 32.3599 19.0113 32.3521C19.0113 32.3521 19.021 32.3521 19.021 32.3482C18.9789 32.3443 18.9078 32.3365 18.8561 32.3404C18.8561 32.3365 18.869 32.3365 18.8852 32.3365C18.8819 32.3326 18.827 32.3326 18.8561 32.3288C18.814 32.3249 18.8205 32.3288 18.7785 32.3249C18.8205 32.3249 18.8302 32.321 18.8787 32.3249C18.8755 32.3249 18.8593 32.321 18.8496 32.321C18.8593 32.3171 18.8755 32.3249 18.8916 32.3249C18.8205 32.3132 18.7397 32.3054 18.6589 32.3015C18.6815 32.2976 18.7332 32.3015 18.7785 32.3054C18.7494 32.2976 18.7041 32.2976 18.6653 32.2937C18.7041 32.2937 18.6621 32.2898 18.6427 32.286C18.8334 32.2976 18.8949 32.3015 19.1018 32.3054C19.0662 32.3015 19.0404 32.3015 19.0113 32.3015C19.0048 32.3015 18.9919 32.2976 19.0048 32.2976C19.0016 32.2937 18.9757 32.3015 18.9692 32.2937C18.9951 32.2821 19.0824 32.2937 19.1244 32.2898C19.1212 32.286 19.105 32.286 19.1147 32.2821C19.0889 32.2821 19.1212 32.2898 19.0824 32.286C19.1115 32.2743 19.1632 32.2821 19.1956 32.286C19.2247 32.286 19.2602 32.2821 19.3023 32.286C19.2796 32.2782 19.215 32.2821 19.1729 32.2782C19.1632 32.2782 19.1762 32.2782 19.1859 32.2782C19.2635 32.2782 19.3993 32.2821 19.4704 32.2821C19.4413 32.2743 19.4057 32.2782 19.3508 32.2782C19.3508 32.2743 19.3605 32.2782 19.3702 32.2782C19.2958 32.2704 19.1374 32.2704 19.0371 32.2665C19.0048 32.2704 18.9854 32.2704 18.9595 32.2704C18.9337 32.2704 18.8787 32.2665 18.8528 32.2743C18.8141 32.2665 18.8011 32.2704 18.7753 32.2704C18.7753 32.2704 18.785 32.2704 18.7753 32.2665C18.7559 32.2665 18.7656 32.2704 18.7559 32.2743C18.7462 32.2704 18.7235 32.2626 18.7106 32.2665C18.7138 32.2587 18.6686 32.2665 18.633 32.2626C18.6459 32.2665 18.6718 32.2665 18.675 32.2743C18.6168 32.2743 18.5651 32.2626 18.5004 32.2587C18.5457 32.2587 18.6136 32.2704 18.6621 32.2743C18.6556 32.2665 18.6201 32.2665 18.5974 32.2626C18.8528 32.2509 19.3152 32.2548 19.6547 32.2587C19.6514 32.2704 19.7226 32.2743 19.7711 32.2743C19.7581 32.2743 19.7678 32.2782 19.7549 32.2821C19.7452 32.2821 19.7193 32.2821 19.6967 32.2821C19.7193 32.286 19.8002 32.2821 19.8487 32.2821C19.8519 32.2821 19.8293 32.2821 19.8196 32.2821C19.8131 32.2782 19.8681 32.2821 19.8778 32.2782C19.839 32.2743 19.8196 32.2743 19.784 32.2743C19.7937 32.2665 19.9004 32.2782 19.9327 32.2704C19.9489 32.2743 19.936 32.2743 19.923 32.2743C19.978 32.2782 20.0362 32.2782 20.0814 32.2743C20.0653 32.2743 20.0103 32.2743 19.9554 32.2743C19.9909 32.2665 20.0653 32.2743 20.1235 32.2704C20.1267 32.2743 20.1105 32.2743 20.0944 32.2743C20.1073 32.2782 20.1364 32.2743 20.1332 32.2704C20.1526 32.2704 20.1784 32.2704 20.1946 32.2665C20.1041 32.2743 20.0103 32.2626 19.9198 32.2665C19.923 32.2665 19.936 32.2665 19.9457 32.2665C19.936 32.2743 19.8778 32.2665 19.8325 32.2704C19.8357 32.2704 19.8422 32.2665 19.8487 32.2665C19.8131 32.2626 19.7387 32.2665 19.6999 32.2626C19.923 32.2665 20.1429 32.2548 20.366 32.2548C20.3336 32.2626 20.2593 32.2626 20.2172 32.2665C20.2366 32.2665 20.3142 32.2665 20.3433 32.2626C20.3013 32.2743 20.2237 32.2665 20.1687 32.2743C20.4436 32.2704 20.6634 32.2587 20.9576 32.2276C20.838 32.2393 20.7604 32.2432 20.6634 32.2509C20.6634 32.247 20.6699 32.247 20.6796 32.247C20.6181 32.2509 20.4921 32.2587 20.4242 32.2587C20.4306 32.2548 20.4597 32.2587 20.4727 32.2548C20.4436 32.2548 20.408 32.2548 20.3724 32.2587C20.4468 32.247 20.5244 32.2432 20.602 32.2354C20.6828 32.2276 20.7604 32.2237 20.8445 32.212C20.8477 32.2159 20.8639 32.212 20.8574 32.2198C21.2227 32.1926 21.6043 32.1381 21.9179 32.0992C21.9308 32.0953 21.9308 32.0953 21.9405 32.0914C22.0343 32.0836 22.1345 32.0642 22.238 32.0447C22.3447 32.0253 22.4481 32.0058 22.5516 31.9864C22.613 31.9786 22.6777 31.9552 22.7294 31.9513C22.7294 31.9513 22.7294 31.9513 22.7326 31.9513C23.1012 31.2004 22.8523 29.6791 22.7359 29.0955C22.7165 29.076 22.6971 29.0566 22.6744 29.0371L22.6098 28.9749L22.5419 28.9204C22.4481 28.8465 22.3479 28.7842 22.2444 28.7336C22.0375 28.6286 21.8144 28.5663 21.5816 28.5391C21.1225 28.4846 20.6472 28.5508 20.1752 28.6403C19.936 28.687 19.6999 28.7336 19.4639 28.7842C19.3443 28.8076 19.2247 28.8309 19.1083 28.8543C18.9886 28.8737 18.869 28.8932 18.7526 28.9165C17.8053 29.0799 16.8742 29.2005 15.9883 29.2745C15.9592 29.2706 15.8783 29.2823 15.9527 29.2667C15.888 29.2706 15.8816 29.2745 15.8783 29.2823C15.6973 29.29 15.6876 29.2861 15.513 29.2939C15.4095 29.3017 15.2931 29.3056 15.1735 29.3134C15.0539 29.3173 14.9278 29.3212 14.8082 29.325C14.6885 29.3289 14.5754 29.3328 14.4752 29.3367C14.3782 29.3367 14.2941 29.3328 14.2327 29.3289C14.3135 29.3289 14.3911 29.3289 14.4752 29.3289C14.556 29.325 14.6368 29.3212 14.7209 29.3212C14.889 29.3134 15.0571 29.3134 15.2285 29.3017C15.3998 29.2939 15.5712 29.2822 15.7426 29.2745C15.9107 29.2628 16.0788 29.2472 16.2437 29.2317C16.1435 29.2356 16.0238 29.2433 15.8945 29.2511C15.7652 29.2628 15.6262 29.2667 15.4936 29.2745C15.3578 29.2822 15.2253 29.29 15.1089 29.29C14.9925 29.2939 14.8922 29.2939 14.8179 29.29C14.5948 29.3095 14.4752 29.2978 14.3426 29.3134C14.307 29.2861 13.7768 29.3289 13.5763 29.3173C13.5634 29.3056 13.7348 29.3134 13.793 29.3134C13.7477 29.3056 13.7024 29.3017 13.5763 29.3056C13.6313 29.3017 13.6313 29.2939 13.7218 29.2939C13.5505 29.2861 13.4373 29.2861 13.3274 29.2861C13.2692 29.2861 13.2175 29.2861 13.156 29.2861C13.0978 29.2861 13.0299 29.2823 12.9556 29.2823C12.9653 29.2784 13.0267 29.2784 13.0267 29.2745C12.8941 29.2706 12.7196 29.2667 12.5385 29.2628C12.3542 29.255 12.1667 29.2511 12.005 29.2511C12.0115 29.2433 12.0988 29.2472 12.1893 29.2511C12.1602 29.2395 11.8272 29.2356 12.0083 29.2278C11.8757 29.2239 11.8175 29.2239 11.7658 29.22C11.7108 29.22 11.6591 29.2161 11.533 29.2083C11.6623 29.2122 11.7431 29.2122 11.8272 29.2161C11.9113 29.2161 11.9986 29.2161 12.1538 29.2239C12.1214 29.2161 12.0341 29.2161 11.9695 29.2122C12.0244 29.2044 12.1311 29.22 12.2249 29.22C12.1182 29.2122 12.005 29.2083 11.8886 29.2005C11.7755 29.1928 11.6559 29.185 11.5362 29.1772C11.4166 29.1694 11.2937 29.1655 11.1741 29.1577C11.0513 29.1461 10.9284 29.1383 10.8055 29.1266C10.8734 29.1305 10.9866 29.1383 11.1159 29.1461C11.2485 29.1539 11.3972 29.1616 11.533 29.1694C11.4425 29.1616 11.3261 29.1539 11.2032 29.1461C11.0804 29.1344 10.9543 29.1266 10.8443 29.1149C11.0642 29.1266 10.8055 29.1033 10.6988 29.0916C10.8443 29.1033 10.9769 29.1111 11.0998 29.1227C11.2226 29.1305 11.3358 29.1344 11.4457 29.1422C11.6623 29.15 11.8595 29.1616 12.0568 29.1655C12.157 29.1694 12.2572 29.1733 12.3607 29.1733C12.4124 29.1772 12.4674 29.1772 12.5223 29.1772C12.5773 29.1811 12.6323 29.1811 12.6905 29.1811C12.8069 29.1811 12.9297 29.1811 13.0623 29.1811C13.1981 29.185 13.3436 29.1811 13.502 29.1772C13.2821 29.1772 13.1366 29.1772 12.9556 29.1772C12.9103 29.1772 12.8295 29.1694 12.92 29.1694C12.8974 29.1616 12.7454 29.1772 12.7002 29.1616C12.7745 29.1539 12.9426 29.1539 13.1302 29.1539C13.3145 29.1539 13.5149 29.15 13.6475 29.1422C13.6313 29.1383 13.5311 29.1422 13.5731 29.1305C13.4179 29.1344 13.6248 29.1461 13.3921 29.1422C13.5569 29.1149 13.8738 29.1266 14.084 29.1188C14.265 29.1111 14.4752 29.1033 14.737 29.0916C14.6659 29.0877 14.5301 29.0955 14.3814 29.0994C14.2294 29.1033 14.0678 29.1111 13.9385 29.1149C13.8706 29.1111 13.9579 29.1111 14.0096 29.1072C14.4881 29.0994 15.3222 29.041 15.7523 29.0099C15.665 29.006 15.5647 29.0138 15.4483 29.0216C15.3869 29.0293 15.3255 29.0332 15.2544 29.041C15.1832 29.0449 15.1089 29.0527 15.028 29.0527C15.0345 29.0488 15.0927 29.0488 15.1347 29.0449C15.0216 29.0527 14.8761 29.0566 14.7112 29.0644C14.6304 29.0683 14.5431 29.0721 14.4558 29.076C14.3652 29.0799 14.2715 29.0838 14.1777 29.0838C13.9902 29.0916 13.7994 29.0994 13.6151 29.1033C13.4309 29.1072 13.2563 29.1111 13.1011 29.1111C12.9168 29.1149 12.7778 29.1188 12.629 29.1188C12.587 29.1188 12.5385 29.1188 12.4835 29.1188C12.4286 29.1149 12.3671 29.1149 12.3057 29.1111C12.1829 29.1111 12.0568 29.1111 11.9727 29.1149C11.8595 29.1072 11.7819 29.1033 11.7141 29.1033C11.6462 29.0994 11.5847 29.1033 11.5007 29.1033C11.4942 29.0955 11.5621 29.0955 11.5007 29.0916C11.3843 29.0838 11.4489 29.0994 11.3907 29.0994C11.3293 29.0916 11.1806 29.076 11.0998 29.0799C11.1256 29.0644 10.8476 29.0605 10.6277 29.0449C10.7053 29.0566 10.8605 29.0683 10.8831 29.076C10.5307 29.0644 10.2139 29.0177 9.82912 28.9827C9.96491 28.9943 10.1395 29.0099 10.3141 29.0255C10.4014 29.0371 10.4887 29.0449 10.5727 29.0527C10.6568 29.0605 10.7376 29.0644 10.8088 29.0721C10.7894 29.0644 10.7247 29.0605 10.6471 29.0527C10.6083 29.0488 10.5663 29.0449 10.5243 29.041C10.4855 29.0371 10.4467 29.0332 10.4111 29.0293C10.5081 29.0371 10.6115 29.041 10.7182 29.0449C10.8249 29.0488 10.9381 29.0527 11.0545 29.0605C11.1709 29.0644 11.2905 29.0683 11.4134 29.0721C11.5362 29.076 11.6623 29.0799 11.7916 29.0838C11.9242 29.0838 12.0568 29.0838 12.1893 29.0877C12.3251 29.0877 12.4641 29.0916 12.6032 29.0916C12.8812 29.0877 13.169 29.0916 13.46 29.0799C14.0387 29.0721 14.6368 29.041 15.2156 29.0021C15.5065 28.9788 15.7911 28.9593 16.0691 28.9321C16.2081 28.9204 16.3439 28.9087 16.4797 28.8932C16.6123 28.8815 16.7448 28.8659 16.8742 28.8504C16.8677 28.862 16.9744 28.8543 17.1199 28.8426C17.2654 28.827 17.4464 28.8037 17.5984 28.7842C17.5143 28.7998 17.5693 28.7959 17.4917 28.8154C17.4303 28.8192 17.2815 28.8465 17.1296 28.8659C17.2007 28.862 17.3591 28.8387 17.537 28.8154C17.6275 28.7998 17.7212 28.7881 17.8118 28.7764C17.9023 28.7609 17.9928 28.7492 18.0672 28.7375C18.0737 28.7298 17.9411 28.7531 17.8894 28.7609C17.8409 28.7648 18.1868 28.7103 18.2482 28.6947C17.9961 28.7259 17.8797 28.7492 17.6695 28.7803C17.6921 28.7687 17.87 28.7453 18.064 28.7142C18.161 28.7025 18.2644 28.687 18.3549 28.6714C18.4455 28.6597 18.5231 28.6442 18.5716 28.6325C18.6556 28.6208 18.5974 28.6364 18.5295 28.648C18.6847 28.6208 18.8399 28.5936 18.9919 28.5702C19.1632 28.5391 19.3281 28.5041 19.4704 28.4769C19.3637 28.4924 19.0371 28.5586 18.7138 28.613C18.7688 28.6014 18.8367 28.5858 18.9143 28.5741C18.9886 28.5586 19.0759 28.5469 19.1665 28.5274C19.3443 28.4924 19.5415 28.4574 19.7193 28.4185C19.7387 28.4263 19.645 28.4457 19.5415 28.4652C19.6288 28.4574 19.8099 28.4107 19.7905 28.4029C19.9069 28.3874 20.0653 28.3523 20.1526 28.329C20.02 28.3562 19.881 28.3835 19.742 28.4107C19.6062 28.4379 19.4671 28.4613 19.3281 28.4885C19.0501 28.543 18.7688 28.5819 18.4972 28.6325C18.5101 28.6364 18.5877 28.6208 18.6427 28.613C18.6136 28.6208 18.5134 28.6403 18.3873 28.6597C18.2579 28.6792 18.1028 28.7025 17.9573 28.7259C17.9831 28.7181 18.0219 28.7103 18.064 28.7025C17.954 28.7142 17.7859 28.7453 17.6146 28.7648C17.4464 28.7881 17.2751 28.8115 17.1619 28.8231C17.8376 28.7375 18.5069 28.6286 19.1729 28.5002C19.3411 28.4691 19.5092 28.4379 19.6741 28.4029C19.8422 28.3718 20.0103 28.3368 20.1817 28.3057C20.5212 28.2434 20.8703 28.1967 21.226 28.2006C21.1225 28.2084 20.9576 28.2162 20.783 28.2317C20.6117 28.2512 20.4306 28.2784 20.2981 28.3057C20.3627 28.2979 20.5115 28.2745 20.6699 28.2551C20.8251 28.2356 20.9867 28.2239 21.0773 28.2201C20.9479 28.2317 20.7669 28.2473 20.5729 28.2706C20.3789 28.2979 20.1752 28.3329 20.0103 28.3679C20.4274 28.2901 20.8315 28.2278 21.2357 28.2278C21.4361 28.2278 21.6366 28.2473 21.837 28.2901C21.934 28.3134 22.0343 28.3407 22.1313 28.3757C22.2283 28.4107 22.3253 28.4574 22.4158 28.508C22.5095 28.5586 22.6001 28.6208 22.6874 28.6908L22.752 28.7453L22.8135 28.7998L22.8749 28.8582C22.8943 28.8815 22.9137 28.901 22.9331 28.9243C23.0883 29.0955 23.2208 29.2939 23.3308 29.5157C23.5539 29.9554 23.6929 30.4612 23.7866 31.0059C23.7511 30.7802 23.709 30.5779 23.6605 30.3911C23.6347 30.2978 23.6088 30.2083 23.5829 30.1188C23.5668 30.076 23.5506 30.0332 23.5377 29.9904C23.5312 29.9709 23.5248 29.9476 23.5151 29.9281C23.5086 29.9087 23.4989 29.8853 23.4924 29.8659C23.3663 29.539 23.2111 29.2472 22.9848 28.9749C23.001 28.9865 23.0236 29.0138 23.0689 29.0721C23.0527 29.0527 23.0333 29.0255 23.0139 29.0021C22.9945 28.9749 22.9719 28.9515 22.9493 28.9243C22.9266 28.901 22.904 28.8737 22.8781 28.8465C22.8523 28.8231 22.8232 28.7959 22.7973 28.7687C22.6841 28.6636 22.5483 28.5663 22.4093 28.4885C22.2671 28.4107 22.1183 28.3523 21.9793 28.3134C21.8403 28.2745 21.7077 28.2512 21.6043 28.2356C21.6172 28.2356 21.6722 28.2395 21.7304 28.2512C21.7627 28.2551 21.795 28.2629 21.8241 28.2706C21.8564 28.2745 21.8823 28.2823 21.9049 28.2862C21.7304 28.2356 21.504 28.2084 21.2648 28.2045C21.5073 28.2045 21.753 28.2278 21.9987 28.294C22.2444 28.364 22.4901 28.4807 22.7068 28.6558C22.8167 28.7414 22.9169 28.8426 23.0139 28.9554C23.0365 28.9827 23.0592 29.0099 23.0818 29.041C23.1044 29.0683 23.1303 29.0955 23.1497 29.1305C23.1917 29.1889 23.2338 29.2511 23.2693 29.3173C23.2887 29.3484 23.3081 29.3834 23.3275 29.4145C23.3437 29.4496 23.3631 29.4846 23.3793 29.5157L23.4051 29.5663L23.431 29.6208C23.4472 29.6558 23.4601 29.6908 23.4763 29.7258C23.5377 29.8698 23.5926 30.0137 23.6379 30.1655C23.6411 30.1849 23.6767 30.3016 23.6541 30.255C23.7478 30.5896 23.8125 30.932 23.861 31.2743C23.9063 31.6206 23.9418 31.9669 23.958 32.3171C23.9709 32.6673 23.9677 33.0174 23.9354 33.3676ZM12.4059 29.2706C12.4674 29.2667 12.6226 29.2706 12.7357 29.2706C12.7196 29.2861 12.5159 29.2667 12.4447 29.2745C12.4253 29.2784 12.4059 29.2706 12.4059 29.2706Z" fill="#100F0D"/>
</g>
<path d="M15.6328 18.2207C15.5035 18.2518 15.3709 18.2713 15.2351 18.279C14.9635 18.2985 14.6822 18.2829 14.3977 18.2557C13.2596 18.1312 12.0731 17.7732 11.2907 17.4892C10.505 17.2091 9.36046 16.6838 8.36142 16.0652C8.02517 15.859 7.70832 15.6411 7.42057 15.431C6.8871 16.5437 6.57349 17.9016 6.57349 19.3724C6.57349 23.1426 8.63624 26.1968 11.184 26.1968C13.7317 26.1968 15.7944 23.1426 15.7944 19.3724C15.7944 18.9716 15.7718 18.5786 15.7265 18.1934C15.6942 18.2051 15.6651 18.2129 15.6328 18.2207Z" fill="white"/>
<path d="M10.7992 19.6097C10.4274 19.6097 10.1299 19.2012 10.1299 18.6915C10.1299 18.1857 10.4274 17.7772 10.7992 17.7772C11.1677 17.7772 11.4684 18.1857 11.4684 18.6915C11.4684 19.2012 11.1677 19.6097 10.7992 19.6097ZM11.4005 16.8239C10.3401 16.8239 9.48328 17.9989 9.48328 19.4502C9.48328 20.9015 10.3401 22.0804 11.4005 22.0804C12.461 22.0804 13.321 20.9015 13.321 19.4502C13.321 17.9989 12.461 16.8239 11.4005 16.8239Z" fill="#0E0C10"/>
<path d="M6.33734 14.2093L6.22095 14.361C6.37614 14.5478 6.65742 14.824 7.02924 15.1275C7.40105 15.431 7.86339 15.7578 8.36129 16.0652C9.36034 16.6877 10.5049 17.2091 11.2905 17.4892C12.073 17.7733 13.2595 18.1312 14.3976 18.2557C14.6821 18.283 14.9634 18.2985 15.235 18.2791C15.3708 18.2713 15.5033 18.2518 15.6327 18.2207C15.7652 18.1857 15.8945 18.1468 16.0239 18.0417C16.1403 17.9367 16.2082 17.82 16.2663 17.711C16.3245 17.6021 16.3666 17.4931 16.4021 17.3959C16.47 17.1974 16.5088 17.034 16.5315 16.9056L16.4506 16.8745L16.3666 16.8434C16.3278 16.9523 16.2696 17.1041 16.1855 17.2714C16.1435 17.3531 16.095 17.4387 16.04 17.5243C15.9818 17.606 15.9172 17.6838 15.846 17.7266C15.7878 17.7655 15.6844 17.7927 15.5777 17.8005C15.471 17.8122 15.3514 17.8122 15.2317 17.8044C14.986 17.7927 14.7274 17.7499 14.459 17.6916C13.3953 17.4542 12.2572 17.0107 11.491 16.7305C10.7215 16.4543 9.58019 16.0419 8.56498 15.5477C8.06061 15.3065 7.5821 15.0458 7.19413 14.8046C6.80615 14.5672 6.499 14.3455 6.33734 14.2093Z" fill="#0E0C10"/>
<path d="M15.6456 18.2168C15.6876 18.5942 15.7135 18.9794 15.7135 19.3724C15.7135 23.0647 13.6896 26.0607 11.1936 26.0607C8.69757 26.0607 6.67685 23.0647 6.67685 19.3724C6.67685 17.925 6.98723 16.5904 7.511 15.4971C7.39137 15.4076 7.27175 15.322 7.16505 15.2325C6.59925 16.3998 6.26624 17.8277 6.26624 19.3724C6.26624 23.3021 8.41951 26.4925 11.0772 26.4925C13.7348 26.4925 15.8881 23.3021 15.8881 19.3724C15.8881 18.9599 15.8622 18.5553 15.817 18.1623C15.7588 18.1857 15.7006 18.2012 15.6456 18.2168Z" fill="#0E0C10"/>
<mask id="mask4_40_10453" style="mask-type:luminance" maskUnits="userSpaceOnUse" x="7" y="10" width="10" height="6">
<path d="M7.86987 10.0656H16.1467V15.4427H7.86987V10.0656Z" fill="white"/>
</mask>
<g mask="url(#mask4_40_10453)">
<path d="M12.0763 12.2289C12.6744 12.4078 13.2531 12.618 13.764 12.8942C14.278 13.1666 14.721 13.5167 15.0217 13.9019C15.1736 14.0965 15.29 14.291 15.3708 14.4739C15.4517 14.6567 15.4969 14.824 15.526 14.9602C15.581 15.2326 15.5713 15.3843 15.5745 15.3843C15.5745 15.3882 15.5228 15.2442 15.3935 15.0303C15.2642 14.8163 15.0475 14.5478 14.7242 14.326C14.4041 14.1042 13.9838 13.9214 13.4924 13.7657C13.0042 13.6101 12.4416 13.47 11.8467 13.295C11.2486 13.1121 10.6698 12.902 10.1558 12.6257C9.64493 12.3495 9.19876 11.9954 8.90454 11.5908C8.75582 11.3923 8.64912 11.1861 8.57799 10.9955C8.50686 10.8048 8.4713 10.6336 8.45513 10.4975C8.41957 10.2173 8.4422 10.0656 8.43897 10.0656C8.43897 10.0656 8.47777 10.2134 8.59093 10.4391C8.70409 10.6648 8.90131 10.9488 9.21492 11.1822C9.52207 11.4157 9.93915 11.5986 10.4306 11.7542C10.9188 11.9137 11.4781 12.0499 12.0763 12.2289Z" fill="#0E0C10"/>
</g>
<mask id="mask5_40_10453" style="mask-type:luminance" maskUnits="userSpaceOnUse" x="16" y="14" width="12" height="13">
<path d="M16.9745 14.4466H27.2785V26.3991H16.9745V14.4466Z" fill="white"/>
</mask>
<g mask="url(#mask5_40_10453)">
<path d="M17.8571 18.2206C17.9864 18.2518 18.119 18.2712 18.2548 18.279C18.5264 18.2985 18.8076 18.2829 19.0922 18.2557C20.2302 18.1312 21.4168 17.7732 22.1992 17.4892C22.9849 17.209 24.1294 16.6838 25.1284 16.0651C25.4647 15.8589 25.7815 15.641 26.0693 15.4309C26.6028 16.5437 26.9164 17.9016 26.9164 19.3723C26.9164 23.1425 24.8536 26.1968 22.3059 26.1968C19.7582 26.1968 17.6954 23.1425 17.6954 19.3723C17.6954 18.9716 17.7181 18.5786 17.7633 18.1934C17.7957 18.2051 17.8248 18.2129 17.8571 18.2206Z" fill="white"/>
</g>
<path d="M22.0213 18.6915C22.0213 18.1857 22.322 17.7772 22.6906 17.7772C23.0624 17.7772 23.3598 18.1857 23.3598 18.6915C23.3598 19.2012 23.0624 19.6097 22.6906 19.6097C22.322 19.6097 22.0213 19.2012 22.0213 18.6915ZM20.1687 19.4502C20.1687 20.9015 21.0287 22.0804 22.0892 22.0804C23.1497 22.0804 24.0065 20.9015 24.0065 19.4502C24.0065 17.9989 23.1497 16.8239 22.0892 16.8239C21.0287 16.8239 20.1687 17.9989 20.1687 19.4502Z" fill="#0E0C10"/>
<mask id="mask6_40_10453" style="mask-type:luminance" maskUnits="userSpaceOnUse" x="16" y="14" width="12" height="5">
<path d="M16.9551 14.2014H27.2688V18.2985H16.9551V14.2014Z" fill="white"/>
</mask>
<g mask="url(#mask6_40_10453)">
<path d="M27.1525 14.2093L27.2107 14.2832L27.2689 14.361C27.1137 14.5478 26.8324 14.824 26.4606 15.1275C26.0888 15.431 25.6265 15.7578 25.1285 16.0652C24.1295 16.6877 22.985 17.2091 22.1993 17.4892C21.4169 17.7732 20.2303 18.1312 19.0923 18.2557C18.8077 18.2829 18.5265 18.2985 18.2549 18.279C18.1191 18.2713 17.9865 18.2518 17.8572 18.2207C17.7246 18.1857 17.5953 18.1468 17.466 18.0417C17.3496 17.9367 17.2817 17.8199 17.2235 17.711C17.1653 17.602 17.1233 17.4931 17.0877 17.3958C17.0198 17.1974 16.981 17.034 16.9584 16.9017L17.0392 16.8745L17.1233 16.8433C17.1621 16.9523 17.2203 17.104 17.3043 17.2713C17.3464 17.353 17.3948 17.4386 17.4498 17.5242C17.508 17.6059 17.5727 17.6838 17.6438 17.7266C17.702 17.7655 17.8055 17.7927 17.9122 17.8005C18.0188 17.8121 18.1385 17.8121 18.2581 17.8044C18.5038 17.7927 18.7625 17.7499 19.0308 17.6915C20.0945 17.4542 21.2326 17.0106 22.0021 16.7305C22.7683 16.4543 23.9096 16.0418 24.9249 15.5477C25.4325 15.3065 25.9077 15.0458 26.2957 14.8046C26.6837 14.5672 26.9908 14.3454 27.1525 14.2093Z" fill="#0E0C10"/>
</g>
<mask id="mask7_40_10453" style="mask-type:luminance" maskUnits="userSpaceOnUse" x="16" y="14" width="12" height="14">
<path d="M16.9745 14.4466H27.2785V27.3952H16.9745V14.4466Z" fill="white"/>
</mask>
<g mask="url(#mask7_40_10453)">
<path d="M17.8443 18.2168C17.8023 18.5942 17.7764 18.9794 17.7764 19.3723C17.7764 23.0647 19.8003 26.0606 22.2963 26.0606C24.7923 26.0606 26.8131 23.0647 26.8131 19.3723C26.8131 17.925 26.5027 16.5904 25.9789 15.4971C26.0985 15.4076 26.2182 15.322 26.3248 15.2325C26.8907 16.3998 27.2237 17.8277 27.2237 19.3723C27.2237 23.3021 25.0704 26.4925 22.4127 26.4925C19.7551 26.4925 17.6018 23.3021 17.6018 19.3723C17.6018 18.9599 17.6277 18.5553 17.6729 18.1623C17.7311 18.1856 17.7893 18.2012 17.8443 18.2168Z" fill="#0E0C10"/>
</g>
<mask id="mask8_40_10453" style="mask-type:luminance" maskUnits="userSpaceOnUse" x="17" y="10" width="9" height="6">
<path d="M17.8021 10.0656H25.2513V15.4427H17.8021V10.0656Z" fill="white"/>
</mask>
<g mask="url(#mask8_40_10453)">
<path d="M21.4136 12.2289C20.8154 12.4078 20.2367 12.618 19.7258 12.8942C19.2118 13.1666 18.7688 13.5167 18.4682 13.9019C18.3162 14.0965 18.1998 14.291 18.119 14.4739C18.0381 14.6567 17.9929 14.824 17.9638 14.9602C17.9088 15.2326 17.9185 15.3843 17.9153 15.3843C17.9153 15.3882 17.967 15.2442 18.0963 15.0303C18.2257 14.8163 18.4423 14.5478 18.7656 14.326C19.0857 14.1042 19.506 13.9214 19.9974 13.7657C20.4856 13.6101 21.0482 13.47 21.6431 13.295C22.2412 13.1121 22.82 12.902 23.334 12.6257C23.8449 12.3495 24.2911 11.9954 24.5853 11.5908C24.734 11.3923 24.8407 11.1861 24.9118 10.9955C24.983 10.8048 25.0185 10.6336 25.0347 10.4975C25.0702 10.2173 25.0508 10.0656 25.0508 10.0656C25.0508 10.0656 25.0121 10.2134 24.8989 10.4391C24.7857 10.6648 24.5885 10.9488 24.2749 11.1822C23.9677 11.4157 23.5507 11.5986 23.0592 11.7542C22.571 11.9137 22.0117 12.0499 21.4136 12.2289Z" fill="#0E0C10"/>
</g>
<mask id="mask9_40_10453" style="mask-type:luminance" maskUnits="userSpaceOnUse" x="22" y="44" width="6" height="13">
<path d="M22.4578 44.5654H27.0036V56.2573H22.4578V44.5654Z" fill="white"/>
</mask>
<g mask="url(#mask9_40_10453)">
<mask id="mask10_40_10453" style="mask-type:luminance" maskUnits="userSpaceOnUse" x="22" y="44" width="5" height="13">
<path d="M22.9816 44.8066C23.6799 50.8646 24.9473 54.915 24.6499 55.4986C24.5691 55.627 24.2716 55.627 24.2716 55.5958C24.2716 55.5958 25.914 54.8488 26.399 54.915C26.6706 54.9461 26.9648 55.1095 26.9907 55.2729C27.0198 55.4013 26.7773 55.7242 26.6965 55.7242C26.5898 55.7242 26.4281 55.304 26.454 55.2068C26.5089 55.1406 26.884 55.0784 26.939 55.1756C26.9907 55.2379 26.8032 55.7242 26.7223 55.7242C26.6415 55.7242 26.4281 55.3352 26.454 55.2379C26.4799 55.1406 26.8581 55.0784 26.9099 55.1406C26.9648 55.2068 26.9099 55.5608 26.7773 55.7242C26.4281 56.0472 24.8374 56.5685 24.1908 55.9849C23.1691 55.1095 23.0624 50.4444 22.7908 48.3706C22.6033 46.9777 22.3608 45.3552 22.5225 44.8689C22.5774 44.7094 22.6583 44.6121 22.7391 44.581C22.8199 44.581 22.9816 44.8066 22.9816 44.8066Z" fill="white"/>
</mask>
<g mask="url(#mask10_40_10453)">
<path d="M21.4458 43.2815H28.0964V57.2884H21.4458V43.2815Z" fill="#211C1D"/>
</g>
</g>
<mask id="mask11_40_10453" style="mask-type:luminance" maskUnits="userSpaceOnUse" x="6" y="46" width="5" height="13">
<path d="M6.38916 46.3202H10.3821V58.2727H6.38916V46.3202Z" fill="white"/>
</mask>
<g mask="url(#mask11_40_10453)">
<mask id="mask12_40_10453" style="mask-type:luminance" maskUnits="userSpaceOnUse" x="6" y="46" width="5" height="13">
<path d="M9.92302 46.328C10.353 49.4717 10.2205 50.0242 10.1396 50.993C9.97799 52.5805 9.86806 57.0549 9.41218 57.5063C9.25053 57.6697 9.03391 57.6347 8.92721 57.4751C8.44224 56.8254 9.25053 49.6351 9.57384 48.0127C9.7064 47.3979 9.84219 46.8805 9.97799 46.8454C10.0847 46.8143 10.2205 46.9116 10.2722 47.1061C10.5697 47.8181 10.1655 51.7401 10.0039 53.5882C9.86806 54.9811 9.68054 56.6658 9.49301 57.2806C9.43805 57.5374 9.41218 57.6347 9.27639 57.7669C9.05977 57.9615 8.52307 58.0899 8.09306 58.156C7.57899 58.1872 6.58318 58.1872 6.45062 57.9615C6.36979 57.8642 6.42152 57.6347 6.53145 57.4751C6.85476 57.0549 8.62976 56.0472 9.11473 56.1133C9.35722 56.1445 9.57384 56.3079 9.57384 56.5024C9.57384 56.8604 8.11892 58.121 7.71478 58.2183C7.55312 58.2533 7.3656 58.156 7.31064 58.0588C7.28477 57.9615 7.33973 57.7669 7.44643 57.6347C7.57899 57.3779 8.06396 56.8915 8.30645 56.8915C8.4681 56.8604 8.68473 57.0549 8.71059 57.1522C8.71059 57.2495 8.41637 57.5374 8.33554 57.5063C8.25472 57.4751 8.14479 57.0199 8.19975 56.9577C8.28058 56.8915 8.68473 57.0199 8.71059 57.1172C8.71059 57.2144 8.44224 57.5374 8.36141 57.5063C8.28058 57.4751 8.14479 57.0549 8.19975 56.9888C8.25472 56.9226 8.65886 56.9577 8.68473 57.0549C8.73969 57.2495 7.9023 58.1871 7.65982 58.2533C7.52726 58.2533 7.3656 58.156 7.31064 58.0588C7.28477 57.9615 7.31064 57.8292 7.39146 57.6697C7.60809 57.2806 9.22143 55.9499 9.43805 56.0822C9.54474 56.1445 9.54474 56.5024 9.46391 56.697C9.22143 57.1522 7.71478 57.8642 7.14898 58.0237C6.88063 58.0899 6.61228 58.121 6.47648 58.0237C6.42152 57.9615 6.36979 57.8292 6.39565 57.7319C6.42152 57.6347 6.53145 57.5063 6.66401 57.4401C7.04228 57.2495 8.6039 57.6697 8.92721 57.4401C9.03391 57.3779 9.00804 57.3117 9.05977 57.1172C9.33136 56.0822 9.57384 47.0089 9.97799 46.8454C10.0847 46.7832 10.2463 47.0089 10.2722 47.1723C10.3821 47.5925 9.97799 48.4329 9.86806 49.4056C9.65467 51.2537 9.89716 56.9226 9.41218 57.5063C9.27639 57.6697 9.03391 57.6697 8.95308 57.5724C8.82052 57.409 8.87225 57.0199 8.90135 56.5336C8.95308 55.1757 9.76136 50.8958 9.76136 49.0515C9.78723 47.9504 9.30226 46.7832 9.49301 46.4602C9.59971 46.2968 9.92302 46.328 9.92302 46.328Z" fill="white"/>
</mask>
<g mask="url(#mask12_40_10453)">
<path d="M5.31897 45.0323H11.4038V59.5334H5.31897V45.0323Z" fill="#211C1D"/>
</g>
</g>
<mask id="mask13_40_10453" style="mask-type:luminance" maskUnits="userSpaceOnUse" x="0" y="28" width="9" height="8">
<path d="M0.488525 28.399H8.60374V35.527H0.488525V28.399Z" fill="white"/>
</mask>
<g mask="url(#mask13_40_10453)">
<mask id="mask14_40_10453" style="mask-type:luminance" maskUnits="userSpaceOnUse" x="0" y="28" width="9" height="8">
<path d="M8.19964 31.6517C7.44631 32.4299 7.01631 32.4922 6.50223 32.5583C5.66808 32.6556 3.59563 32.8501 3.21735 32.461C3.0557 32.3326 3.0557 32.0097 3.11066 31.8774C3.16562 31.749 3.27232 31.749 3.48894 31.6517C4.13557 31.4261 7.14886 30.5818 7.95715 30.679C8.28047 30.7102 8.57792 30.8074 8.60378 30.9708C8.62965 31.1965 8.14468 31.7179 7.76963 31.9436C7.28466 32.2354 6.17892 32.5894 5.85884 32.3949C5.72305 32.2976 5.61635 32.0097 5.66808 31.8463C5.77801 31.6206 6.90638 31.3911 7.14886 31.5545C7.25879 31.6206 7.33962 31.8774 7.31052 31.9747C7.25879 32.1381 7.06804 32.2003 6.79968 32.2976C6.07223 32.4922 3.59563 33.0135 2.57396 32.3638C1.65574 31.749 0.850685 29.4807 0.795722 28.8659C0.769857 28.6364 0.821587 28.4457 0.902416 28.4107C1.174 28.3796 2.89727 31.0992 2.86817 31.8152C2.84231 32.2003 2.59982 32.461 2.33147 32.6244C1.95319 32.819 0.983245 32.784 0.714893 32.5894C0.5791 32.4922 0.472407 32.2665 0.498272 32.1381C0.634064 31.8774 2.43816 31.3599 2.76148 31.749C3.16562 32.2354 2.59982 34.9901 2.27651 35.2819C2.11485 35.4103 1.8174 35.3791 1.73657 35.2157C1.57491 34.9901 1.79153 33.9201 2.00815 33.5621C2.16981 33.3053 2.57395 33.0135 2.70651 33.0758C2.81644 33.1419 2.86817 33.6283 2.81644 33.6944C2.76148 33.7255 2.46403 33.6594 2.43816 33.5621C2.4123 33.4649 2.57395 33.1108 2.65478 33.0758C2.73561 33.0758 2.949 33.3676 2.92314 33.4999C2.92314 33.5971 2.68065 33.7567 2.59982 33.7255C2.51899 33.6594 2.4123 33.3676 2.43816 33.2703C2.46403 33.173 2.68065 33.0758 2.76148 33.1108C2.84231 33.1419 2.9781 33.3676 2.949 33.4649C2.89727 33.5971 2.62569 33.5621 2.51899 33.7255C2.33147 34.0174 2.43816 35.0873 2.25064 35.313C2.16981 35.4414 1.97906 35.5387 1.89823 35.4764C1.7107 35.2819 1.95319 33.173 2.08898 32.5894C2.16981 32.3326 2.25064 32.0408 2.33147 32.0408C2.3832 32.0408 2.51899 32.2665 2.49313 32.3326C2.4123 32.5272 0.689028 32.6867 0.553236 32.461C0.472407 32.3638 0.5791 32.0408 0.714893 31.9436C0.983245 31.749 2.22154 32.3638 2.3832 32.0408C2.62568 31.5856 0.634064 28.9282 0.795722 28.5741C0.850685 28.4457 1.03821 28.4107 1.19987 28.508C1.65574 28.7336 2.22154 31.2315 2.9781 31.749C3.59563 32.1692 4.48475 31.9436 5.18311 31.8774C5.85884 31.8463 6.79968 31.3288 7.06804 31.5233C7.22969 31.6517 7.28466 31.9747 7.22969 32.107C7.14887 32.2976 6.66389 32.2976 6.39554 32.3326C6.15305 32.3638 5.85884 32.461 5.74891 32.3326C5.64222 32.2354 5.61635 31.9747 5.72304 31.8152C5.93967 31.4261 7.74053 30.7452 8.06385 30.9397C8.17377 31.002 8.2546 31.2315 8.19964 31.3599C7.98302 31.8152 3.78315 32.7217 3.40811 32.3326C3.27232 32.2354 3.27232 31.9436 3.37901 31.8152C3.65059 31.4572 5.8847 32.0719 6.71886 31.8774C7.25879 31.749 7.76963 31.1343 8.01212 31.2315C8.11881 31.2938 8.19964 31.6517 8.19964 31.6517Z" fill="white"/>
</mask>
<g mask="url(#mask14_40_10453)">
<path d="M-0.578369 27.1151H9.67072V36.7721H-0.578369V27.1151Z" fill="#211C1D"/>
</g>
</g>
<mask id="mask15_40_10453" style="mask-type:luminance" maskUnits="userSpaceOnUse" x="29" y="34" width="2" height="2">
<path d="M29.9458 34.5932H30.4372V35.0796H29.9458V34.5932Z" fill="white"/>
</mask>
<g mask="url(#mask15_40_10453)">
<mask id="mask16_40_10453" style="mask-type:luminance" maskUnits="userSpaceOnUse" x="29" y="34" width="2" height="2">
<path d="M30.0331 34.7333C30.4114 34.671 30.3855 35.0251 30.3305 35.0562C30.2497 35.0912 30.0072 34.8967 30.0072 34.8305C30.0072 34.7644 30.2756 34.5738 30.3564 34.6049C30.4114 34.636 30.4663 34.994 30.4114 35.0562C30.3305 35.1224 29.9523 34.9278 29.9523 34.9278" fill="white"/>
</mask>
<g mask="url(#mask16_40_10453)">
<path d="M28.8756 33.3092H31.488V36.3557H28.8756V33.3092Z" fill="#211C1D"/>
</g>
</g>
<mask id="mask17_40_10453" style="mask-type:luminance" maskUnits="userSpaceOnUse" x="29" y="33" width="9" height="8">
<path d="M29.3898 33.3365H37.0911V40.0793H29.3898V33.3365Z" fill="white"/>
</mask>
<g mask="url(#mask17_40_10453)">
<mask id="mask18_40_10453" style="mask-type:luminance" maskUnits="userSpaceOnUse" x="29" y="33" width="9" height="8">
<path d="M30.3855 35.0562C30.0072 35.383 30.1689 34.994 30.3306 34.8967C30.573 34.7644 30.8964 34.8305 31.3264 34.8617C32.1896 34.9278 34.6921 35.1535 35.2579 35.5426C35.4454 35.6748 35.5553 35.8694 35.5812 35.9978C35.5812 36.0951 35.5262 36.2235 35.4195 36.2896C34.9604 36.5464 31.9989 35.9005 30.9513 35.6398C30.3564 35.5114 29.8197 35.4453 29.6031 35.2507C29.4705 35.1224 29.3897 34.9589 29.4156 34.8617C29.4156 34.7644 29.5772 34.636 29.7648 34.6049C30.3855 34.5076 34.1004 35.6398 34.2362 36.0639C34.2621 36.1612 34.1004 36.3557 34.1004 36.3557C34.0745 36.3557 34.4755 34.8967 34.747 34.3792C34.9346 33.9901 35.232 33.5349 35.4454 33.4065C35.5812 33.3404 35.7687 33.3404 35.8237 33.4376C35.9853 33.7294 34.6371 36.0639 34.8537 36.3869C35.0154 36.6437 35.9853 35.9978 36.2537 36.0951C36.4153 36.1612 36.577 36.3557 36.5511 36.4841C36.4703 36.7098 34.9604 36.5464 34.6921 37.0678C34.3688 37.6514 35.232 39.7874 35.0413 39.9508C34.9604 40.017 34.6921 39.8847 34.5854 39.659C34.3429 39.1727 34.2071 37.165 34.5854 36.6125C34.9346 36.1612 36.1987 36.0289 36.4412 36.2585C36.577 36.3869 36.6029 36.8071 36.4962 36.9355C36.3345 37.13 35.0962 36.9355 34.9087 36.6787C34.8279 36.5464 34.8537 36.2235 34.9346 36.1262C35.0413 35.9667 35.3646 36.0289 35.662 36.0639C36.0112 36.0951 36.7645 36.1612 36.9553 36.3557C37.0361 36.4841 37.062 36.7409 37.007 36.8382C36.9811 36.9355 36.7645 37.0016 36.6837 36.9705C36.632 36.9043 36.6029 36.3869 36.6578 36.3557C36.7128 36.3207 37.062 36.6125 37.062 36.7098C37.062 36.8071 36.9553 36.9355 36.8195 36.9705C36.4962 37.0989 35.3128 37.0016 35.0413 36.7409C34.9087 36.6125 34.7988 36.2896 34.8796 36.1612C35.0154 35.9667 36.1729 36.0951 36.4412 36.2585C36.577 36.3557 36.7128 36.5464 36.6578 36.6437C36.577 36.8732 35.3128 36.6437 35.0154 37.0678C34.7179 37.5852 35.2837 39.3011 35.1512 39.7252C35.0704 39.9197 34.9604 40.0481 34.8537 40.0481C34.7729 40.0481 34.6371 39.9197 34.5563 39.7563C34.3946 39.4334 34.2362 38.4257 34.2362 37.8459C34.2071 37.3596 34.1554 36.8071 34.3688 36.5153C34.6921 36.1262 35.9304 35.9316 36.2537 36.0951C36.4153 36.1923 36.577 36.453 36.522 36.5464C36.4412 36.7759 34.6921 36.9355 34.4496 36.7098C34.317 36.5814 34.3429 36.3869 34.3688 36.1612C34.4237 35.6398 34.9346 34.1497 35.2579 33.7294C35.4454 33.5349 35.7428 33.3715 35.8237 33.4376C35.9045 33.4688 35.9304 33.6322 35.9045 33.8267C35.8237 34.3442 35.177 36.3207 34.3429 36.6787C33.2921 37.1962 30.0622 35.8032 29.6031 35.2507C29.4414 35.0912 29.3897 34.8305 29.4705 34.7333C29.7648 34.3131 34.7988 34.9589 35.2579 35.5776C35.3937 35.7721 35.3387 36.1612 35.2579 36.2585C35.1221 36.3869 34.8537 36.2585 34.5046 36.2235C33.6413 36.1262 30.6797 35.6748 30.0622 35.4803C29.8714 35.4142 29.7648 35.383 29.7389 35.2858C29.713 35.1885 29.8456 34.9278 29.9264 34.8305C30.0331 34.7021 30.2497 34.5737 30.3306 34.636C30.3855 34.671 30.3855 35.0562 30.3855 35.0562Z" fill="white"/>
</mask>
<g mask="url(#mask18_40_10453)">
<path d="M28.3389 32.1109H38.1709V41.3438H28.3389V32.1109Z" fill="#211C1D"/>
</g>
</g>
</svg>
