<svg width="43" height="57" viewBox="0 0 43 57" fill="none" xmlns="http://www.w3.org/2000/svg">
<mask id="mask0_40_10629" style="mask-type:luminance" maskUnits="userSpaceOnUse" x="5" y="0" width="35" height="51">
<path d="M5.49292 0.976318H39.6867V50.0083H5.49292V0.976318Z" fill="white"/>
</mask>
<g mask="url(#mask0_40_10629)">
<mask id="mask1_40_10629" style="mask-type:luminance" maskUnits="userSpaceOnUse" x="5" y="1" width="35" height="49">
<path d="M11.0701 11.4387C12.2922 9.11982 12.8677 8.54009 13.7375 7.64909C15.312 6.02663 19.4246 1.4627 20.7081 1.15144C21.1608 1.07362 21.5455 1.22926 21.7072 1.50161C21.8333 1.77008 21.7686 2.19807 21.5455 2.69998C20.8375 4.1318 16.7895 6.87482 14.7333 9.15873C12.8063 11.2831 10.75 15.4229 9.52789 15.8859C9.04615 16.0805 8.37042 15.8859 8.30576 15.6136C8.14733 14.7654 13.2234 10.859 15.7614 8.579C18.3641 6.29509 22.3797 2.42763 23.7635 1.92571C24.1805 1.80899 24.4359 1.77008 24.6299 1.96462C24.8239 2.15916 24.95 2.73889 24.8563 3.16299C24.6946 3.85944 24.0512 4.47808 23.1524 5.48191C21.0314 7.84363 14.1869 13.139 11.2318 16.2322C9.30157 18.2438 7.72702 21.4537 6.73121 21.6871C6.34647 21.765 5.92939 21.4926 5.80006 21.2202C5.70307 20.9907 5.70307 20.6405 5.92939 20.1775C6.89287 18.2827 15.4413 11.9017 19.0075 9.042C21.4162 7.10827 23.9219 4.94109 25.1763 4.43917C25.6904 4.24463 26.0752 4.20573 26.3338 4.36136C26.5892 4.51699 26.8479 4.82436 26.7832 5.25235C26.5569 6.87482 19.874 12.3648 17.0159 15.5747C14.6686 18.2827 11.8719 23.0411 10.75 23.2318C10.3944 23.3096 10.1066 23.0022 9.9773 22.7299C9.8803 22.4575 9.8803 22.0723 10.1066 21.6871C10.75 20.4499 14.4423 18.2827 16.7249 16.2711C19.2952 13.9911 22.6383 10.4699 24.7593 8.73074C26.0428 7.64909 27.2326 6.48963 27.973 6.37291C28.3254 6.29509 28.6455 6.45072 28.8072 6.64526C28.9688 6.83591 29.0658 7.18609 28.9688 7.49346C28.7425 8.22882 27.2973 9.19764 26.0428 10.2793C24.0189 11.9796 20.4527 14.1078 17.7207 16.4657C14.8303 18.9791 11.1994 22.7299 9.20457 25.0099C8.01801 26.325 7.24528 28.2198 6.57279 28.4144C6.24947 28.5311 5.89706 28.3365 5.76773 28.1031C5.63841 27.8346 5.63841 27.2938 5.86473 26.8658C6.2818 25.9787 8.05034 25.2822 9.56022 23.8504C12.3246 21.2591 17.2713 14.9171 20.679 11.9407C23.2494 9.69955 26.7509 7.2639 27.9407 6.87482C28.2608 6.7581 28.4548 6.71919 28.6455 6.87482C28.8395 6.99155 29.0949 7.41565 29.0335 7.76582C28.9688 8.42337 28.0344 9.27156 27.2003 10.2404C25.8197 11.785 22.9584 14.2246 21.3192 16.0027C20.0033 17.4306 19.2306 18.3216 17.947 19.9441C16.0168 22.4225 12.6123 27.7568 11.0054 29.5738C10.2974 30.387 9.75098 31.0056 9.26924 31.1224C9.01382 31.2002 8.72283 31.0834 8.56441 30.9278C8.43508 30.7722 8.30576 30.5815 8.33809 30.3092C8.33809 29.8851 8.6614 29.3793 9.20457 28.57C10.8114 26.2083 16.9512 19.5978 20.679 15.8859C23.8572 12.7149 28.4224 8.46227 30.0293 7.49346C30.5434 7.18609 30.7988 6.99155 31.0898 7.06936C31.3775 7.18609 31.7299 7.64909 31.7623 7.99538C31.7946 8.46227 31.3452 9.0031 30.7988 9.69955C29.3859 11.5166 25.3057 14.6487 22.2212 17.8197C18.3964 21.726 11.1024 30.5426 9.65721 31.6243C9.39856 31.8188 9.30157 31.8577 9.14314 31.8577C8.91682 31.8188 8.59674 31.6632 8.49975 31.4297C8.37042 31.1613 8.40275 30.6555 8.62907 30.2314C9.07848 29.3793 10.6854 28.9163 12.2276 27.5623C15.5028 24.7025 24.0189 15.3062 26.6862 12.9095C27.6497 12.0574 28.0991 11.5555 28.7102 11.322C29.1596 11.1275 29.706 11.1275 29.997 11.2831C30.2524 11.4777 30.511 11.785 30.4787 12.1741C30.4464 12.9834 28.9688 14.4541 27.6174 16.0416C25.0793 18.9402 19.3276 23.9672 16.0168 27.6012C13.3527 30.5037 9.20457 35.9547 9.07848 35.838C9.01382 35.7602 10.042 34.0599 10.7177 33.1689C11.5842 32.0095 12.5153 31.0834 13.8991 29.6516C16.2755 27.1771 20.5174 22.8466 23.9219 19.7923C27.2326 16.812 32.632 12.213 34.0772 11.5555C34.3973 11.4387 34.5913 11.3609 34.7529 11.4777C34.976 11.5944 35.2993 11.9407 35.2347 12.3297C35.1053 13.8744 29.2566 18.8235 26.5569 21.9945C24.0835 24.8971 21.8333 27.5234 19.6509 30.5037C17.5299 33.4802 14.7009 38.7795 13.6405 39.7833C13.3818 40.0557 13.2234 40.1685 12.9971 40.1685C12.8063 40.1685 12.483 39.9778 12.386 39.7444C12.2599 39.472 12.2599 39.1258 12.4183 38.7017C12.9647 37.3477 16.4048 34.7175 18.6518 32.2818C21.4485 29.2275 24.6299 25.0099 27.8114 21.6093C30.9604 18.2049 36.2305 12.7149 37.6434 11.9407C37.9667 11.7461 38.1251 11.6722 38.3514 11.785C38.5422 11.8628 38.8332 12.3297 38.8655 12.5982C38.8978 12.8706 38.8008 13.0223 38.5745 13.3725C37.7727 14.5319 33.5955 17.5862 31.6038 19.52C29.9646 21.1463 29.2242 22.0723 27.362 24.1617C23.6018 28.4143 13.0294 42.5691 10.75 43.8803C10.2974 44.1527 9.9773 44.1138 9.75098 43.997C9.59255 43.8803 9.49556 43.6508 9.46322 43.4562C9.43089 43.2228 9.46322 42.9932 9.65721 42.643C10.4914 41.0595 15.8907 36.301 19.777 32.8226C24.6299 28.4144 34.7529 18.8624 36.7446 18.7068C37.1616 18.6679 37.388 18.9013 37.514 19.1737C37.611 19.4032 37.611 19.7145 37.4203 20.1775C36.6476 22.0723 30.2524 28.3365 27.168 32.0095C24.5653 35.1416 21.8333 38.4682 20.1003 40.826C19.0075 42.2968 18.2024 44.1527 17.5914 44.5768C17.3036 44.7713 17.0773 44.8102 16.8865 44.6935C16.6602 44.6157 16.4048 44.1527 16.3725 43.8803C16.3401 43.6897 16.4048 43.534 16.5309 43.2617C17.142 42.18 20.1326 39.2425 22.6706 36.5345C26.7186 32.2429 36.6152 20.411 38.6392 20.0219C39.0563 19.9441 39.3149 20.1775 39.4442 20.411C39.5703 20.6016 39.6027 20.9129 39.5089 21.2591C39.2826 22.1501 37.902 23.6948 36.4212 25.2822C33.5631 28.3754 25.9167 34.2545 22.7967 37.3477C21.0638 39.0868 19.7123 40.5576 18.9105 41.717C18.4934 42.3357 18.3964 43.071 18.044 43.3006C17.7854 43.4951 17.3683 43.4951 17.142 43.3395C16.9512 43.1878 16.7249 42.7209 16.8219 42.3746C17.0159 41.5614 19.1659 40.7482 20.7405 39.3981C23.314 37.2309 27.9084 32.2818 30.4787 30.1535C32.0209 28.8384 33.4338 27.5234 34.365 27.2549C34.7853 27.0993 35.17 27.0993 35.3931 27.2938C35.6194 27.4494 35.8457 27.8346 35.8457 28.2198C35.7811 28.9941 34.6883 30.2314 33.6278 31.6243C31.6362 34.2155 25.5611 41.0595 24.1482 41.9466C23.8281 42.18 23.6665 42.2579 23.4725 42.18C23.2494 42.1022 22.9261 41.717 22.8614 41.4058C22.8291 41.1762 22.8937 40.9039 23.0877 40.5965C23.6341 39.7833 25.6904 38.546 27.2003 37.4255C29.0658 36.0715 32.3733 33.2856 33.5308 33.13C33.9155 33.0561 34.2065 33.2078 34.3973 33.4413C34.5266 33.6358 34.5589 33.9432 34.5266 34.2934C34.4943 34.8342 34.2389 35.4139 33.8186 36.301C32.8227 38.4682 28.9365 45.4289 27.6174 46.5105C27.2003 46.8607 26.8479 46.9774 26.6216 46.8218C26.3985 46.7051 26.1075 46.1253 26.2368 45.6623C26.5246 44.4639 30.4787 42.2189 32.1179 40.6354C33.4015 39.3981 34.5266 37.5033 35.3608 37.1142C35.7811 36.9197 36.2305 36.9197 36.4212 37.1142C36.6152 37.3477 36.6476 37.8496 36.5182 38.3904C36.1982 39.7055 33.5308 42.643 32.341 44.6157C31.3452 46.3199 30.5757 48.9072 29.8353 49.5259C29.5152 49.7982 29.1919 49.915 28.9688 49.7593C28.7102 49.6426 28.4871 49.0629 28.4871 48.6388C28.4871 48.0591 28.9365 46.9774 29.2889 46.7051C29.5152 46.5105 29.8353 46.5494 30.0616 46.6661C30.2201 46.7051 30.3494 46.8996 30.414 47.0902C30.511 47.3237 30.511 47.7478 30.414 48.0201C30.3171 48.2497 29.997 48.5221 29.7706 48.5221C29.5152 48.5221 29.0658 48.1758 28.9365 47.9034C28.8395 47.6311 28.8718 47.207 29.0335 46.9774C29.1919 46.744 29.706 46.5494 29.9646 46.6272C30.1877 46.6661 30.414 46.9774 30.4787 47.2848C30.5757 47.7478 30.2201 48.9072 29.9646 49.3352C29.803 49.6037 29.5476 49.7982 29.3212 49.8372C29.1273 49.8761 28.7748 49.7204 28.6455 49.4909C28.4871 49.2963 28.4224 49.024 28.4871 48.6388C28.6132 47.596 30.1231 45.2732 31.1544 43.4951C32.3733 41.4447 34.3326 37.6939 35.3608 37.1142C35.7811 36.8846 36.2305 36.9197 36.4212 37.1142C36.6152 37.3477 36.6799 37.8885 36.5182 38.3904C36.1012 39.6666 32.7904 42.4524 31.0898 43.9581C29.706 45.1565 27.9084 46.7051 27.168 46.8996C26.9125 46.9774 26.7832 46.9385 26.6216 46.8218C26.4308 46.7051 26.2045 46.3938 26.1722 46.1253C26.1398 45.7362 26.3985 45.3121 26.7186 44.6935C27.5204 43.071 30.4464 39.009 31.6038 36.8457C32.3733 35.4528 32.729 33.5969 33.3368 33.2467C33.6925 33.0561 34.2065 33.2467 34.3973 33.4413C34.5266 33.558 34.5913 33.8265 34.5589 34.0599C34.5589 34.3323 34.462 34.5229 34.2065 34.8342C33.1461 36.1493 25.4641 41.6003 24.0189 42.1022C23.6341 42.2189 23.4725 42.2189 23.2817 42.1022C23.0877 41.9855 22.8614 41.717 22.8614 41.4058C22.8614 40.9817 23.2494 40.4798 23.7311 39.7833C24.8563 38.2348 28.3254 35.2583 30.2524 33.0172C31.9886 31.0834 33.8509 27.4494 34.8467 27.2549C35.2347 27.1382 35.6518 27.4844 35.7811 27.7957C35.8748 28.0292 35.7487 28.6478 35.5871 28.7995C35.4254 28.9552 35.2023 28.7217 34.879 28.8384C34.1419 29.1497 32.7904 30.3092 31.3775 31.5465C28.9042 33.6747 24.1482 38.8923 21.5778 40.9428C20.0356 42.18 18.4611 43.4173 17.6884 43.4951C17.3683 43.534 17.142 43.3784 17.0159 43.2228C16.8542 43.0321 16.7572 42.682 16.8219 42.3746C16.8865 41.8727 17.3683 41.2151 17.8824 40.4798C18.7488 39.2425 20.1941 37.655 21.8979 35.9547C24.5006 33.3635 29.3536 29.8462 32.341 26.9436C34.7529 24.5858 37.4817 20.2553 38.6392 20.0219C38.9948 19.9441 39.3149 20.1775 39.4442 20.411C39.5703 20.6794 39.5703 21.0685 39.3149 21.6482C37.9344 24.6636 20.068 43.3784 17.5914 44.5768C17.142 44.7713 16.9189 44.7713 16.7249 44.6157C16.5309 44.499 16.3401 44.2305 16.3725 43.8803C16.4048 43.0321 17.9147 41.2151 19.0722 39.5888C20.8375 37.1142 23.5048 33.9043 26.1398 30.7722C29.2889 27.0214 35.2993 19.057 36.7446 18.7068C37.0646 18.6329 37.2586 18.8235 37.388 18.9791C37.514 19.1348 37.611 19.3643 37.611 19.5978C37.5464 19.909 37.3556 20.1775 36.9062 20.6794C35.1053 22.7688 25.3703 29.924 20.679 34.1766C16.8542 37.6161 12.1952 43.3784 10.6207 43.997C10.2036 44.1916 9.94496 44.1527 9.75098 43.997C9.56022 43.8064 9.43089 43.2617 9.56022 42.7987C9.71864 41.9855 10.6854 41.2151 11.8719 39.7833C15.0857 35.7991 25.8197 23.0762 30.6695 18.127C33.5308 15.2673 36.6152 12.213 37.805 11.8239C38.1251 11.7111 38.3191 11.7461 38.5099 11.8628C38.6715 12.0185 38.8655 12.3297 38.8655 12.5982C38.8332 12.9834 38.5099 13.3336 38.0281 13.9133C36.6476 15.6525 32.0533 19.481 28.8395 22.8855C24.9177 27.0214 19.2629 34.2934 16.3725 37.2309C14.9563 38.6627 13.7051 40.1296 12.9971 40.1685C12.7416 40.1685 12.483 39.9778 12.386 39.7444C12.2599 39.472 12.2599 39.1647 12.4183 38.7017C12.9001 37.0364 16.4371 32.2818 18.6195 29.3053C20.8051 26.2861 23.0877 23.5431 25.5611 20.6794C28.1961 17.6251 32.7581 12.2908 34.0772 11.5555C34.3973 11.3998 34.5913 11.3609 34.7529 11.4777C34.976 11.5944 35.2347 12.0574 35.2347 12.3297C35.267 12.5982 35.17 12.7538 34.9114 13.1001C33.8832 14.4541 27.6174 18.7846 24.8239 21.2202C22.7353 23.0411 21.4808 24.2006 19.4569 26.2083C16.6279 28.9941 11.8105 35.6474 9.59255 36.5345C8.72283 36.9197 7.66236 36.7679 7.4716 36.3788C7.27762 36.0326 7.66236 35.2972 8.01801 34.6396C8.6614 33.3635 9.9773 31.9316 11.7135 29.924C15.215 25.9398 26.5569 15.4618 28.5194 12.8317C29.0012 12.1741 29.0012 11.6333 29.2889 11.3998C29.5152 11.2442 29.803 11.2053 29.997 11.2831C30.1877 11.3998 30.4464 11.6722 30.4787 11.9407C30.511 12.213 30.3494 12.7538 30.1554 12.9095C29.9646 13.0612 29.6737 12.7149 29.3212 12.8317C28.3254 13.1779 26.3338 15.3062 24.4036 17.1621C21.3839 20.0997 15.9231 26.5973 13.0941 29.0719C11.5518 30.4259 10.139 31.741 9.30157 31.8188C8.94915 31.8577 8.62907 31.7021 8.49975 31.4297C8.37042 31.2002 8.37042 30.7722 8.62907 30.2314C9.59255 27.9903 17.3683 20.5277 21.2869 16.4268C24.5976 12.9834 29.1919 7.95647 30.5757 7.225C30.8958 7.06936 31.0898 7.03046 31.2805 7.14718C31.4745 7.2639 31.7299 7.72691 31.7623 7.99538C31.7623 8.26773 31.6362 8.50118 31.4422 8.73074C31.0251 9.23265 30.1231 9.54392 29.1919 10.2793C27.3943 11.7461 24.4036 14.4152 21.6425 17.2399C17.9793 20.9907 11.0054 30.7333 9.26924 31.1224C8.88449 31.2391 8.59674 30.9667 8.46741 30.7333C8.30576 30.5037 8.33809 29.9979 8.46741 29.6905C8.6614 29.2275 9.30157 29.0719 9.94496 28.4144C11.4548 26.7141 14.2192 21.9945 16.9189 18.7068C20.1003 14.8432 26.3985 7.61019 27.9407 6.87482C28.2608 6.71919 28.4548 6.71919 28.6455 6.87482C28.8395 6.99155 29.0658 7.49346 29.0335 7.76582C29.0335 8.03429 28.9042 8.18992 28.6455 8.50118C27.779 9.4661 24.1159 11.1275 21.6102 13.2947C18.2024 16.2322 13.288 22.6132 10.4914 25.2433C8.91682 26.753 7.30995 28.1809 6.57279 28.4144C6.34647 28.4922 6.18481 28.4922 6.05548 28.3754C5.86473 28.2587 5.63841 27.9903 5.63841 27.679C5.57374 27.2549 5.7354 26.753 6.15248 26.0565C7.4716 23.8893 13.2557 18.2827 16.9512 14.956C20.485 11.785 26.1722 6.99155 27.8114 6.45072C28.2284 6.29509 28.4871 6.334 28.6778 6.48963C28.8718 6.68417 29.0658 7.06936 28.9688 7.49346C28.4548 9.42719 18.6518 17.0065 15.2797 19.7923C13.4141 21.337 11.6165 23.154 10.75 23.2318C10.459 23.2707 10.2359 23.1151 10.0743 22.9244C9.94496 22.691 9.8803 22.3058 10.0096 21.8389C10.4267 20.411 13.7375 16.8898 16.0492 14.2596C18.8135 11.1275 24.2452 5.09672 25.6581 4.40027C25.9782 4.24463 26.1722 4.24463 26.3338 4.36136C26.5569 4.47808 26.7832 4.98 26.7832 5.25235C26.7832 5.52082 26.5892 5.87099 26.4308 5.98772C26.2691 6.06164 26.1398 5.9099 25.8521 5.98772C24.8886 6.334 22.2212 8.61402 19.8416 10.5088C16.3078 13.3336 8.53208 21.2981 6.73121 21.6871C6.31414 21.765 6.05548 21.6482 5.89706 21.4148C5.76773 21.1813 5.70307 20.7961 5.8324 20.372C6.15248 19.2126 8.37042 16.9287 10.265 14.8782C13.2234 11.785 20.0356 6.41182 22.1242 4.09289C22.9584 3.16299 23.2494 2.19807 23.7635 1.92571C24.0512 1.77008 24.4359 1.77008 24.6299 1.96462C24.8239 2.15916 25.0147 2.66107 24.8563 3.16299C24.1805 5.33017 13.3204 13.8355 10.4267 15.7303C9.30157 16.4657 8.20876 17.2399 7.95334 16.9287C7.72702 16.6991 8.05034 15.5747 8.37042 14.8043C8.91682 13.567 10.2359 12.0963 11.4225 10.6256C12.8677 8.84746 14.8626 6.64526 16.5018 5.01891C17.947 3.54818 19.777 1.38489 20.7081 1.15144C21.1284 1.07362 21.5455 1.22926 21.7072 1.50161C21.8333 1.77008 21.7686 2.23698 21.5455 2.69998C20.8375 4.09289 16.4371 7.06936 14.7656 9.0031C13.6081 10.3182 12.774 12.2908 12.0982 12.6371C11.7782 12.8317 11.4225 12.7927 11.2318 12.5982C11.0378 12.4037 11.0701 11.4387 11.0701 11.4387Z" fill="white"/>
</mask>
<g mask="url(#mask1_40_10629)">
<path d="M4.35486 -0.393219H40.8248V51.3818H4.35486V-0.393219Z" fill="#0D99FF"/>
</g>
</g>
<mask id="mask2_40_10629" style="mask-type:luminance" maskUnits="userSpaceOnUse" x="7" y="40" width="11" height="17">
<path d="M7.58484 40.6704H17.239V56.0702H7.58484V40.6704Z" fill="white"/>
</mask>
<g mask="url(#mask2_40_10629)">
<mask id="mask3_40_10629" style="mask-type:luminance" maskUnits="userSpaceOnUse" x="7" y="40" width="11" height="17">
<path d="M16.5632 40.7093C17.336 40.7871 17.239 41.0205 17.1743 41.3668C16.9836 42.2967 16.3725 44.6935 15.6968 46.705C14.7979 49.3741 12.7093 55.2103 12.0336 55.8679C11.8719 55.9846 11.7458 55.9846 11.6489 55.9457C11.5842 55.8679 11.5195 55.7161 11.5519 55.5216C11.6165 54.7473 12.9971 52.4673 13.7375 50.6114C14.6686 48.2497 16.0815 42.4913 16.5309 42.4523C16.6279 42.4134 16.7249 42.6041 16.7249 42.8375C16.7896 43.9581 13.9606 50.8409 12.9971 52.9303C12.5153 53.9341 12.3246 54.7084 11.7459 55.0975C11.1671 55.4827 10.139 55.0197 9.46324 55.1364C8.91684 55.2492 8.24111 55.829 7.95336 55.7161C7.79171 55.6772 7.60095 55.3659 7.63005 55.2103C7.69471 54.9418 8.56443 54.6306 9.14316 54.4399C9.78333 54.2065 10.9731 53.8213 11.3579 54.0509C11.5519 54.2065 11.7459 54.5528 11.6812 54.7862C11.5195 55.2103 9.17549 56.1013 8.98151 55.8679C8.88451 55.7939 8.94917 55.4438 9.0785 55.2881C9.43091 54.864 11.5842 54.2454 12.0013 54.5177C12.1629 54.6695 12.2599 55.0586 12.1629 55.2492C11.9043 55.7161 8.59676 56.0624 8.30578 55.7161C8.20878 55.5994 8.24111 55.327 8.37044 55.1364C8.62909 54.7473 10.042 54.3621 10.653 54.2454C11.0378 54.1676 11.5195 54.0898 11.6165 54.2843C11.7135 54.401 11.5519 54.864 11.4872 54.864C11.4225 54.9029 11.1994 54.6306 11.2318 54.5177C11.2318 54.401 11.5519 54.2065 11.6165 54.2454C11.6812 54.3232 11.7135 54.7473 11.6812 54.7862C11.6165 54.864 11.2318 54.6306 11.2318 54.5528C11.2318 54.4788 11.5519 54.2065 11.6165 54.2843C11.6812 54.3232 11.7135 54.6695 11.5842 54.864C11.2932 55.2881 8.66142 56.0624 8.37044 55.755C8.24111 55.6383 8.27344 55.327 8.37044 55.1364C8.59676 54.864 9.56024 54.8251 10.1713 54.7084C10.7791 54.5917 11.7782 54.2843 12.0659 54.5177C12.2276 54.6695 12.3246 54.9808 12.2276 55.1714C12.0336 55.5994 9.56024 56.2569 9.17549 55.9846C9.01384 55.8679 8.91684 55.5216 9.01384 55.327C9.17549 54.9418 10.7791 54.2843 11.1025 54.4399C11.2641 54.4788 11.3902 54.7084 11.3579 54.864C11.2318 55.2492 8.46743 55.9457 7.95336 55.7161C7.75937 55.6383 7.60095 55.3659 7.63005 55.2103C7.72704 54.9029 8.78752 54.5177 9.39858 54.401C10.042 54.2843 10.9085 54.7473 11.3579 54.5177C11.6812 54.3621 11.7459 54.1287 12.0336 53.5878C12.9324 51.9654 15.9554 42.4913 16.5309 42.4523C16.6279 42.4134 16.7249 42.6041 16.7249 42.8375C16.8219 43.6118 15.7938 46.4326 15.118 48.4053C14.2839 50.7281 12.6447 55.2881 12.0336 55.8679C11.8719 55.9846 11.7458 55.9846 11.6489 55.9457C11.5842 55.8679 11.5195 55.7161 11.5519 55.5216C11.6165 54.5528 13.8021 50.7281 14.6686 48.2146C15.5351 45.7751 16.1462 40.9816 16.6926 40.7093C16.8219 40.6742 17.0773 40.9038 17.0773 40.9816C17.0773 41.0594 16.7249 41.254 16.6279 41.2151C16.5309 41.1762 16.5632 40.7093 16.5632 40.7093Z" fill="white"/>
</mask>
<g mask="url(#mask3_40_10629)">
<path d="M6.34644 39.1257H18.5257V57.5604H6.34644V39.1257Z" fill="black"/>
</g>
</g>
<mask id="mask4_40_10629" style="mask-type:luminance" maskUnits="userSpaceOnUse" x="25" y="40" width="4" height="5">
<path d="M25.364 40.4369H28.0702V44.1293H25.364V40.4369Z" fill="white"/>
</mask>
<g mask="url(#mask4_40_10629)">
<mask id="mask5_40_10629" style="mask-type:luminance" maskUnits="userSpaceOnUse" x="25" y="40" width="4" height="5">
<path d="M26.557 40.6743C26.7187 41.9855 27.7468 43.0321 27.7145 43.3395C27.7145 43.4951 27.5852 43.6118 27.4914 43.6118C27.1681 43.6118 26.0106 42.2967 25.8199 41.7948C25.7552 41.5225 25.7875 41.1373 25.8522 41.0984C25.9169 41.0595 26.043 41.2151 26.1723 41.3279C26.334 41.5225 26.7834 41.9855 26.751 42.18C26.7187 42.3356 26.2693 42.5302 26.1723 42.4524C26.0753 42.3745 26.1076 41.8726 26.1723 41.7948C26.2693 41.717 26.7187 41.9115 26.7187 42.0244C26.751 42.1411 26.46 42.5691 26.3663 42.5691C26.237 42.5691 26.043 42.0633 26.0753 41.9466C26.14 41.8337 26.5894 41.7559 26.654 41.8726C26.7187 41.9466 26.6217 42.4913 26.4924 42.5691C26.2693 42.643 25.4319 41.9115 25.3705 41.6003C25.3381 41.3668 25.5936 40.9816 25.7552 40.9038C25.946 40.826 26.237 40.9427 26.46 41.1373C26.945 41.4836 27.8762 42.9543 28.0055 43.4951C28.0669 43.7286 28.0669 43.9581 28.0055 44.0359C27.8762 44.1526 27.5205 44.1526 27.2974 43.997C27.0064 43.8414 26.751 43.3006 26.5247 42.8765C26.3016 42.4524 26.043 41.8337 25.9783 41.4057C25.946 41.0595 25.9783 40.5575 26.1076 40.4408C26.2046 40.4019 26.557 40.6743 26.557 40.6743Z" fill="white"/>
</mask>
<g mask="url(#mask5_40_10629)">
<path d="M24.0837 38.8923H29.2891V45.5728H24.0837V38.8923Z" fill="black"/>
</g>
</g>
<mask id="mask6_40_10629" style="mask-type:luminance" maskUnits="userSpaceOnUse" x="28" y="45" width="2" height="2">
<path d="M28.2738 45.2538H29.7546V46.9968H28.2738V45.2538Z" fill="white"/>
</mask>
<g mask="url(#mask6_40_10629)">
<mask id="mask7_40_10629" style="mask-type:luminance" maskUnits="userSpaceOnUse" x="28" y="45" width="2" height="2">
<path d="M28.8073 45.3899C29.483 46.5883 29.289 46.8218 29.1274 46.8218C28.9043 46.8218 28.3902 46.1253 28.2932 45.814C28.2609 45.6623 28.2932 45.4677 28.3579 45.3899C28.4225 45.2732 28.6456 45.2343 28.8073 45.3121C29.0336 45.4677 29.5153 46.2031 29.5153 46.5105C29.5153 46.705 29.386 46.9385 29.289 46.9774C29.1597 47.0124 28.9043 46.8607 28.8719 46.7439C28.8396 46.5883 29.2243 46.1642 29.289 46.2031C29.386 46.242 29.4183 46.8607 29.3537 46.9385C29.2567 46.9774 28.8396 46.7439 28.8396 46.6272C28.8396 46.5105 29.289 46.1642 29.3537 46.242C29.4507 46.2809 29.4507 46.8607 29.3537 46.9385C29.2243 47.0124 28.3902 46.1642 28.2932 45.814C28.2609 45.6623 28.3255 45.3899 28.4225 45.3121C28.4872 45.2343 28.6456 45.2343 28.8073 45.3121C29.0659 45.5067 29.8031 46.6661 29.7384 46.8218C29.6738 46.9774 29.0659 46.7828 28.8073 46.5883C28.581 46.3549 28.2285 45.814 28.2932 45.6234C28.3255 45.4677 28.8073 45.3899 28.8073 45.3899Z" fill="white"/>
</mask>
<g mask="url(#mask7_40_10629)">
<path d="M27.0063 43.7675H31.0219V48.5221H27.0063V43.7675Z" fill="black"/>
</g>
</g>
<mask id="mask8_40_10629" style="mask-type:luminance" maskUnits="userSpaceOnUse" x="30" y="47" width="7" height="10">
<path d="M30.1134 47.5416H36.6282V56.3153H30.1134V47.5416Z" fill="white"/>
</mask>
<g mask="url(#mask8_40_10629)">
<mask id="mask9_40_10629" style="mask-type:luminance" maskUnits="userSpaceOnUse" x="30" y="47" width="7" height="10">
<path d="M30.5111 47.5571C35.1054 55.6383 35.4579 54.44 35.7165 54.4789C35.9073 54.4789 36.1659 54.9419 36.1336 55.1364C36.0366 55.4438 35.0731 55.7551 34.656 55.794C34.3327 55.8679 33.9803 55.8679 33.7572 55.6773C33.4986 55.366 33.5956 54.6306 33.3369 53.9342C32.8875 52.8525 31.4099 51.0355 30.9929 49.8761C30.7342 49.1018 30.4788 48.0201 30.6405 47.7867C30.7019 47.7089 30.8635 47.7089 30.9929 47.8256C31.6039 48.2886 33.1785 53.4712 33.9156 54.44C34.239 54.8252 34.4297 55.0197 34.7207 55.0197C35.1378 55.0197 35.8458 53.9731 36.1982 53.9342C36.3599 53.9342 36.5507 54.012 36.583 54.1287C36.6477 54.2454 36.583 54.4789 36.486 54.6306C36.2306 54.9808 35.1054 55.7162 34.753 55.6383C34.5914 55.5605 34.4297 55.3271 34.4297 55.1714C34.462 54.9808 34.9761 54.7863 35.0084 54.5528C35.0731 54.3622 34.8468 54.012 34.9114 53.9731C34.9438 53.9342 35.3932 54.2843 35.3932 54.4011C35.3932 54.5178 34.9438 54.6695 34.8791 54.5917C34.7854 54.5178 34.8468 54.012 34.9438 53.9731C35.0084 53.8991 35.3318 54.012 35.3609 54.1287C35.4255 54.2454 35.2994 54.6306 35.2024 54.6695C35.1054 54.7084 34.753 54.4011 34.753 54.3232C34.7854 54.2065 35.2024 53.9731 35.3318 54.0509C35.4579 54.1676 35.5225 54.9419 35.3932 55.1714C35.2671 55.4049 34.656 55.6383 34.559 55.5216C34.462 55.4438 34.4944 55.0975 34.6237 54.903C34.8177 54.5178 35.8458 53.9731 36.1982 53.9342C36.3599 53.9342 36.5507 54.012 36.583 54.1287C36.6477 54.2454 36.583 54.4789 36.486 54.6306C36.2952 54.9419 35.6195 55.4049 35.1701 55.5216C34.753 55.5994 34.3327 55.6383 33.9156 55.3271C33.2722 54.8641 32.5351 53.086 31.9887 51.9654C31.5069 50.9966 30.9282 49.8761 30.7342 49.1018C30.6081 48.5999 30.5111 47.9423 30.6405 47.7867C30.7019 47.7089 30.8959 47.7478 30.9929 47.8256C31.216 48.0201 31.216 48.7555 31.4746 49.413C31.9563 50.4947 33.4339 52.5062 33.8833 53.6657C34.1743 54.3232 34.462 55.2493 34.365 55.366C34.3036 55.4049 33.9803 55.1714 33.9803 55.0975C34.0126 54.8641 35.7488 54.1287 36.1012 54.2843C36.2952 54.3622 36.4213 54.5528 36.3922 54.7473C36.3599 55.0975 35.4255 55.9068 35.0084 56.1013C34.7207 56.257 34.4944 56.3737 34.1743 56.1792C33.1785 55.5216 29.9971 49.024 30.1232 48.0201C30.1555 47.7478 30.5111 47.5571 30.5111 47.5571Z" fill="white"/>
</mask>
<g mask="url(#mask9_40_10629)">
<path d="M28.8396 46.0086H37.9021V57.7238H28.8396V46.0086Z" fill="black"/>
</g>
</g>
<mask id="mask10_40_10629" style="mask-type:luminance" maskUnits="userSpaceOnUse" x="0" y="27" width="8" height="12">
<path d="M0.455688 27.4417H7.02869V38.939H0.455688V27.4417Z" fill="white"/>
</mask>
<g mask="url(#mask10_40_10629)">
<mask id="mask11_40_10629" style="mask-type:luminance" maskUnits="userSpaceOnUse" x="0" y="27" width="8" height="12">
<path d="M6.47584 27.4495C7.08691 27.6012 7.05458 27.7568 6.98991 27.9514C6.73126 28.9552 4.96596 33.9043 3.7115 35.414C2.90967 36.3789 1.62288 36.9197 1.07648 37.0753C0.882489 37.1142 0.724065 37.1142 0.62707 37.0364C0.530076 36.9197 0.433081 36.729 0.497744 36.5345C0.659402 36.1104 3.13276 34.7953 3.48518 35.0638C3.7115 35.2194 3.58217 35.7991 3.51751 36.2271C3.42375 36.9586 2.9711 38.7017 2.61869 38.8923C2.45703 38.9702 2.20161 38.8534 2.10462 38.6628C2.00763 38.4293 2.16928 37.8885 2.29861 37.4255C2.48937 36.729 3.03577 34.9899 3.39141 34.9899C3.77616 35.0249 4.51332 37.1921 4.48422 37.694C4.45189 37.9274 4.32256 38.122 4.22557 38.1609C4.09624 38.1959 3.84082 38.0052 3.80849 37.8885C3.80849 37.7718 4.1609 37.3477 4.2579 37.3866C4.32256 37.4255 4.38723 38.083 4.29023 38.122C4.22557 38.1609 3.80849 37.8107 3.80849 37.694C3.80849 37.5772 4.22557 37.3477 4.32256 37.4255C4.41956 37.4644 4.48422 37.7718 4.45189 37.8885C4.41956 38.0441 4.19324 38.1959 4.06391 38.1609C3.84082 38.122 3.54984 37.5772 3.39141 37.1531C3.16509 36.6512 2.90967 35.5307 3.03577 35.2194C3.10043 35.0638 3.29442 34.9899 3.39141 34.9899C3.48518 35.0249 3.58217 35.1805 3.6145 35.414C3.67916 35.9937 3.00344 38.6628 2.61869 38.8923C2.45703 38.9702 2.20161 38.8145 2.10462 38.6628C2.00763 38.4682 2.16928 38.0441 2.26628 37.6161C2.4247 36.9586 2.87734 35.2194 3.16509 35.0249C3.29442 34.9509 3.45284 34.9899 3.48518 35.0638C3.58217 35.1805 3.6145 35.5696 3.48518 35.7991C3.26209 36.2271 2.03996 36.729 1.52589 36.9197C1.2058 37.0364 0.850157 37.1921 0.691733 37.0753C0.562407 36.9975 0.433081 36.729 0.497744 36.5345C0.62707 36.0715 2.33094 35.838 3.13276 34.8731C4.32256 33.4802 5.60612 28.9163 6.18486 28.0681C6.34652 27.8347 6.41118 27.679 6.5405 27.679C6.6666 27.679 6.89292 27.8736 6.89292 27.9125C6.89292 27.9514 6.47584 28.0292 6.41118 27.9125C6.34652 27.8347 6.47584 27.4495 6.47584 27.4495Z" fill="white"/>
</mask>
<g mask="url(#mask11_40_10629)">
<path d="M-0.785767 25.9009H8.30586V40.4759H-0.785767V25.9009Z" fill="black"/>
</g>
</g>
<mask id="mask12_40_10629" style="mask-type:luminance" maskUnits="userSpaceOnUse" x="36" y="24" width="7" height="12">
<path d="M36.8966 24.6908H42.9523V35.8652H36.8966V24.6908Z" fill="white"/>
</mask>
<g mask="url(#mask12_40_10629)">
<mask id="mask13_40_10629" style="mask-type:luminance" maskUnits="userSpaceOnUse" x="36" y="24" width="7" height="12">
<path d="M37.5789 25.1266C37.9345 27.1381 38.3193 27.8735 38.801 28.7606C39.4444 30.0368 41.339 32.4374 41.3714 33.2467C41.4037 33.558 41.2097 33.9042 41.0836 33.9042C40.9866 33.9432 40.6956 33.5969 40.6956 33.4412C40.6956 33.2856 40.8896 33.0171 41.0189 32.9782C41.145 32.9782 41.3714 33.13 41.4037 33.3245C41.533 33.7525 41.0513 35.4139 40.728 35.7213C40.5372 35.8769 40.2139 35.9158 40.1169 35.7602C39.9261 35.4139 40.6956 32.204 41.2097 32.0483C41.63 31.9316 42.8166 33.6358 42.8812 34.1377C42.9136 34.3711 42.7842 34.6785 42.6258 34.7174C42.3025 34.7952 40.7926 33.4801 40.825 32.9782C40.8573 32.5113 42.1732 31.7799 42.5612 31.7799C42.7196 31.7799 42.8812 31.8927 42.9136 32.0483C42.9459 32.1651 42.8489 32.4763 42.7519 32.5113C42.6581 32.5502 42.3025 32.1651 42.3025 32.0483C42.3348 31.9316 42.7519 31.7799 42.8166 31.8577C42.8812 31.9316 42.7519 32.5113 42.6872 32.5502C42.5935 32.5502 42.3025 32.0872 42.3348 31.9705C42.3672 31.8927 42.8166 31.8577 42.8812 31.9316C42.9782 32.0483 42.9136 32.3985 42.8166 32.5892C42.6872 32.7837 42.3025 32.9004 42.0794 33.0171C41.8531 33.1689 41.5977 33.3634 41.3714 33.3634C41.1774 33.3634 40.825 33.2078 40.825 33.095C40.825 32.9782 41.1127 32.667 41.3067 32.7059C41.6914 32.7448 42.9136 34.2155 42.8812 34.484C42.8489 34.6396 42.6258 34.7174 42.4642 34.7174C42.2055 34.6396 41.7238 34.1766 41.533 33.7525C41.3067 33.2856 41.0836 32.1261 41.2097 32.0483C41.2744 32.0094 41.5653 32.204 41.63 32.4374C41.7561 32.9782 41.145 35.2193 40.7603 35.6084C40.5695 35.7991 40.2139 35.8769 40.1169 35.7602C39.9585 35.5306 40.4079 33.4801 40.728 33.2078C40.9219 33.095 41.4037 33.4023 41.4037 33.3245C41.436 33.2856 41.1127 33.0171 41.1127 33.0171C41.0836 33.056 41.436 33.3245 41.436 33.4801C41.4037 33.6358 41.1774 33.9042 41.0189 33.9042C40.825 33.9042 40.5986 33.5969 40.3432 33.2467C39.7645 32.4374 38.6393 30.1924 38.0606 28.8384C37.5789 27.7568 36.9678 26.5973 36.9064 25.823C36.874 25.36 37.0001 24.7803 37.1295 24.7414C37.2588 24.6636 37.5789 25.1266 37.5789 25.1266Z" fill="white"/>
</mask>
<g mask="url(#mask13_40_10629)">
<path d="M35.6196 23.1929H44.2327V37.3632H35.6196V23.1929Z" fill="black"/>
</g>
</g>
<mask id="mask14_40_10629" style="mask-type:luminance" maskUnits="userSpaceOnUse" x="21" y="10" width="15" height="16">
<path d="M21.7687 10.2832H35.0117V25.753H21.7687V10.2832Z" fill="white"/>
</mask>
<g mask="url(#mask14_40_10629)">
<path d="M22.5382 17.9559C22.5382 21.9867 25.2638 25.2511 28.623 25.2511C31.9855 25.2511 34.711 21.9867 34.711 17.9559C34.711 13.9289 31.9855 10.6645 28.623 10.6645C25.2638 10.6645 22.5382 13.9289 22.5382 17.9559Z" fill="white"/>
</g>
<path d="M26.8446 17.9558C26.8446 19.1348 27.64 20.088 28.6228 20.088C29.6057 20.088 30.4011 19.1348 30.4011 17.9558C30.4011 16.7808 29.6057 15.8276 28.6228 15.8276C27.64 15.8276 26.8446 16.7808 26.8446 17.9558Z" fill="#211C1D"/>
<path d="M28.9365 16.9754C28.9365 17.31 29.1628 17.5823 29.4441 17.5823C29.7254 17.5823 29.9517 17.31 29.9517 16.9754C29.9517 16.6369 29.7254 16.3645 29.4441 16.3645C29.1628 16.3645 28.9365 16.6369 28.9365 16.9754Z" fill="white"/>
<path d="M28.542 17.9325C28.542 18.0959 28.6519 18.2321 28.7942 18.2321C28.9332 18.2321 29.0464 18.0959 29.0464 17.9325C29.0464 17.7652 28.9332 17.629 28.7942 17.629C28.6519 17.629 28.542 17.7652 28.542 17.9325Z" fill="white"/>
<mask id="mask15_40_10629" style="mask-type:luminance" maskUnits="userSpaceOnUse" x="21" y="10" width="15" height="16">
<path d="M21.7687 10.2832H35.0117V25.753H21.7687V10.2832Z" fill="white"/>
</mask>
<g mask="url(#mask15_40_10629)">
<path d="M23.1978 17.9559C23.1978 14.0845 25.6259 10.9485 28.623 10.9485C31.6201 10.9485 34.0515 14.0845 34.0515 17.9559C34.0515 21.8272 31.6201 24.9671 28.623 24.9671C25.6259 24.9671 23.1978 21.8272 23.1978 17.9559ZM22.5382 17.9559C22.5382 21.9867 25.2638 25.2511 28.623 25.2511C31.9855 25.2511 34.711 21.9867 34.711 17.9559C34.711 13.9289 31.9855 10.6645 28.623 10.6645C25.2638 10.6645 22.5382 13.9289 22.5382 17.9559Z" fill="#211C1D"/>
</g>
<path d="M28.6228 10.6644C28.6228 10.6644 30.1262 10.5672 31.4648 10.5672C31.4648 10.5672 28.5905 9.97186 26.2529 11.2364C26.2529 11.2364 28.2478 10.6839 28.6228 10.6644Z" fill="#211C1D"/>
<path d="M30.7471 24.6441C30.7471 24.6441 32.7258 23.9555 33.5631 22.7843C33.5631 22.7843 32.6805 24.4924 30.0552 25.0488C30.0552 25.0488 30.5886 24.7842 30.7471 24.6441Z" fill="#211C1D"/>
<mask id="mask16_40_10629" style="mask-type:luminance" maskUnits="userSpaceOnUse" x="22" y="24" width="14" height="2">
<path d="M22.5963 24.2278H35.0116V25.753H22.5963V24.2278Z" fill="white"/>
</mask>
<g mask="url(#mask16_40_10629)">
<path d="M34.2486 25.7452C34.2486 25.7452 30.7535 24.0255 23.0101 25.7452C23.0101 25.7452 30.3138 24.7141 34.2486 25.7452Z" fill="#211C1D"/>
</g>
<mask id="mask17_40_10629" style="mask-type:luminance" maskUnits="userSpaceOnUse" x="24" y="7" width="12" height="9">
<path d="M24.2517 7.82028H35.8393V15.2634H24.2517V7.82028Z" fill="white"/>
</mask>
<g mask="url(#mask17_40_10629)">
<path d="M35.655 14.5125C35.8684 13.9872 35.6873 13.353 35.2476 13.0962L26.6894 8.07317C26.2497 7.81637 25.7227 8.03037 25.5061 8.55563L25.1505 9.42717C24.9371 9.95243 25.1181 10.5866 25.5546 10.8434L35.655 14.5125Z" fill="#211C1D"/>
</g>
<mask id="mask18_40_10629" style="mask-type:luminance" maskUnits="userSpaceOnUse" x="10" y="10" width="13" height="16">
<path d="M10.181 10.2832H22.5963V25.753H10.181V10.2832Z" fill="white"/>
</mask>
<g mask="url(#mask18_40_10629)">
<path d="M16.4501 10.6645C13.0877 10.6645 10.3654 13.9289 10.3654 17.9559C10.3654 21.9867 13.0877 25.2511 16.4501 25.2511C19.8126 25.2511 22.5382 21.9867 22.5382 17.9559C22.5382 13.9289 19.8126 10.6645 16.4501 10.6645Z" fill="white"/>
</g>
<path d="M16.4501 15.8276C15.4672 15.8276 14.6719 16.7808 14.6719 17.9558C14.6719 19.1348 15.4672 20.088 16.4501 20.088C17.433 20.088 18.2283 19.1348 18.2283 17.9558C18.2283 16.7808 17.433 15.8276 16.4501 15.8276Z" fill="#211C1D"/>
<path d="M15.6288 16.3645C15.3508 16.3645 15.1212 16.6369 15.1212 16.9754C15.1212 17.31 15.3508 17.5823 15.6288 17.5823C15.9101 17.5823 16.1397 17.31 16.1397 16.9754C16.1397 16.6369 15.9101 16.3645 15.6288 16.3645Z" fill="white"/>
<path d="M16.282 17.629C16.1429 17.629 16.0298 17.7652 16.0298 17.9325C16.0298 18.0959 16.1429 18.2321 16.282 18.2321C16.421 18.2321 16.5342 18.0959 16.5342 17.9325C16.5342 17.7652 16.421 17.629 16.282 17.629Z" fill="white"/>
<mask id="mask19_40_10629" style="mask-type:luminance" maskUnits="userSpaceOnUse" x="10" y="10" width="13" height="16">
<path d="M10.181 10.2832H22.5963V25.753H10.181V10.2832Z" fill="white"/>
</mask>
<g mask="url(#mask19_40_10629)">
<path d="M16.4501 24.9671C13.453 24.9671 11.0249 21.8272 11.0249 17.9559C11.0249 14.0845 13.453 10.9485 16.4501 10.9485C19.4473 10.9485 21.8786 14.0845 21.8786 17.9559C21.8786 21.8272 19.4473 24.9671 16.4501 24.9671ZM16.4501 10.6645C13.0877 10.6645 10.3654 13.9289 10.3654 17.9559C10.3654 21.9867 13.0877 25.2511 16.4501 25.2511C19.8126 25.2511 22.5382 21.9867 22.5382 17.9559C22.5382 13.9289 19.8126 10.6645 16.4501 10.6645Z" fill="#211C1D"/>
</g>
<path d="M16.4501 10.6644C16.4501 10.6644 14.9467 10.5672 13.6082 10.5672C13.6082 10.5672 16.4824 9.97186 18.8232 11.2364C18.8232 11.2364 16.8251 10.6839 16.4501 10.6644Z" fill="#211C1D"/>
<path d="M14.3292 24.6441C14.3292 24.6441 12.3473 23.9555 11.5099 22.7843C11.5099 22.7843 12.3958 24.4924 15.0179 25.0488C15.0179 25.0488 14.4876 24.7842 14.3292 24.6441Z" fill="#211C1D"/>
<mask id="mask20_40_10629" style="mask-type:luminance" maskUnits="userSpaceOnUse" x="10" y="24" width="13" height="2">
<path d="M10.181 24.2278H22.5963V25.753H10.181V24.2278Z" fill="white"/>
</mask>
<g mask="url(#mask20_40_10629)">
<path d="M10.8276 25.7452C10.8276 25.7452 14.3227 24.0255 22.0661 25.7452C22.0661 25.7452 14.7591 24.7141 10.8276 25.7452Z" fill="#211C1D"/>
</g>
<mask id="mask21_40_10629" style="mask-type:luminance" maskUnits="userSpaceOnUse" x="9" y="7" width="12" height="9">
<path d="M9.17554 7.82028H20.1133V15.2634H9.17554V7.82028Z" fill="white"/>
</mask>
<g mask="url(#mask21_40_10629)">
<path d="M9.42134 14.5125C9.20795 13.9872 9.389 13.353 9.82548 13.0962L18.3869 8.07317C18.8233 7.81637 19.3536 8.03037 19.567 8.55563L19.9226 9.42717C20.1392 9.95243 19.9582 10.5866 19.5185 10.8434L9.42134 14.5125Z" fill="#211C1D"/>
</g>
<mask id="mask22_40_10629" style="mask-type:luminance" maskUnits="userSpaceOnUse" x="14" y="27" width="14" height="8">
<path d="M14.3195 27.2159H27.5624V34.1883H14.3195V27.2159Z" fill="white"/>
</mask>
<g mask="url(#mask22_40_10629)">
<mask id="mask23_40_10629" style="mask-type:luminance" maskUnits="userSpaceOnUse" x="14" y="25" width="15" height="10">
<path d="M14.8399 25.9203L28.1185 27.6984L27.4913 34.4606L14.2159 32.6787L14.8399 25.9203Z" fill="white"/>
</mask>
<g mask="url(#mask23_40_10629)">
<mask id="mask24_40_10629" style="mask-type:luminance" maskUnits="userSpaceOnUse" x="14" y="25" width="15" height="10">
<path d="M14.8399 25.9203L28.1185 27.6984L27.4913 34.4606L14.2159 32.6787L14.8399 25.9203Z" fill="white"/>
</mask>
<g mask="url(#mask24_40_10629)">
<mask id="mask25_40_10629" style="mask-type:luminance" maskUnits="userSpaceOnUse" x="14" y="25" width="15" height="10">
<path d="M14.8399 25.9203L28.1185 27.6984L27.4913 34.4606L14.2159 32.6787L14.8399 25.9203Z" fill="white"/>
</mask>
<g mask="url(#mask25_40_10629)">
<path d="M14.5845 31.8032C14.7397 32.239 18.044 29.7177 22.1533 30.99C25.2119 31.9355 26.7605 34.3789 27.1065 33.9781C27.5074 33.519 26.046 29.636 23.2429 28.3676C19.1465 26.5078 14.397 31.2585 14.5845 31.8032Z" fill="#1D1D1B"/>
</g>
</g>
</g>
</g>
<mask id="mask26_40_10629" style="mask-type:luminance" maskUnits="userSpaceOnUse" x="28" y="17" width="1" height="2">
<path d="M28.5162 17.3761H28.9721V18.0258H28.5162V17.3761Z" fill="white"/>
</mask>
<g mask="url(#mask26_40_10629)">
<mask id="mask27_40_10629" style="mask-type:luminance" maskUnits="userSpaceOnUse" x="28" y="17" width="1" height="2">
<path d="M28.7102 17.9753C28.5808 17.5084 28.8718 17.3916 28.9365 17.4306C29.0011 17.5084 28.9688 17.8974 28.9042 17.9364C28.8395 18.0142 28.5194 17.8196 28.5194 17.7418C28.5194 17.6251 28.8718 17.3566 28.9042 17.3916C28.9365 17.4306 28.7748 18.0142 28.7748 18.0142" fill="white"/>
</mask>
<g mask="url(#mask27_40_10629)">
<path d="M27.2325 15.847H30.22V19.5549H27.2325V15.847Z" fill="#1E1E1E"/>
</g>
</g>
<mask id="mask28_40_10629" style="mask-type:luminance" maskUnits="userSpaceOnUse" x="28" y="17" width="2" height="3">
<path d="M28.2285 17.7535H29.3634V19.0491H28.2285V17.7535Z" fill="white"/>
</mask>
<g mask="url(#mask28_40_10629)">
<mask id="mask29_40_10629" style="mask-type:luminance" maskUnits="userSpaceOnUse" x="28" y="17" width="2" height="3">
<path d="M28.5518 18.0142C28.3902 18.555 28.6456 18.0142 28.7749 17.9753C28.9366 17.9753 29.2243 18.2438 29.2567 18.3994C29.289 18.555 29.1597 18.9013 29.0659 18.9402C28.9042 18.9791 28.3578 18.0881 28.3255 18.1271C28.2932 18.1271 28.6779 18.9013 28.7426 18.8624C28.8396 18.8624 28.7749 18.4383 28.8719 18.3216C28.9366 18.2438 29.1597 18.2438 29.2243 18.3216C29.3213 18.4383 29.3213 18.9402 29.2243 19.018C29.1273 19.0959 28.7426 18.8624 28.7103 18.7457C28.7103 18.5939 29.0336 18.2438 29.1273 18.2827C29.2243 18.2827 29.386 18.8235 29.3213 18.9013C29.2567 18.9791 28.7749 18.9013 28.7426 18.7846C28.6779 18.6679 28.8396 18.3216 28.9366 18.2827C29.0336 18.2438 29.3213 18.5161 29.3537 18.4772C29.386 18.3994 29.0012 17.8197 28.9689 17.8586C28.9366 17.8586 29.289 18.7068 29.192 18.8235C29.095 18.9402 28.4548 18.7068 28.3902 18.5161C28.3255 18.3994 28.5518 17.9364 28.6456 17.9364C28.7426 17.9364 29.0012 18.6329 28.9366 18.7457C28.8719 18.8624 28.4225 18.8624 28.2932 18.7457C28.1962 18.5939 28.2285 17.8586 28.3255 17.7808C28.4548 17.703 29.0012 18.0492 29.0012 18.2049C29.0336 18.3216 28.6779 18.6679 28.6133 18.6329C28.5518 18.5939 28.5518 18.0142 28.5518 18.0142Z" fill="white"/>
</mask>
<g mask="url(#mask29_40_10629)">
<path d="M27.0063 16.2323H30.6404V20.6016H27.0063V16.2323Z" fill="#1E1E1E"/>
</g>
</g>
<mask id="mask30_40_10629" style="mask-type:luminance" maskUnits="userSpaceOnUse" x="28" y="17" width="2" height="2">
<path d="M28.2156 17.7574H29.5088V18.6834H28.2156V17.7574Z" fill="white"/>
</mask>
<g mask="url(#mask30_40_10629)">
<mask id="mask31_40_10629" style="mask-type:luminance" maskUnits="userSpaceOnUse" x="28" y="17" width="2" height="2">
<path d="M28.2609 17.9363C29.58 17.8974 29.5477 18.3604 29.483 18.4383C29.386 18.5161 28.9689 18.127 28.9043 18.2048C28.8396 18.2437 28.9043 18.5939 28.9043 18.5939C28.8719 18.5939 28.7749 18.3604 28.8073 18.2826C28.8719 18.127 29.2243 17.9753 29.289 18.0142C29.386 18.0881 29.3537 18.6328 29.2567 18.6678C29.192 18.7456 28.8073 18.3604 28.8073 18.2437C28.8396 18.127 29.2243 17.9753 29.3213 18.0492C29.386 18.0881 29.386 18.6328 29.289 18.6678C29.2243 18.7067 28.8073 18.3994 28.8073 18.2826C28.8073 18.127 29.386 17.7029 29.4507 17.7807C29.5153 17.8196 29.4507 18.3215 29.3213 18.4772C29.1274 18.6678 28.4225 18.7067 28.2932 18.555C28.1639 18.4383 28.2609 17.9363 28.2609 17.9363Z" fill="white"/>
</mask>
<g mask="url(#mask31_40_10629)">
<path d="M26.9773 16.2322H30.7601V20.2553H26.9773V16.2322Z" fill="#1E1E1E"/>
</g>
</g>
<mask id="mask32_40_10629" style="mask-type:luminance" maskUnits="userSpaceOnUse" x="28" y="18" width="2" height="2">
<path d="M28.1412 18.2165H29.3343V19.5121H28.1412V18.2165Z" fill="white"/>
</mask>
<g mask="url(#mask32_40_10629)">
<mask id="mask33_40_10629" style="mask-type:luminance" maskUnits="userSpaceOnUse" x="28" y="18" width="2" height="2">
<path d="M28.1639 18.7845C28.6456 18.2826 28.581 19.2514 28.7103 19.2864C28.8073 19.3253 29.0336 18.8623 29.1274 18.8623C29.2244 18.9012 29.289 19.4031 29.2244 19.4809C29.1597 19.5588 28.775 19.4809 28.7426 19.3642C28.7103 19.2514 28.9366 18.8623 29.0013 18.8623C29.095 18.8623 29.3214 19.3642 29.2567 19.442C29.2244 19.5199 28.8073 19.5199 28.7426 19.4031C28.7103 19.2864 28.8073 18.9012 28.9043 18.8623C29.0013 18.8234 29.3214 19.1736 29.3214 19.1347C29.3214 19.1347 29.1597 18.8623 29.0336 18.8234C28.8396 18.7456 28.4549 19.0958 28.3256 19.0179C28.1962 18.9012 28.0992 18.5549 28.1639 18.3993C28.1962 18.2826 28.4549 18.1659 28.5519 18.2437C28.6456 18.3215 28.7103 18.979 28.6133 19.1347C28.5519 19.2514 28.2932 19.3642 28.2286 19.2864C28.1316 19.2514 28.1639 18.7845 28.1639 18.7845Z" fill="white"/>
</mask>
<g mask="url(#mask33_40_10629)">
<path d="M26.8804 16.6991H30.6373V21.0684H26.8804V16.6991Z" fill="#1E1E1E"/>
</g>
</g>
<mask id="mask34_40_10629" style="mask-type:luminance" maskUnits="userSpaceOnUse" x="28" y="18" width="2" height="1">
<path d="M28.3352 18.3722H29.0142V18.948H28.3352V18.3722Z" fill="white"/>
</mask>
<g mask="url(#mask34_40_10629)">
<mask id="mask35_40_10629" style="mask-type:luminance" maskUnits="userSpaceOnUse" x="28" y="18" width="2" height="1">
<path d="M28.4872 18.5549C28.8073 18.7067 28.5519 18.979 28.4549 18.9401C28.3902 18.9401 28.2932 18.4771 28.3579 18.3993C28.4225 18.3604 28.7426 18.4771 28.7749 18.5549C28.8073 18.6678 28.6456 18.979 28.581 18.9401C28.5195 18.9401 28.3255 18.4771 28.3579 18.3993C28.4225 18.3215 28.9689 18.4382 29.0013 18.516C29.0336 18.5938 28.8719 18.8623 28.8073 18.8623C28.7103 18.8623 28.4872 18.5549 28.4872 18.5549Z" fill="white"/>
</mask>
<g mask="url(#mask35_40_10629)">
<path d="M27.071 16.8508H30.3171V20.5276H27.071V16.8508Z" fill="#1E1E1E"/>
</g>
</g>
<mask id="mask36_40_10629" style="mask-type:luminance" maskUnits="userSpaceOnUse" x="28" y="17" width="2" height="3">
<path d="M28.083 17.5084H29.6737V19.3838H28.083V17.5084Z" fill="white"/>
</mask>
<g mask="url(#mask36_40_10629)">
<mask id="mask37_40_10629" style="mask-type:luminance" maskUnits="userSpaceOnUse" x="28" y="17" width="2" height="3">
<path d="M28.6133 17.5862C29.7384 19.0959 29.483 19.4032 29.4183 19.3643C29.3213 19.3643 29.192 18.9402 29.2567 18.8624C29.289 18.7457 29.6091 18.7068 29.6414 18.7846C29.7061 18.8624 29.58 19.3254 29.4506 19.3643C29.2243 19.4421 28.5195 18.7457 28.2932 18.3605C28.1639 18.127 28.0345 17.664 28.1315 17.5473C28.1962 17.4695 28.6133 17.5862 28.6133 17.5862Z" fill="white"/>
</mask>
<g mask="url(#mask37_40_10629)">
<path d="M26.8479 16.0026H31.0575V20.9517H26.8479V16.0026Z" fill="#1E1E1E"/>
</g>
</g>
<mask id="mask38_40_10629" style="mask-type:luminance" maskUnits="userSpaceOnUse" x="28" y="17" width="2" height="3">
<path d="M28.2156 17.4539H29.816V19.4577H28.2156V17.4539Z" fill="white"/>
</mask>
<g mask="url(#mask38_40_10629)">
<mask id="mask39_40_10629" style="mask-type:luminance" maskUnits="userSpaceOnUse" x="28" y="17" width="2" height="3">
<path d="M28.7102 17.4695C29.803 19.1737 29.7384 19.3643 29.6414 19.4421C29.5476 19.481 29.3536 19.4032 29.3213 19.3254C29.2566 19.2126 29.3859 18.8235 29.4829 18.7846C29.5476 18.7457 29.8354 19.0569 29.803 19.1737C29.803 19.2515 29.5476 19.4421 29.4183 19.4032C29.1596 19.3643 28.8072 18.6679 28.5809 18.3605C28.4548 18.0881 28.1961 17.8197 28.2285 17.664C28.2608 17.5473 28.7102 17.4695 28.7102 17.4695Z" fill="white"/>
</mask>
<g mask="url(#mask39_40_10629)">
<path d="M26.9449 15.9249H31.1222V20.9907H26.9449V15.9249Z" fill="#1E1E1E"/>
</g>
</g>
<mask id="mask40_40_10629" style="mask-type:luminance" maskUnits="userSpaceOnUse" x="28" y="16" width="2" height="3">
<path d="M28.041 16.6096H29.6996V18.7612H28.041V16.6096Z" fill="white"/>
</mask>
<g mask="url(#mask40_40_10629)">
<mask id="mask41_40_10629" style="mask-type:luminance" maskUnits="userSpaceOnUse" x="28" y="16" width="2" height="3">
<path d="M28.5195 16.6796C29.7384 18.4966 29.6737 18.6873 29.58 18.7262C29.483 18.804 29.192 18.6873 29.1597 18.6133C29.1273 18.4966 29.386 18.0686 29.483 18.0686C29.58 18.0686 29.7384 18.4966 29.6737 18.6133C29.6414 18.7262 29.4183 18.7651 29.2567 18.7262C28.9366 18.6133 28.3578 17.7223 28.1639 17.3372C28.0669 17.0648 28.0054 16.7185 28.0669 16.6407C28.1315 16.5629 28.5195 16.6796 28.5195 16.6796Z" fill="white"/>
</mask>
<g mask="url(#mask41_40_10629)">
<path d="M26.7833 15.0922H31.0252V20.3175H26.7833V15.0922Z" fill="#1E1E1E"/>
</g>
</g>
<mask id="mask42_40_10629" style="mask-type:luminance" maskUnits="userSpaceOnUse" x="15" y="17" width="3" height="2">
<path d="M15.7679 17.3839H17.2714V18.9908H15.7679V17.3839Z" fill="white"/>
</mask>
<g mask="url(#mask42_40_10629)">
<mask id="mask43_40_10629" style="mask-type:luminance" maskUnits="userSpaceOnUse" x="15" y="17" width="3" height="2">
<path d="M16.4372 18.3605C17.1743 17.4306 17.2713 17.7418 17.239 17.9364C17.2067 18.2048 16.5956 18.9402 16.3402 18.9791C16.1785 18.9791 15.9554 18.6678 15.9231 18.5161C15.9231 18.3216 16.1138 17.9364 16.2108 17.8586C16.3078 17.8586 16.5018 17.9753 16.5309 18.0492C16.5309 18.1659 16.3402 18.4772 16.2432 18.5161C16.1138 18.5161 15.8908 18.2048 15.8908 18.0492C15.8584 17.8586 16.3402 17.3917 16.3402 17.3917C16.3078 17.3917 15.8584 17.8197 15.8908 17.8975C15.9231 18.0142 16.3402 17.8586 16.4048 17.9753C16.4695 18.0881 16.4372 18.4383 16.3402 18.555C16.2432 18.6328 15.9878 18.6328 15.9231 18.555C15.8261 18.4772 15.7291 18.1659 15.7938 18.0492C15.8584 17.9364 16.2755 17.8197 16.3402 17.9364C16.4372 18.0142 16.3402 18.555 16.2755 18.5939C16.1785 18.6328 15.7614 18.2438 15.7938 18.127C15.7938 18.0142 16.1785 17.7807 16.2755 17.8586C16.3725 17.9364 16.2755 18.5161 16.3402 18.555C16.4372 18.5939 16.7896 18.0492 16.7896 18.0142C16.7572 18.0142 16.3078 18.555 16.1462 18.4772C16.0169 18.4383 15.8584 18.0142 15.9231 17.8586C15.9878 17.664 16.6602 17.3566 16.8219 17.4695C16.9512 17.5473 16.9512 17.8586 16.9189 18.0881C16.8542 18.3605 16.5309 18.9402 16.3402 18.9791C16.2108 18.9791 15.9554 18.5939 15.9554 18.3994C15.9878 18.127 16.8866 17.3917 17.0773 17.4306C17.2067 17.4695 17.2713 17.664 17.2713 17.8197C17.2713 18.0492 17.045 18.5939 16.8866 18.6328C16.7572 18.7068 16.4372 18.3605 16.4372 18.3605Z" fill="white"/>
</mask>
<g mask="url(#mask43_40_10629)">
<path d="M14.507 15.847H18.5937V20.5277H14.507V15.847Z" fill="#1E1E1E"/>
</g>
</g>
</svg>
